<svg width="100" height="100" viewBox="0 0 100 100" fill="none" xmlns="http://www.w3.org/2000/svg">
<circle cx="50" cy="50" r="50" fill="#1A1A1D"/>
<path d="M62.842 41.2498H55.8333V35.4164C55.8333 32.4064 56.0783 30.5106 60.392 30.5106H62.9237C64.5337 30.5106 65.8404 29.2039 65.8404 27.5939V23.9364C65.8404 22.411 64.6708 21.1073 63.1483 21.0052C61.3866 20.8856 59.622 20.8302 57.8545 20.8331C49.9416 20.8331 44.1666 25.666 44.1666 34.5385V41.2498H38.3333C36.7233 41.2498 35.4166 42.5564 35.4166 44.1664V49.9998C35.4166 51.6098 36.7233 52.9164 38.3333 52.9164L44.1666 52.9135V76.2498C44.1666 77.8598 45.4733 79.1664 47.0833 79.1664H52.9166C54.5266 79.1664 55.8333 77.8598 55.8333 76.2498V52.9077L62.1741 52.9048C63.6558 52.9048 64.9012 51.7935 65.0704 50.3206L65.7383 44.4989C65.9395 42.7694 64.5862 41.2498 62.842 41.2498Z" fill="white"/>
</svg>
