<svg width="100" height="100" viewBox="0 0 100 100" fill="none" xmlns="http://www.w3.org/2000/svg">
<circle cx="50" cy="50" r="50" fill="#1A1A1D"/>
<path d="M72.088 44.9103H49.8827V54.5443H62.6614C61.472 60.6664 56.4934 64.1839 49.8827 64.1839C48.0329 64.1872 46.2007 63.8082 44.4912 63.0686C42.7816 62.329 41.2284 61.2433 39.9205 59.8739C38.6127 58.5045 37.5759 56.8782 36.8697 55.0884C36.1636 53.2986 35.8019 51.3804 35.8054 49.4439C35.8022 47.5077 36.1642 45.5898 36.8705 43.8003C37.5768 42.0108 38.6136 40.3849 39.9215 39.0158C41.2293 37.6466 42.7824 36.5612 44.4918 35.8218C46.2012 35.0823 48.0332 34.7034 49.8827 34.7067C53.24 34.7067 56.2747 35.9546 58.656 37.9953L65.5894 30.7398C61.3654 26.8845 55.9494 24.506 49.8827 24.506C46.7515 24.4964 43.6494 25.135 40.7548 26.385C37.8602 27.6349 35.2303 29.4717 33.0162 31.7896C30.8021 34.1075 29.0476 36.8607 27.8536 39.891C26.6595 42.9213 26.0496 46.1688 26.0587 49.4467C26.0492 52.7248 26.6589 55.9724 27.8528 59.0029C29.0467 62.0333 30.8012 64.7867 33.0154 67.1047C35.2296 69.4226 37.8597 71.2594 40.7544 72.5092C43.6492 73.7591 46.7514 74.3974 49.8827 74.3875C61.7947 74.3875 72.6267 65.3173 72.6267 49.4467C72.6267 47.9727 72.4107 46.3843 72.088 44.9103Z" fill="white"/>
</svg>
