<svg width="1774" height="504" viewBox="0 0 1774 504" fill="none" xmlns="http://www.w3.org/2000/svg">
<path d="M88.2198 198.15C88.9998 200.78 92.4598 203.41 87.4898 205.9C85.9798 206.65 88.1798 208.33 89.2798 209.22C96.3798 214.99 103.5 220.75 110.62 226.49C114.96 230 115.32 231.98 112.48 237.04C111.71 238.42 111.56 239.62 113.63 239.8C114.62 239.89 115.64 239.73 116.62 239.85C118.69 240.11 122.2 238.84 122.53 240.69C123.06 243.67 124.64 247.35 121.35 250.24C120.11 251.33 120.4 253.3 120.4 254.93C120.39 281.23 120.48 307.53 120.3 333.83C120.27 337.97 123.88 340.77 123.18 345.21C122.71 348.18 122.17 349.51 119.16 348.93C115.53 348.23 114.44 350.11 114.79 353.25C115.09 356.01 113.89 357.38 111.43 358.5C103.26 362.19 95.1498 366.01 87.1398 370.02C84.7298 371.23 82.8298 370.89 80.6098 369.81C72.8498 366.03 65.0998 362.22 57.1898 358.78C54.0498 357.42 52.9998 355.51 53.2398 352.33C53.3798 350.56 53.5198 348.7 50.5598 348.84C48.8198 348.92 45.9798 350.16 45.3998 347.72C44.7698 345.1 43.9798 341.36 45.7898 339.56C47.8698 337.5 47.6498 335.48 47.6598 333.42C47.7498 307.29 47.6298 281.16 47.8198 255.02C47.8498 251.03 44.4598 248.38 44.9798 244.15C45.3898 240.86 45.8198 239.24 49.4298 239.77C51.0598 240.01 52.7498 239.84 54.4198 239.79C56.3698 239.73 56.6098 238.66 55.8098 237.15C52.8698 231.59 53.1698 229.99 57.7998 226.26C64.6698 220.73 71.5698 215.24 78.3498 209.59C79.7598 208.42 84.0398 207.03 78.7098 204.79C77.7298 204.38 77.5798 201.52 78.9998 199.94C81.7398 196.17 83.6098 195.8 88.2398 198.13L88.2198 198.15Z" fill="#1A1A1D"/>
<path d="M86.1698 183.98C86.4698 183.97 86.7398 184.05 86.9898 184.22C87.1698 185.13 86.5798 185.51 85.8898 185.82C84.6898 186.19 83.4898 186.19 82.2798 185.82C81.5898 185.51 80.9998 185.11 81.1798 184.21C81.4198 184.05 81.6898 183.97 81.9798 183.97C82.9998 182.83 82.5798 181.43 82.5898 180.15C82.6098 138.42 82.6098 96.6798 82.5898 54.9498C82.5898 53.6598 82.9698 52.2698 82.0298 51.0998C60.5398 51.0998 39.0398 51.0698 17.5498 51.0998C15.9598 51.0998 14.2698 50.5798 12.8498 52.0498C11.9398 52.9998 10.8898 52.4798 10.6498 51.3198C10.4498 50.3498 10.8998 49.2798 12.1098 49.1398C13.2598 48.9998 14.4398 49.0798 15.6098 49.0798C281.21 49.0798 546.81 49.0798 812.41 49.1198C813.91 49.1198 815.66 48.3998 817.25 50.1398C815.67 51.6798 813.8 51.0498 812.18 51.0498C779.69 51.0898 747.2 51.0798 714.7 51.0798C535.74 51.0798 356.79 51.0798 177.83 51.0798C175.67 51.0798 173.5 51.1898 171.34 51.2498C170.2 51.9098 169.07 51.9298 167.98 51.1398C140.7 51.1198 113.42 51.1098 86.1398 51.0898C85.2298 52.2698 85.5998 53.6498 85.5998 54.9498C85.5798 96.6798 85.5798 138.42 85.5998 180.15C85.5998 181.44 85.1998 182.83 86.1798 183.98H86.1698Z" fill="#020202"/>
<path d="M1736.89 49.2301C1739.23 48.7101 1740.7 49.0001 1740.48 52.0501C1740.23 55.5301 1740.71 59.0701 1740.35 62.5301C1739.92 66.6301 1741.46 67.7401 1745.31 67.1501C1747 66.8901 1748.92 66.7201 1751.21 68.1001C1744.8 71.8601 1740.15 76.7801 1738.1 83.6901C1735.99 90.7901 1736.94 97.5201 1740.92 103.77C1747.53 114.14 1758.96 117.18 1772.51 112.26C1769.28 123.36 1752.93 131.02 1740.88 128.65C1726.97 125.91 1716.88 115.51 1715.08 101.79C1713.33 88.3801 1720.75 75.3901 1733.76 69.6601C1736.3 68.5401 1737.31 67.3501 1737.13 64.5601C1736.84 60.0801 1736.95 55.5801 1736.9 51.0901C1736.32 50.4701 1736.31 49.8501 1736.89 49.2201V49.2301Z" fill="#1A1A1D"/>
<path d="M1689.92 50.9501C1685.43 50.9901 1680.93 51.0601 1676.44 51.0701C1646.64 51.1101 1616.83 51.1301 1587.03 51.1601C1586.3 51.7001 1585.57 51.7001 1584.84 51.1601C1582.67 51.1301 1580.51 51.0801 1578.34 51.0801C1373.2 51.0801 1168.06 51.0801 962.92 51.0501C960.98 51.0501 958.95 51.5701 957.1 50.6001C956.88 48.8901 958.08 49.1201 959.03 49.0901C960.2 49.0501 961.36 49.0801 962.53 49.0801C1203.33 49.0801 1444.14 49.0801 1684.94 49.0801C1686.6 49.0801 1688.26 49.1901 1689.93 49.2501C1690.52 49.8201 1690.51 50.3801 1689.93 50.9501H1689.92Z" fill="#020202"/>
<path d="M925.14 28.3401C929.51 32.2901 928.33 37.5301 928.36 42.4401C928.43 52.2501 928.28 62.0501 928.44 71.8601C928.5 75.0601 927.61 76.6201 924.23 76.1401C923.42 76.0201 922.57 76.0901 921.74 76.1301C910.67 76.6101 899.5 77.3501 888.57 77.5501C875.3 77.7901 861.76 76.0001 848.29 76.1801C845.77 76.2101 845.28 74.8901 845.28 72.7301C845.33 59.9301 845.34 47.1401 845.28 34.3401C845.28 32.4301 845.47 31.0001 847.8 31.0301C848.87 30.8201 848.5 27.4301 850.71 29.7101C852.22 34.2301 851.37 38.9001 851.48 43.4901C851.63 50.2701 851.45 57.0501 851.56 63.8401C851.59 66.1301 851.43 68.6501 854.48 69.3901C861.47 69.5901 868.51 70.8901 875.4 68.4901C876.17 68.2201 877.02 68.6101 877.83 68.7001C880 68.8801 881.59 70.7301 883.8 70.7001C885.24 69.0901 884.57 67.1601 884.58 65.4101C884.66 55.0901 884.53 44.7801 884.68 34.4601C884.71 32.2001 883.87 29.1601 887.66 28.7001C888.19 28.9601 888.58 29.3601 888.84 29.8901C890.16 37.2601 889.22 44.7001 889.45 52.1101C889.58 56.4001 889.44 60.7001 889.48 64.9901C889.54 70.3301 889.56 70.3301 894.73 69.1101C901.95 71.1401 909.17 69.8801 916.39 69.0701C922.48 68.8701 922.58 68.8101 922.6 62.9001C922.64 53.1001 922.58 43.2901 922.63 33.4901C922.64 31.3601 922.28 29.1301 923.72 27.2401C924.91 26.6901 925.4 27.0401 925.14 28.3501V28.3401Z" fill="#050505"/>
<path d="M1572.33 331.568C1574.81 326.32 1575.29 321.668 1573.9 317.502C1572.6 313.616 1569.7 310.228 1565.44 307.205C1570.69 307.277 1575.05 306.187 1578.42 303.647C1581.88 301.033 1584.23 296.938 1585.48 291.186C1586.21 292.62 1586.84 294.017 1587.44 295.357C1587.87 296.302 1588.28 297.218 1588.71 298.098C1589.9 300.544 1591.17 302.68 1593.04 304.062C1594.87 305.414 1597.26 305.94 1599.82 306.267C1600.78 306.39 1601.75 306.485 1602.75 306.581C1604.15 306.717 1605.58 306.856 1607.03 307.081C1606.4 307.702 1605.8 308.308 1605.22 308.898C1603.46 310.678 1601.84 312.313 1600.06 313.774C1598.72 314.878 1597.77 316.044 1597.3 317.408C1596.82 318.778 1596.84 320.286 1597.34 322.036C1597.94 324.174 1598.24 326.372 1598.56 328.746C1598.68 329.607 1598.8 330.49 1598.93 331.402C1595.91 330.693 1593.51 329.173 1591.15 327.676C1591.01 327.59 1590.87 327.503 1590.74 327.417C1589.06 326.356 1587.49 325.788 1585.89 325.789C1584.29 325.79 1582.74 326.363 1581.09 327.465L1581.09 327.465C1579.34 328.643 1577.44 329.546 1575.5 330.468C1574.67 330.861 1573.83 331.258 1573 331.681C1572.8 331.649 1572.61 331.616 1572.41 331.582L1572.41 331.582C1572.39 331.577 1572.36 331.573 1572.33 331.568Z" fill="#69FFE7" stroke="black"/>
<path d="M177.829 135.97C176.707 138.531 176.547 141.388 177.869 144.727C175.103 142.969 172.378 141.987 169.652 142.027C166.74 142.07 163.903 143.278 161.085 145.805C161.362 139.177 159.619 133.578 155.827 129.046C155.907 128.867 155.999 128.755 156.088 128.681C156.214 128.576 156.373 128.514 156.58 128.485C156.792 128.456 157.032 128.465 157.3 128.489C157.374 128.496 157.453 128.504 157.535 128.512C157.727 128.532 157.935 128.554 158.114 128.56L158.114 128.56C161.229 128.658 163.614 127.84 165.359 126.24C167.094 124.649 168.138 122.338 168.69 119.558C168.737 119.326 168.771 119.082 168.801 118.861C168.811 118.784 168.821 118.711 168.831 118.641C168.873 118.354 168.918 118.125 168.989 117.943C169.056 117.769 169.136 117.667 169.234 117.602C169.335 117.536 169.511 117.471 169.837 117.48L169.839 117.48C170.235 117.488 170.394 117.577 170.458 117.633C170.517 117.685 170.568 117.773 170.591 117.969C170.612 118.156 170.601 118.37 170.587 118.641C170.585 118.67 170.584 118.698 170.582 118.727C170.568 119.014 170.553 119.365 170.619 119.697C171.25 122.94 171.935 124.987 174.001 126.345C175.011 127.009 176.321 127.489 178.043 127.899C179.534 128.255 181.36 128.564 183.609 128.89C181.15 131.049 178.987 133.329 177.829 135.97Z" fill="#1FA48E" stroke="black"/>
<path d="M125.715 171.082L125.715 171.08C125.796 170.511 125.887 170.124 126.052 169.862C126.188 169.646 126.399 169.478 126.862 169.427C127.104 169.404 127.302 169.465 127.432 169.566C127.552 169.66 127.647 169.811 127.65 170.055C127.676 174.391 129.116 177.133 131.78 178.725C134.081 180.101 137.226 180.572 140.948 180.607C138.042 182.918 135.955 185.369 134.902 188.112C133.874 190.789 133.851 193.692 134.934 196.926C132.167 194.993 129.426 193.997 126.65 193.989C123.863 193.981 121.101 194.97 118.304 196.906C119.373 193.685 119.402 190.803 118.413 188.183C117.38 185.447 115.26 183.063 112.206 180.899C112.474 180.851 112.712 180.808 112.925 180.769C113.086 180.739 113.233 180.713 113.367 180.689C113.924 180.59 114.254 180.547 114.569 180.56C117.842 180.703 120.419 179.944 122.294 178.3C124.164 176.659 125.265 174.199 125.715 171.082Z" fill="white" stroke="black"/>
<path d="M1660.89 167.42L1660.89 167.42C1660.59 167.431 1660.39 167.529 1660.27 167.644C1660.16 167.758 1660.08 167.927 1660.08 168.158C1660.08 168.159 1660.08 168.159 1660.08 168.16H1659.58C1659.65 176.488 1654.23 178.037 1647.15 178.62L1660.89 167.42ZM1660.89 167.42C1661.19 167.408 1661.42 167.482 1661.57 167.588C1661.71 167.688 1661.8 167.834 1661.82 168.048M1660.89 167.42L1661.82 168.048M1661.82 168.048C1662.21 172.156 1663.7 174.988 1666.2 176.75C1668.36 178.274 1671.21 178.951 1674.58 179.039C1671.97 181.121 1670.18 183.447 1669.33 186.086C1668.44 188.833 1668.61 191.858 1669.88 195.201C1663.9 193.135 1658.07 193.174 1652.39 195.328C1653.62 191.985 1653.83 188.953 1653.01 186.205C1652.2 183.512 1650.41 181.152 1647.74 179.07C1650.95 178.779 1653.87 178.247 1656.06 176.878L1661.82 168.048Z" fill="white" stroke="black"/>
<path d="M1696.21 489.485C1697.71 490.171 1699.59 490.41 1701.56 490.615C1699.84 492.118 1698.46 493.703 1697.7 495.512C1696.95 497.294 1696.81 499.252 1697.46 501.495C1695.57 500.377 1693.71 499.75 1691.82 499.734C1689.92 499.718 1688.05 500.317 1686.18 501.573C1686.71 499.44 1686.7 497.476 1686.04 495.661C1685.36 493.783 1683.99 492.122 1681.91 490.623C1684.05 490.433 1685.98 490.149 1687.52 489.409C1688.47 488.95 1689.28 488.312 1689.89 487.411C1690.51 486.512 1690.92 485.379 1691.11 483.956L1691.11 483.956C1691.15 483.629 1691.27 483.442 1691.4 483.342C1691.52 483.239 1691.68 483.194 1691.86 483.213C1692.2 483.251 1692.63 483.556 1692.71 484.25C1692.88 485.65 1693.28 486.748 1693.89 487.609C1694.5 488.472 1695.29 489.065 1696.21 489.485Z" fill="white" stroke="black"/>
<path d="M16.1749 381.443C17.6654 382.19 19.5145 382.446 21.5012 382.579C21.4211 382.665 21.3409 382.752 21.2607 382.838C20.1163 384.072 18.9742 385.304 18.1983 386.634C17.1771 388.385 16.7582 390.345 17.629 392.797L17.6291 392.798C17.7109 393.027 17.6828 393.162 17.6474 393.237C17.6088 393.318 17.5276 393.4 17.3896 393.459C17.086 393.588 16.6997 393.531 16.5032 393.357C15.4812 392.441 14.4766 391.933 13.4626 391.741C12.451 391.549 11.4728 391.68 10.5167 391.972C9.56695 392.262 8.61606 392.718 7.66104 393.195C7.52498 393.263 7.38877 393.332 7.25225 393.4C6.76425 393.646 6.27226 393.893 5.76873 394.129C6.56601 391.848 6.78609 389.744 6.2958 387.827C5.80968 385.927 4.641 384.272 2.76594 382.845C4.60373 382.59 6.33624 382.271 7.73399 381.526C8.61065 381.059 9.36512 380.422 9.94266 379.529C10.5181 378.639 10.9019 377.52 11.0763 376.112C11.1424 375.579 11.5331 375.284 11.8858 375.259C12.0572 375.246 12.2238 375.296 12.3634 375.42C12.5044 375.545 12.6522 375.777 12.716 376.186C13.1373 378.939 14.3674 380.537 16.1749 381.443Z" fill="white" stroke="black"/>
<path d="M916.01 70.3301C908.98 70.9201 901.92 73.6001 894.95 70.0501C895.24 67.3001 897.62 66.9801 899.53 66.2001C901.68 65.3201 903.94 64.6701 906.28 64.6801C916.15 64.7401 915.56 64.6801 915.47 54.8201C915.37 44.5601 915.97 34.3001 915.08 24.0801C914.23 22.1201 912.46 22.5101 910.87 22.4301C908.94 22.3401 906.94 22.6501 905.18 21.4901C904.72 21.0701 904.66 20.6001 905 20.0801C905.25 19.8901 905.52 19.8501 905.82 19.9601C909.9 19.4401 913.98 19.2501 918.04 20.0601C920.01 20.7301 918.63 23.0701 920.02 24.0401C920.6 24.8301 920.85 25.7101 920.74 26.6901C919.97 37.8001 920.62 48.9201 920.39 60.0401C920.34 62.5101 920.74 65.0301 919.72 67.4101C915.27 70.8601 910.27 68.2401 906.06 68.8901C908.91 70.0201 912.87 67.6301 916.02 70.3301H916.01Z" fill="#0E0E0E"/>
<path d="M86.1701 183.98C84.0701 183.03 84.8501 181.12 84.8501 179.61C84.8101 138.22 84.8101 96.8298 84.8501 55.4398C84.8501 53.9598 83.9601 52.0198 86.1201 51.0898C86.0101 52.2398 85.8201 53.3898 85.8201 54.5398C85.8001 96.2098 85.8001 137.87 85.8201 179.54C85.8201 181.02 86.0401 182.51 86.1601 183.99L86.1701 183.98Z" fill="#353636"/>
<path d="M82.02 51.1001C84.15 52.0501 83.28 53.9801 83.28 55.4701C83.33 96.8501 83.33 138.22 83.28 179.6C83.28 181.12 84.04 183.02 81.96 183.98C82.06 182.66 82.25 181.33 82.25 180.01C82.27 138.03 82.26 96.0601 82.25 54.0801C82.25 53.0901 82.09 52.1001 82 51.1101L82.02 51.1001Z" fill="#353636"/>
<path d="M1689.92 50.95C1689.92 50.38 1689.92 49.82 1689.92 49.25C1705.58 49.25 1721.24 49.24 1736.9 49.23V51.1C1723.7 51.1 1710.48 51.25 1697.27 50.93C1694.82 50.87 1692.33 53.32 1689.92 50.95Z" fill="#020202"/>
<path d="M850.11 29.0698C849.34 29.7198 848.57 30.3598 847.8 31.0098C848.28 27.7898 846.95 23.3898 852.89 23.8698C854.4 23.9898 853.66 22.0298 854.12 21.0998C855.68 20.1298 856.34 21.1898 856.96 22.3598C857.94 33.2598 857.15 44.1898 857.4 55.1098C857.46 57.9198 857.31 60.7398 857.51 63.5398C857.7 64.0298 857.91 64.5198 858.18 64.9698C858.47 66.2498 861.5 66.6298 859.44 68.7098C858.07 69.3098 856.73 69.2598 855.4 68.5798C853.16 66.7098 853.59 64.0898 853.57 61.6598C853.49 52.2198 853.61 42.7898 853.48 33.3498C853.45 31.2698 854.16 28.1698 850.11 29.0698Z" fill="#0F0F0F"/>
<path d="M888.01 28.9798C885.21 29.5198 886.18 31.7498 886.17 33.3798C886.11 45.6698 886.17 57.9598 886.11 70.2598C886.11 72.0098 886.82 75.0798 883.17 72.7698C883.98 60.1898 883.29 47.5898 883.57 34.9998C883.66 30.9298 880.35 29.0298 878.79 26.0398C878.55 24.9798 879.12 24.4098 880.02 24.0298C883.16 24.1498 884.45 28.1898 887.86 27.7298C888.11 27.9798 888.22 28.2498 888.18 28.5298C888.14 28.8198 888.09 28.9698 888.01 28.9698V28.9798Z" fill="#253636"/>
<path d="M888.01 28.9798C887.96 28.5698 887.91 28.1498 887.86 27.7398C892.72 23.2798 898.38 20.5998 905 20.0698C905 20.3998 905 20.7398 905 21.0698C905.24 21.3498 905.34 21.6398 905.31 21.9498C905.28 22.2698 905.23 22.4298 905.17 22.4298C899.68 25.4398 893.69 27.3798 888.2 30.3898C888.14 29.9198 888.07 29.4498 888.01 28.9898V28.9798Z" fill="#0D3734"/>
<path d="M855.96 22.0498C855.61 21.2098 854.9 21.0898 854.11 21.0998C854 19.8498 854.88 19.9398 855.68 19.9498C859.63 19.3698 863.57 19.4298 867.52 19.9098C870.29 19.5798 872.69 20.6998 875.07 21.8798C875.46 22.8498 874.89 23.3498 874.16 23.7798C870.95 24.8098 868.04 23.2098 865.01 22.6998C862.66 22.1598 860.29 22.2398 857.92 22.5498C857.68 22.5798 857.45 22.5898 857.21 22.6198C856.72 22.5798 856.3 22.3998 855.95 22.0498H855.96Z" fill="#1A2F34"/>
<path d="M88.22 198.15C84.98 197.92 81.71 197.59 78.98 199.96C78.93 197.13 75.52 195.8 75.8 192.77C75.96 191.03 75.56 189.21 76.97 187.78C77.73 187.95 78.24 188.42 78.6 189.09C78.84 193.83 81.08 196.36 86.08 195.98C86.89 195.92 87.68 196.31 88.31 196.9C88.53 197.35 88.5 197.79 88.23 198.22V198.16L88.22 198.15Z" fill="#36444B"/>
<path d="M85.8701 185.2C86.2401 184.87 86.6101 184.55 86.9901 184.22C89.6801 184.8 91.1501 186.57 91.8501 189.12C91.1701 190.73 92.0201 192.54 91.2301 194.14C90.7701 194.37 90.3201 194.37 89.8701 194.11C88.9301 190.97 87.5501 188.02 85.8801 185.2H85.8701Z" fill="#36434A"/>
<path d="M919.98 25.95C919.99 25.31 920.01 24.67 920.02 24.03C923.02 23.92 926.41 23.36 925.14 28.34C924.64 27.97 924.13 27.59 923.63 27.22C923.26 27.39 922.88 27.43 922.48 27.35C921.55 27.06 920.52 26.95 919.98 25.95Z" fill="#1B1B1B"/>
<path d="M918.04 20.0602C913.97 20.0302 909.89 19.9902 905.82 19.9602C909.9 18.7602 913.98 18.5302 918.04 20.0602Z" fill="#414548"/>
<path d="M1660.85 158.18C1661.9 158.31 1662.62 158.89 1662.62 159.99C1662.62 160.89 1661.95 161.43 1661.09 161.54C1660.17 161.66 1659.5 161.07 1659.32 160.26C1659.07 159.14 1659.81 158.53 1660.85 158.18Z" fill="#446D6A"/>
<path d="M1693.52 400.78C1693.43 401.85 1692.93 402.63 1691.79 402.63C1690.91 402.63 1690.26 401.97 1690.17 401.16C1690.05 400.06 1690.79 399.36 1691.86 399.3C1692.77 399.25 1693.23 399.96 1693.52 400.78Z" fill="#456E6B"/>
<path d="M1693.5 425.92C1693.48 426.84 1692.92 427.49 1692.13 427.63C1691.03 427.83 1690.25 427.08 1690.18 426.05C1690.11 424.96 1690.89 424.26 1691.99 424.33C1692.85 424.38 1693.38 425.02 1693.5 425.92Z" fill="#456E6B"/>
<path d="M1584.83 51.1602C1585.56 51.1602 1586.29 51.1602 1587.02 51.1602C1587.05 52.1902 1588.42 53.1902 1587.02 54.2702C1586.24 54.8702 1585.6 54.8702 1584.83 54.2702C1583.44 53.2002 1584.79 52.1902 1584.83 51.1602Z" fill="#456E6B"/>
<path d="M1586.15 126.46C1586.94 126.75 1587.66 127.2 1587.6 128.12C1587.53 129.2 1586.78 129.96 1585.71 129.77C1584.75 129.6 1583.97 128.83 1584.32 127.69C1584.56 126.88 1585.24 126.42 1586.15 126.45V126.46Z" fill="#456E6B"/>
<path d="M1691.78 60.7598C1690.8 60.5498 1690.03 59.9798 1690.16 58.8598C1690.26 58.0598 1690.9 57.3798 1691.78 57.3898C1692.91 57.4098 1693.55 58.1698 1693.45 59.2598C1693.38 60.0898 1692.76 60.6498 1691.77 60.7598H1691.78Z" fill="#456E6B"/>
<path d="M1587.65 77.8998C1587.56 78.9598 1587.02 79.7098 1585.9 79.7498C1584.99 79.7798 1584.36 79.0898 1584.27 78.2898C1584.15 77.1998 1584.85 76.4598 1585.95 76.4098C1586.85 76.3698 1587.32 77.0898 1587.64 77.8998H1587.65Z" fill="#446D6A"/>
<path d="M1585.84 154.9C1584.79 154.52 1584.02 153.91 1584.29 152.79C1584.48 152 1585.14 151.37 1586.07 151.53C1587.14 151.71 1587.84 152.45 1587.56 153.54C1587.37 154.27 1586.71 154.88 1585.84 154.9Z" fill="#446D6A"/>
<path d="M1693.51 134.36C1693.18 135.11 1692.76 135.87 1691.83 135.79C1690.77 135.7 1689.99 134.98 1690.17 133.9C1690.34 132.9 1691.14 132.22 1692.27 132.53C1693.12 132.76 1693.52 133.45 1693.51 134.35V134.36Z" fill="#446D6A"/>
<path d="M1585.88 179.9C1584.83 179.61 1584.09 179 1584.28 177.89C1584.42 177.07 1585.07 176.5 1586 176.56C1586.9 176.62 1587.54 177.16 1587.6 178.03C1587.68 179.16 1586.91 179.7 1585.88 179.9Z" fill="#456E6B"/>
<path d="M1586.31 104.84C1585.05 104.76 1584.33 104.19 1584.27 103.09C1584.22 102.17 1584.91 101.62 1585.73 101.46C1586.64 101.29 1587.3 101.89 1587.56 102.68C1587.96 103.87 1586.96 104.31 1586.32 104.84H1586.31Z" fill="#456E6B"/>
<path d="M1662.68 68.1799C1662.5 69.1599 1661.97 69.9299 1660.84 69.8799C1659.96 69.8499 1659.4 69.1599 1659.28 68.3499C1659.15 67.4299 1659.78 66.7999 1660.61 66.6299C1661.7 66.4099 1662.42 66.9999 1662.68 68.1799Z" fill="#456E6B"/>
<path d="M1691.66 107.4C1692.59 107.4 1693.26 107.91 1693.44 108.71C1693.69 109.81 1693.03 110.56 1691.97 110.77C1691.03 110.95 1690.41 110.2 1690.19 109.47C1689.86 108.35 1690.68 107.75 1691.66 107.4Z" fill="#446D6A"/>
<path d="M1691.71 82.3701C1692.67 82.3701 1693.31 82.9601 1693.45 83.7501C1693.65 84.8301 1693 85.6001 1691.9 85.7401C1690.96 85.8601 1690.32 85.1301 1690.16 84.3901C1689.92 83.2901 1690.71 82.6701 1691.7 82.3701H1691.71Z" fill="#456E6B"/>
<path d="M1693.53 159.3C1693.2 160.3 1692.58 161.09 1691.47 160.78C1690.76 160.58 1689.99 159.97 1690.15 159.02C1690.34 157.94 1691.1 157.32 1692.19 157.54C1693.01 157.71 1693.52 158.37 1693.52 159.3H1693.53Z" fill="#446D6A"/>
<path d="M1691.68 299.05C1693.01 299.53 1693.71 300.16 1693.42 301.29C1693.21 302.13 1692.51 302.67 1691.62 302.52C1690.8 302.38 1690.12 301.84 1690.13 300.92C1690.13 299.74 1691.15 299.51 1691.68 299.06V299.05Z" fill="#446D6A"/>
<path d="M1691.84 474.39C1692.76 474.46 1693.39 474.98 1693.46 475.85C1693.56 476.95 1692.89 477.75 1691.8 477.71C1690.76 477.67 1690.02 476.9 1690.17 475.8C1690.28 474.99 1690.92 474.44 1691.84 474.4V474.39Z" fill="#446D6A"/>
<path d="M1587.64 269.73C1587.64 270.69 1587.06 271.32 1586.25 271.46C1585.17 271.65 1584.37 271.06 1584.25 269.93C1584.15 269 1584.86 268.36 1585.6 268.19C1586.71 267.93 1587.3 268.76 1587.63 269.72L1587.64 269.73Z" fill="#446D6A"/>
<path d="M1691.48 449.34C1692.58 449.34 1693.25 449.82 1693.43 450.64C1693.67 451.75 1693.01 452.48 1691.97 452.69C1691.02 452.88 1690.41 452.1 1690.2 451.39C1689.86 450.26 1690.75 449.73 1691.49 449.33L1691.48 449.34Z" fill="#456E6B"/>
<path d="M1693.51 325.74C1693.53 326.67 1693.02 327.33 1692.2 327.51C1691.1 327.75 1690.28 327.09 1690.16 326.04C1690.04 324.95 1690.84 324.25 1691.9 324.23C1692.79 324.21 1693.25 324.93 1693.5 325.74H1693.51Z" fill="#446D6A"/>
<path d="M1693.51 350.84C1693.51 351.78 1692.93 352.42 1692.13 352.55C1691.04 352.74 1690.29 352.06 1690.15 350.99C1690.02 350.05 1690.8 349.42 1691.52 349.26C1692.61 349.02 1693.27 349.77 1693.51 350.83V350.84Z" fill="#446D6A"/>
<path d="M1691.79 377.65C1690.81 377.44 1690.04 376.86 1690.17 375.74C1690.26 374.93 1690.91 374.26 1691.79 374.28C1692.91 374.3 1693.58 375.05 1693.47 376.15C1693.39 376.98 1692.78 377.55 1691.79 377.65Z" fill="#456E6B"/>
<path d="M873.86 23.1401C874.27 22.7201 874.67 22.3001 875.08 21.8901C877.02 21.9401 878.59 22.8101 880.02 24.0401C879.54 24.4701 879.06 24.8901 878.58 25.3201C876.45 25.8001 874.55 25.7701 873.87 23.1401H873.86Z" fill="#2D2B12"/>
<path d="M867.53 19.9201C863.58 19.9301 859.63 19.9401 855.69 19.9601C859.63 18.6501 863.58 18.7801 867.53 19.9201Z" fill="#304242"/>
<path d="M1693.5 184.12C1693.53 184.96 1692.96 185.61 1692.2 185.8C1691.11 186.07 1690.38 185.3 1690.14 184.33C1689.92 183.41 1690.64 182.75 1691.41 182.58C1692.45 182.36 1693.26 182.86 1693.5 184.11V184.12Z" fill="#456E6B"/>
<path d="M1693.52 275.84C1693.39 277.01 1692.64 277.57 1691.57 277.44C1690.76 277.34 1690.05 276.75 1690.16 275.82C1690.28 274.78 1690.99 274.05 1692.08 274.19C1692.9 274.29 1693.42 274.96 1693.52 275.84Z" fill="#456E6B"/>
<path d="M78.03 189.02C77.67 188.61 77.32 188.19 76.96 187.78C77.7 185.82 79.04 184.55 81.16 184.21C81.53 184.54 81.91 184.86 82.28 185.19C81.73 187.44 80.01 188.38 78.02 189.02H78.03Z" fill="#364249"/>
<path d="M1585.91 229.88C1584.89 229.71 1584.33 229.02 1584.33 228.23C1584.33 227.08 1585.19 226.51 1586.28 226.71C1587.09 226.87 1587.73 227.49 1587.48 228.45C1587.27 229.26 1586.76 229.86 1585.9 229.88H1585.91Z" fill="#235E7F"/>
<path d="M13.4701 242.94C13.4301 243.74 13.0501 244.41 12.1101 244.53C11.1901 244.65 10.4801 244.09 10.3001 243.3C10.0501 242.14 10.9101 241.46 11.9101 241.35C12.7801 241.25 13.3201 241.94 13.4601 242.94H13.4701Z" fill="#236081"/>
<path d="M1585.91 246.39C1584.89 246.24 1584.22 245.69 1584.33 244.82C1584.45 243.81 1585.15 242.96 1586.3 243.24C1587.06 243.43 1587.66 244.14 1587.53 245.07C1587.4 246.02 1586.69 246.34 1585.92 246.39H1585.91Z" fill="#236081"/>
<path d="M12.2199 269.58C11.1999 269.63 10.4899 269.11 10.3099 268.34C10.0399 267.19 10.8899 266.5 11.8999 266.39C12.7599 266.3 13.3799 266.96 13.4399 267.87C13.4999 268.77 13.0199 269.36 12.2199 269.58Z" fill="#236081"/>
<path d="M1585.87 196.35C1585.15 196.32 1584.41 195.94 1584.37 195.01C1584.32 193.94 1584.91 193.15 1586.07 193.19C1587 193.22 1587.5 194.01 1587.54 194.8C1587.58 195.67 1586.97 196.24 1585.87 196.34V196.35Z" fill="#235D7D"/>
<path d="M1662.54 135.23C1662.32 136 1661.73 136.47 1660.83 136.41C1659.91 136.35 1659.26 135.72 1659.36 134.86C1659.47 133.85 1660.17 132.99 1661.32 133.28C1662.07 133.47 1662.64 134.16 1662.55 135.23H1662.54Z" fill="#226183"/>
<path d="M1587.58 278.28C1587.3 279.04 1586.98 279.84 1586.04 279.86C1584.87 279.88 1584.31 279.08 1584.38 278.03C1584.44 277.12 1585.15 276.68 1586.06 276.73C1587 276.79 1587.42 277.42 1587.58 278.28Z" fill="#245C7B"/>
<path d="M13.4502 293.22C13.4102 293.77 13.0702 294.53 12.1302 294.58C11.0502 294.63 10.2702 294.04 10.3002 292.89C10.3202 291.96 11.1102 291.45 11.9102 291.41C12.7702 291.37 13.3802 291.95 13.4602 293.23L13.4502 293.22Z" fill="#236081"/>
<path d="M1662.55 110.26C1662.35 110.98 1661.75 111.44 1660.85 111.39C1659.93 111.33 1659.28 110.73 1659.37 109.86C1659.47 108.84 1660.17 107.99 1661.32 108.28C1662.07 108.47 1662.64 109.16 1662.56 110.27L1662.55 110.26Z" fill="#235E7F"/>
<path d="M11.8902 316.41C12.8002 316.52 13.3802 317.01 13.4302 317.93C13.4802 318.82 13.0502 319.56 12.1202 319.61C11.0502 319.66 10.2602 319.06 10.2802 317.92C10.3002 316.99 11.0802 316.64 11.8802 316.41H11.8902Z" fill="#236081"/>
<path d="M1584.29 169.72C1584.56 168.99 1584.87 168.19 1585.81 168.17C1586.97 168.15 1587.54 168.94 1587.47 170C1587.41 170.91 1586.7 171.36 1585.79 171.3C1584.86 171.24 1584.41 170.63 1584.28 169.72H1584.29Z" fill="#235D7D"/>
<path d="M1660.95 94.9002C1659.92 94.7202 1659.36 94.0602 1659.36 93.2502C1659.36 92.0902 1660.24 91.5302 1661.32 91.7402C1662.11 91.9002 1662.79 92.5002 1662.53 93.4802C1662.31 94.2902 1661.79 94.8802 1660.95 94.9002Z" fill="#236081"/>
<path d="M1587.58 203.21C1587.33 204 1586.95 204.78 1586.04 204.8C1584.89 204.82 1584.29 204.04 1584.37 202.96C1584.44 202.04 1585.17 201.59 1586.07 201.66C1586.97 201.73 1587.48 202.31 1587.59 203.21H1587.58Z" fill="#236081"/>
<path d="M1587.58 219.8C1587.45 220.69 1586.95 221.28 1586.05 221.34C1585.16 221.39 1584.42 220.97 1584.37 220.03C1584.31 218.96 1584.9 218.16 1586.06 218.2C1586.97 218.23 1587.34 219.01 1587.59 219.8H1587.58Z" fill="#236081"/>
<path d="M1587.58 253.26C1587.31 254.02 1586.97 254.82 1586.03 254.84C1584.86 254.86 1584.3 254.06 1584.37 253C1584.43 252.08 1585.16 251.65 1586.06 251.71C1586.99 251.77 1587.44 252.39 1587.57 253.26H1587.58Z" fill="#235D7D"/>
<path d="M1662.61 84.8499C1662.47 85.7399 1661.97 86.3199 1661.06 86.3699C1660.15 86.4199 1659.45 85.9499 1659.4 85.0299C1659.35 83.9499 1659.94 83.1599 1661.1 83.2299C1662 83.2799 1662.36 84.0699 1662.61 84.8499Z" fill="#235E7F"/>
<path d="M13.41 76.3501C13.36 77.0601 12.92 77.7601 11.98 77.7601C11.13 77.7601 10.42 77.2001 10.33 76.3001C10.23 75.3101 10.96 74.8001 11.81 74.7201C12.73 74.6301 13.32 75.1701 13.4 76.3501H13.41Z" fill="#364954"/>
<path d="M1693.37 251.19C1693.21 251.95 1692.6 252.42 1691.71 252.36C1690.82 252.3 1690.11 251.73 1690.21 250.84C1690.32 249.84 1691 248.99 1692.14 249.21C1692.96 249.37 1693.44 250.09 1693.37 251.18V251.19Z" fill="#236082"/>
<path d="M1662.62 118.27C1662.36 119.04 1662 119.84 1661.09 119.87C1659.92 119.92 1659.35 119.12 1659.42 118.04C1659.48 117.12 1660.19 116.66 1661.1 116.72C1662.01 116.78 1662.5 117.37 1662.63 118.26L1662.62 118.27Z" fill="#235E7F"/>
<path d="M1691.67 260.88C1690.79 260.67 1690.2 260 1690.21 259.22C1690.22 258.08 1691.08 257.52 1692.18 257.73C1693.04 257.89 1693.56 258.56 1693.35 259.49C1693.16 260.33 1692.62 260.88 1691.67 260.88Z" fill="#235E7F"/>
<path d="M1691.42 149.12C1692.89 149.22 1693.34 149.95 1693.35 150.78C1693.36 151.69 1692.75 152.29 1691.76 152.25C1690.8 152.21 1690.12 151.57 1690.28 150.7C1690.4 150.04 1691.14 149.49 1691.42 149.12Z" fill="#255067"/>
<path d="M12.1798 194.42C11.1898 194.42 10.4798 194.01 10.3398 193.1C10.1798 192.13 10.8998 191.58 11.7098 191.39C12.6798 191.16 13.2698 191.84 13.3898 192.69C13.5198 193.56 13.0898 194.26 12.1798 194.42Z" fill="#264C60"/>
<path d="M128.32 161.82C128.18 163.05 127.54 163.53 126.63 163.4C125.77 163.28 125.05 162.74 125.21 161.74C125.35 160.84 126.07 160.29 126.94 160.35C127.86 160.41 128.33 161.1 128.33 161.82H128.32Z" fill="#264F66"/>
<path d="M1691.67 124.13C1692.9 124.2 1693.35 124.94 1693.36 125.77C1693.36 126.66 1692.77 127.28 1691.77 127.24C1690.8 127.2 1690.18 126.57 1690.27 125.68C1690.35 124.88 1690.87 124.16 1691.67 124.13Z" fill="#264E65"/>
<path d="M1662.53 59.53C1662.69 60.59 1662.1 61.16 1661.29 61.34C1660.46 61.52 1659.66 61.17 1659.45 60.24C1659.19 59.11 1659.78 58.37 1660.87 58.21C1661.84 58.06 1662.21 58.87 1662.53 59.53Z" fill="#245C7B"/>
<path d="M1693.44 175.74C1693.31 176.61 1692.89 177.24 1691.94 177.29C1691.02 177.35 1690.31 176.89 1690.25 175.99C1690.18 174.93 1690.77 174.14 1691.93 174.14C1692.89 174.14 1693.21 174.94 1693.44 175.73V175.74Z" fill="#235D7C"/>
<path d="M1691.71 282.7C1692.61 282.73 1693.27 283.12 1693.37 284.05C1693.47 284.94 1692.98 285.67 1692.15 285.85C1690.98 286.1 1690.32 285.21 1690.21 284.24C1690.12 283.4 1690.79 282.82 1691.71 282.7Z" fill="#235D7C"/>
<path d="M90.2799 194.04C90.5899 194.04 90.8999 194.02 91.2099 194C91.4499 193.56 91.6799 193.54 91.9199 194C91.5099 196.12 90.7199 197.92 88.2199 198.21C88.1699 197.81 88.1299 197.41 88.0799 197.01C87.5899 195.12 88.6699 194.38 90.2799 194.04Z" fill="#313232"/>
<path d="M1693.44 200.75C1693.32 201.62 1692.9 202.26 1691.95 202.32C1691.05 202.38 1690.31 201.95 1690.25 201.04C1690.18 199.98 1690.75 199.18 1691.91 199.18C1692.86 199.18 1693.21 199.96 1693.44 200.76V200.75Z" fill="#235E7F"/>
<path d="M1691.62 307.75C1692.91 307.8 1693.43 308.46 1693.35 309.35C1693.27 310.18 1692.76 310.94 1691.74 310.85C1690.78 310.77 1690.25 310.01 1690.25 309.19C1690.25 308.3 1690.93 307.76 1691.62 307.74V307.75Z" fill="#255067"/>
<path d="M127.17 71.81C126.07 71.78 125.38 71.29 125.21 70.44C125.02 69.49 125.66 68.88 126.57 68.73C127.51 68.58 128.16 69.04 128.29 70.01C128.42 70.97 127.84 71.5 127.18 71.81H127.17Z" fill="#254E64"/>
<path d="M1691.79 210.88C1690.82 210.6 1690.19 209.98 1690.2 209.17C1690.22 208.02 1691.09 207.47 1692.18 207.68C1693.03 207.85 1693.57 208.5 1693.36 209.45C1693.17 210.31 1692.58 210.8 1691.79 210.87V210.88Z" fill="#236082"/>
<path d="M1693.4 334.25C1693.19 335.08 1692.88 335.84 1691.86 335.87C1690.84 335.9 1690.34 335.12 1690.26 334.33C1690.17 333.44 1690.8 332.82 1691.77 332.78C1692.77 332.74 1693.21 333.37 1693.4 334.25Z" fill="#264E65"/>
<path d="M11.47 216.39C12.71 216.14 13.25 216.81 13.43 217.59C13.62 218.41 13.26 219.23 12.33 219.43C11.22 219.67 10.44 219.13 10.28 218.01C10.13 217.01 11.05 216.74 11.48 216.39H11.47Z" fill="#236081"/>
<path d="M13.4098 368.22C13.3598 368.95 12.9098 369.63 11.9798 369.63C11.1298 369.63 10.4198 369.08 10.3198 368.17C10.2098 367.17 10.9598 366.67 11.8098 366.59C12.7298 366.5 13.3198 367.05 13.4098 368.22Z" fill="#364954"/>
<path d="M171.3 109.86C171.3 110.85 170.73 111.45 169.81 111.43C168.97 111.41 168.2 110.97 168.19 109.95C168.17 108.94 168.94 108.43 169.74 108.35C170.64 108.26 171.21 108.9 171.3 109.85V109.86Z" fill="#264F66"/>
<path d="M1662.62 143.3C1662.34 144.06 1662 144.86 1661.08 144.9C1659.91 144.94 1659.34 144.15 1659.41 143.08C1659.47 142.17 1660.18 141.71 1661.08 141.77C1662 141.83 1662.46 142.44 1662.61 143.31L1662.62 143.3Z" fill="#235D7D"/>
<path d="M1691.71 227.36C1691.06 227.32 1690.3 226.97 1690.25 226.04C1690.19 224.97 1690.78 224.19 1691.93 224.18C1692.88 224.18 1693.37 224.96 1693.41 225.77C1693.46 226.64 1692.9 227.25 1691.72 227.35L1691.71 227.36Z" fill="#225F80"/>
<path d="M13.4202 167.76C13.3702 168.76 12.8802 169.4 11.9402 169.38C11.0802 169.36 10.3402 168.9 10.3302 167.91C10.3202 166.94 11.0602 166.42 11.8702 166.33C12.8102 166.22 13.2702 166.93 13.4202 167.76Z" fill="#364954"/>
<path d="M1691.6 441.02C1692.59 440.97 1693.16 441.53 1693.32 442.41C1693.48 443.34 1692.98 444 1692.04 444.12C1691.1 444.24 1690.39 443.76 1690.29 442.83C1690.19 441.93 1690.79 441.35 1691.61 441.02H1691.6Z" fill="#264F66"/>
<path d="M1691.73 232.65C1692.88 232.76 1693.44 233.36 1693.4 234.23C1693.36 235.05 1692.87 235.82 1691.92 235.83C1690.77 235.83 1690.18 235.04 1690.23 233.97C1690.28 233.03 1691.05 232.7 1691.73 232.65Z" fill="#225F80"/>
<path d="M1691.68 469.17C1690.76 469 1690.12 468.45 1690.29 467.52C1690.43 466.72 1690.94 465.95 1691.96 466.06C1692.92 466.17 1693.38 466.9 1693.35 467.77C1693.31 468.72 1692.64 469.18 1691.69 469.17H1691.68Z" fill="#255169"/>
<path d="M13.4699 343.14C13.3099 344.08 12.7999 344.79 11.9099 344.68C10.9199 344.56 10.0599 343.89 10.2999 342.73C10.4699 341.91 11.1999 341.41 12.1099 341.52C13.0699 341.63 13.4099 342.32 13.4599 343.15L13.4699 343.14Z" fill="#236081"/>
<path d="M1691.68 165.97C1692.67 165.9 1693.24 166.48 1693.31 167.34C1693.37 168.17 1692.96 168.89 1691.98 169C1690.97 169.11 1690.44 168.39 1690.33 167.61C1690.21 166.78 1690.76 166.13 1691.68 165.97Z" fill="#373839"/>
<path d="M1660.74 150.05C1661.72 149.96 1662.3 150.56 1662.44 151.38C1662.59 152.24 1662.06 152.91 1661.16 153.06C1660.21 153.22 1659.59 152.63 1659.47 151.77C1659.36 150.92 1659.83 150.27 1660.73 150.05H1660.74Z" fill="#363738"/>
<path d="M13.38 176.13C13.29 176.96 13.06 177.74 12.07 177.81C11.14 177.88 10.57 177.25 10.4 176.43C10.2 175.45 10.89 174.99 11.75 174.86C12.69 174.72 13.24 175.19 13.38 176.13Z" fill="#364249"/>
<path d="M1587.53 186.51C1587.21 187.24 1586.94 188.03 1585.92 188.02C1584.89 188.02 1584.41 187.23 1584.41 186.49C1584.41 185.73 1584.92 184.98 1585.95 184.98C1586.97 184.98 1587.24 185.76 1587.54 186.5L1587.53 186.51Z" fill="#363738"/>
<path d="M1691.69 194.02C1690.76 193.86 1690.24 193.17 1690.33 192.37C1690.41 191.58 1690.97 190.89 1691.98 190.99C1692.96 191.09 1693.39 191.8 1693.31 192.63C1693.23 193.46 1692.7 194.1 1691.69 194.02Z" fill="#373838"/>
<path d="M126.44 155C125.78 154.85 125.16 154.34 125.29 153.43C125.41 152.58 126.03 152.03 126.97 152.09C127.98 152.15 128.29 152.9 128.23 153.74C128.17 154.63 127.66 155.2 126.44 155Z" fill="#343536"/>
<path d="M11.6799 152.78C10.9199 152.54 10.3299 152 10.3799 151.11C10.4299 150.14 11.2099 149.79 12.0599 149.83C13.0199 149.87 13.4899 150.5 13.3399 151.43C13.2099 152.26 12.7999 152.94 11.6799 152.78Z" fill="#36444B"/>
<path d="M126.82 52.0298C127.8 52.0298 128.27 52.6598 128.26 53.5198C128.25 54.3498 127.81 55.0898 126.82 55.0398C125.93 54.9898 125.27 54.3598 125.26 53.5298C125.24 52.6698 125.93 52.1498 126.83 52.0298H126.82Z" fill="#343536"/>
<path d="M11.7498 199.86C12.7098 199.76 13.3198 200.2 13.3498 201.15C13.3798 201.98 13.0598 202.76 12.0698 202.83C11.1398 202.9 10.5598 202.27 10.3998 201.45C10.1998 200.47 10.9098 200.07 11.7498 199.87V199.86Z" fill="#364046"/>
<path d="M169.51 61.2998C168.8 61.1098 168.08 60.7498 168.28 59.7398C168.45 58.8798 169.08 58.3198 169.95 58.3698C170.91 58.4198 171.27 59.1898 171.23 60.0398C171.18 60.9898 170.58 61.4098 169.51 61.2898V61.2998Z" fill="#364045"/>
<path d="M125.23 61.8401C125.4 60.9701 125.96 60.3501 126.79 60.2901C127.74 60.2201 128.2 60.9801 128.25 61.8201C128.31 62.7501 127.72 63.3401 126.8 63.2801C125.98 63.2301 125.28 62.8401 125.22 61.8301L125.23 61.8401Z" fill="#3B3C3C"/>
<path d="M1587.45 211.31C1587.4 212.17 1587.05 212.86 1586.14 213C1585.17 213.16 1584.57 212.53 1584.44 211.7C1584.31 210.85 1584.81 210.16 1585.71 210.01C1586.67 209.85 1587.16 210.47 1587.44 211.31H1587.45Z" fill="#363738"/>
<path d="M1584.39 61.3C1584.65 60.47 1585.1 59.84 1586.08 59.95C1587.03 60.05 1587.55 60.72 1587.43 61.57C1587.31 62.36 1586.8 63.1 1585.79 62.98C1584.85 62.86 1584.53 62.14 1584.39 61.3Z" fill="#363E42"/>
<path d="M1693.35 217.64C1693.09 218.46 1692.68 219.14 1691.68 219.01C1690.75 218.89 1690.23 218.19 1690.32 217.37C1690.41 216.58 1690.96 215.88 1691.97 215.99C1692.95 216.09 1693.23 216.8 1693.34 217.64H1693.35Z" fill="#363738"/>
<path d="M13.3999 67.8902C13.3399 68.7302 12.8299 69.3202 11.9099 69.2702C11.0599 69.2302 10.2899 68.7602 10.3599 67.8202C10.4199 66.9902 11.0399 66.3102 11.9199 66.2602C12.8699 66.2102 13.2499 66.9602 13.3999 67.8802V67.8902Z" fill="#364249"/>
<path d="M1693.38 67.4399C1693.12 68.2199 1692.83 68.9899 1691.82 68.9799C1690.82 68.9699 1690.32 68.1699 1690.29 67.4299C1690.26 66.6299 1690.85 65.9399 1691.83 65.9399C1692.84 65.9399 1693.19 66.6099 1693.38 67.4499V67.4399Z" fill="#363F44"/>
<path d="M12.23 224.87C13.03 224.98 13.5 225.55 13.35 226.47C13.22 227.3 12.79 228.01 11.77 227.83C10.89 227.67 10.34 227.03 10.4 226.16C10.46 225.23 11.19 224.87 12.23 224.87Z" fill="#363F43"/>
<path d="M171.27 68.28C171.13 69.13 170.71 69.88 169.79 69.81C168.97 69.75 168.29 69.14 168.24 68.26C168.19 67.29 168.98 66.86 169.8 66.82C170.7 66.77 171.24 67.33 171.28 68.28H171.27Z" fill="#363F43"/>
<path d="M1587.51 69.7C1587.27 70.51 1586.91 71.2 1585.91 71.19C1584.9 71.19 1584.36 70.47 1584.39 69.68C1584.42 68.93 1584.92 68.14 1585.93 68.15C1586.94 68.15 1587.21 68.96 1587.5 69.7H1587.51Z" fill="#363E42"/>
<path d="M1584.38 236.38C1584.7 235.62 1585.05 234.88 1586.07 235C1587.02 235.11 1587.5 235.83 1587.42 236.64C1587.34 237.45 1586.78 238.13 1585.78 238.02C1584.82 237.91 1584.51 237.22 1584.38 236.38Z" fill="#363738"/>
<path d="M1693.37 75.6299C1693.23 76.4799 1692.91 77.1699 1691.89 77.1899C1690.9 77.2199 1690.31 76.5599 1690.3 75.7499C1690.3 74.9699 1690.8 74.2099 1691.77 74.1499C1692.79 74.0799 1693.1 74.8499 1693.37 75.6299Z" fill="#363F43"/>
<path d="M1691.61 244.03C1690.75 243.78 1690.19 243.17 1690.34 242.32C1690.48 241.51 1691.07 240.86 1692.04 241.01C1692.98 241.15 1693.4 241.86 1693.29 242.71C1693.18 243.6 1692.57 244.1 1691.61 244.03Z" fill="#363738"/>
<path d="M171.25 76.4299C171.23 77.2999 170.96 78.0099 169.96 78.0599C169.05 78.1099 168.38 77.6099 168.28 76.7299C168.18 75.8399 168.78 75.2599 169.66 75.1099C170.67 74.9299 171.07 75.5599 171.25 76.4299Z" fill="#343536"/>
<path d="M1660.93 75.0298C1662.02 75.0698 1662.51 75.8198 1662.47 76.5898C1662.43 77.3498 1661.91 78.0998 1660.89 78.0598C1659.88 78.0198 1659.41 77.2598 1659.44 76.4798C1659.47 75.6998 1659.98 74.9498 1660.93 75.0298Z" fill="#363737"/>
<path d="M11.9202 249.86C12.8702 249.89 13.4202 250.46 13.3702 251.34C13.3302 252.15 12.9002 252.93 11.9202 252.88C11.0302 252.84 10.4102 252.14 10.3702 251.34C10.3202 250.46 11.0302 249.98 11.9202 249.86Z" fill="#363E42"/>
<path d="M126.97 77.0498C127.95 77.1598 128.31 77.8198 128.23 78.6898C128.14 79.5598 127.67 80.1898 126.66 80.0098C125.78 79.8598 125.19 79.2798 125.29 78.3898C125.39 77.5098 126.05 77.0498 126.98 77.0498H126.97Z" fill="#343536"/>
<path d="M13.3802 259.77C13.2102 260.67 12.7302 261.21 11.7602 261.07C10.8802 260.94 10.2501 260.4 10.4101 259.48C10.5501 258.67 11.1201 258.03 12.0701 258.11C13.0601 258.19 13.2802 258.95 13.3802 259.77Z" fill="#3A3B3C"/>
<path d="M168.22 84.9101C168.35 84.0101 168.98 83.4301 169.78 83.3601C170.68 83.2901 171.21 84.0201 171.25 84.8901C171.3 85.8201 170.69 86.4101 169.79 86.3601C168.99 86.3101 168.27 85.9001 168.22 84.9101Z" fill="#364147"/>
<path d="M128.23 86.6802C128.33 87.6402 127.89 88.2502 126.94 88.2802C126.11 88.3102 125.32 88.0002 125.26 87.0102C125.2 86.0802 125.82 85.5102 126.65 85.3402C127.64 85.1402 128.04 85.8502 128.23 86.6902V86.6802Z" fill="#3B3D3D"/>
<path d="M128.23 145.43C128.04 146.27 127.65 146.97 126.65 146.77C125.82 146.6 125.21 146.03 125.27 145.1C125.34 144.11 126.12 143.8 126.95 143.83C127.9 143.86 128.33 144.47 128.23 145.43Z" fill="#3B3D3D"/>
<path d="M1587.47 261.39C1587.34 262.23 1587.02 262.92 1586.07 263.03C1585.06 263.14 1584.51 262.47 1584.43 261.66C1584.35 260.85 1584.82 260.13 1585.78 260.01C1586.79 259.89 1587.15 260.63 1587.47 261.39Z" fill="#373839"/>
<path d="M1587.48 86.5899C1587.15 87.3399 1586.81 88.11 1585.79 87.98C1584.85 87.86 1584.38 87.13 1584.44 86.32C1584.5 85.47 1585.1 84.86 1586.08 84.96C1587.03 85.06 1587.38 85.7299 1587.48 86.5899Z" fill="#3B3C3C"/>
<path d="M10.3501 92.7198C10.5301 91.9998 11.0301 91.3398 11.8901 91.2798C12.8501 91.2098 13.3101 91.9898 13.3601 92.8098C13.4201 93.7198 12.8301 94.3398 11.9101 94.2898C11.0901 94.2398 10.3701 93.8498 10.3501 92.7298V92.7198Z" fill="#36444B"/>
<path d="M1691.82 93.9899C1690.83 93.9499 1690.32 93.1799 1690.3 92.4299C1690.28 91.6399 1690.85 90.9399 1691.85 90.9399C1692.86 90.9399 1693.38 91.6399 1693.34 92.4599C1693.31 93.2299 1692.86 94.0099 1691.82 93.9899Z" fill="#3B3C3C"/>
<path d="M169.79 91.8101C170.73 91.8601 171.3 92.3701 171.24 93.2901C171.19 94.1301 170.73 94.9001 169.78 94.8301C168.95 94.7701 168.28 94.1401 168.23 93.2701C168.18 92.3001 168.96 91.9701 169.78 91.8101H169.79Z" fill="#3B3D3D"/>
<path d="M12.0798 274.89C13.0398 275.01 13.4698 275.61 13.3398 276.51C13.2198 277.34 12.7798 278.04 11.7698 277.86C10.8898 277.7 10.3398 277.06 10.4098 276.21C10.4798 275.31 11.1798 274.9 12.0898 274.9L12.0798 274.89Z" fill="#3A3B3C"/>
<path d="M1585.99 96.21C1585 96.24 1584.43 95.6 1584.42 94.77C1584.42 93.98 1584.88 93.22 1585.87 93.16C1586.89 93.1 1587.37 93.88 1587.44 94.65C1587.52 95.48 1586.99 96.16 1585.99 96.21Z" fill="#364045"/>
<path d="M13.4002 284.64C13.3102 285.54 12.8602 286.15 11.9102 286.11C11.0302 286.07 10.3202 285.52 10.3702 284.64C10.4202 283.84 11.0302 283.14 11.9302 283.1C12.9102 283.06 13.2202 283.84 13.4002 284.64Z" fill="#3B3C3C"/>
<path d="M128.25 95.0701C128.22 95.9401 127.91 96.6901 126.96 96.7501C126.09 96.8001 125.45 96.2601 125.28 95.3901C125.09 94.3901 125.8 93.9501 126.63 93.8101C127.55 93.6601 128.13 94.1201 128.25 95.0701Z" fill="#364045"/>
<path d="M1587.52 286.55C1587.24 287.32 1586.94 288.06 1585.92 288.05C1584.9 288.05 1584.39 287.28 1584.4 286.53C1584.41 285.79 1584.91 285 1585.94 285.01C1586.96 285.01 1587.22 285.81 1587.52 286.55Z" fill="#373838"/>
<path d="M1691.68 99.1498C1692.69 99.0898 1693.2 99.7398 1693.31 100.57C1693.42 101.44 1692.95 102.11 1691.98 102.21C1691.01 102.3 1690.38 101.72 1690.32 100.86C1690.25 100.02 1690.81 99.3898 1691.69 99.1598L1691.68 99.1498Z" fill="#364045"/>
<path d="M1587.5 144.68C1587.36 145.56 1586.97 146.2 1585.99 146.24C1585.01 146.28 1584.41 145.66 1584.41 144.8C1584.41 144 1584.9 143.24 1585.87 143.19C1586.88 143.13 1587.19 143.93 1587.5 144.68Z" fill="#36444C"/>
<path d="M1693.32 292.73C1693.1 293.63 1692.54 294.17 1691.61 294.02C1690.73 293.88 1690.17 293.21 1690.33 292.34C1690.48 291.53 1691.06 290.87 1692.04 291.02C1692.98 291.16 1693.29 291.87 1693.32 292.73Z" fill="#373839"/>
<path d="M11.74 99.7799C12.69 99.7099 13.3 100.13 13.35 101.08C13.39 101.93 13.02 102.7 12.06 102.76C11.16 102.82 10.55 102.22 10.39 101.38C10.2 100.39 10.91 99.9999 11.74 99.7899V99.7799Z" fill="#364750"/>
<path d="M12.2702 302.86C11.1102 302.93 10.5602 302.31 10.4102 301.51C10.2502 300.6 10.8802 300.06 11.7502 299.92C12.7202 299.77 13.2902 300.31 13.3402 301.21C13.3902 302.03 13.0502 302.75 12.2702 302.87V302.86Z" fill="#3A3B3C"/>
<path d="M13.3501 309.51C13.4001 310.43 13.0201 311.06 12.0601 311.11C11.1801 311.15 10.4501 310.73 10.4001 309.81C10.3501 308.95 10.9101 308.31 11.7801 308.16C12.7901 307.98 13.1501 308.69 13.3601 309.52L13.3501 309.51Z" fill="#363F43"/>
<path d="M171.24 101.45C171.24 102.33 170.95 103.02 169.96 103.07C169.06 103.11 168.37 102.63 168.28 101.74C168.19 100.85 168.78 100.27 169.66 100.12C170.67 99.9501 171.07 100.58 171.25 101.45H171.24Z" fill="#343536"/>
<path d="M1662.48 101.36C1662.43 102.23 1662.06 102.9 1661.16 103.05C1660.2 103.21 1659.6 102.6 1659.47 101.75C1659.35 100.9 1659.82 100.2 1660.73 100.06C1661.7 99.9102 1662.16 100.56 1662.47 101.36H1662.48Z" fill="#363738"/>
<path d="M1692.39 319.04C1690.9 319.08 1690.33 318.4 1690.31 317.61C1690.29 316.83 1690.79 316.09 1691.77 316.02C1692.79 315.95 1693.27 316.69 1693.32 317.49C1693.37 318.31 1692.93 319.04 1692.39 319.04Z" fill="#38393A"/>
<path d="M125.22 111.87C125.37 110.99 125.97 110.38 126.78 110.32C127.7 110.24 128.2 111 128.25 111.85C128.3 112.78 127.7 113.37 126.8 113.32C125.99 113.27 125.28 112.87 125.23 111.87H125.22Z" fill="#364045"/>
<path d="M13.39 334.96C12.98 336.05 12.32 336.32 11.45 336.02C10.61 335.73 10.09 335.17 10.52 334.23C10.87 333.46 11.46 332.9 12.39 333.22C13.29 333.53 13.35 334.34 13.4 334.97L13.39 334.96Z" fill="#364045"/>
<path d="M1693.38 117.47C1693.12 118.24 1692.84 119.02 1691.82 119C1690.81 118.99 1690.3 118.2 1690.29 117.46C1690.27 116.68 1690.84 115.97 1691.84 115.96C1692.86 115.96 1693.18 116.65 1693.39 117.47H1693.38Z" fill="#393A3B"/>
<path d="M1586.18 109.93C1586.78 109.89 1587.36 110.5 1587.43 111.33C1587.5 112.15 1587.02 112.87 1586.08 112.99C1585.07 113.11 1584.55 112.37 1584.44 111.59C1584.33 110.76 1584.82 110.08 1586.19 109.93H1586.18Z" fill="#393A3B"/>
<path d="M1693.37 267.46C1693.19 268.27 1692.92 269 1691.9 269.03C1690.89 269.06 1690.34 268.34 1690.31 267.57C1690.28 266.81 1690.79 266.05 1691.77 265.99C1692.79 265.93 1693.11 266.66 1693.37 267.45V267.46Z" fill="#373838"/>
<path d="M12.1798 116.31C13.0198 116.46 13.3798 117.15 13.3498 117.99C13.3098 118.94 12.6798 119.42 11.7498 119.27C10.9098 119.14 10.1998 118.69 10.3998 117.7C10.5698 116.87 11.1398 116.32 12.1798 116.31Z" fill="#36454E"/>
<path d="M10.3301 359.7C10.5501 358.88 11.0301 358.21 11.9001 358.15C12.8701 358.08 13.3101 358.87 13.3701 359.68C13.4301 360.59 12.8501 361.2 11.9201 361.16C11.0701 361.12 10.4301 360.67 10.3301 359.71V359.7Z" fill="#364147"/>
<path d="M1691.61 357.8C1692.53 357.77 1693.21 358.16 1693.31 359.1C1693.4 359.97 1692.97 360.69 1692.05 360.84C1691.08 361 1690.52 360.31 1690.34 359.5C1690.14 358.58 1690.76 358.05 1691.61 357.8Z" fill="#364045"/>
<path d="M1587.5 119.66C1587.35 120.52 1586.98 121.18 1585.99 121.22C1585 121.26 1584.42 120.62 1584.41 119.78C1584.41 118.99 1584.88 118.22 1585.86 118.17C1586.87 118.12 1587.17 118.92 1587.49 119.66H1587.5Z" fill="#364249"/>
<path d="M1693.35 367.43C1693.28 368.31 1692.95 368.97 1691.97 369.06C1690.98 369.15 1690.39 368.52 1690.32 367.69C1690.25 366.87 1690.78 366.15 1691.69 366.03C1692.7 365.89 1693.06 366.65 1693.35 367.43Z" fill="#3B3D3D"/>
<path d="M126.94 118.79C127.88 118.92 128.37 119.46 128.22 120.4C128.09 121.25 127.62 121.94 126.64 121.75C125.82 121.58 125.18 121.02 125.25 120.09C125.32 119.1 126.1 118.88 126.93 118.79H126.94Z" fill="#363F43"/>
<path d="M12.0601 124.79C13.0001 124.92 13.4801 125.49 13.3401 126.41C13.2101 127.25 12.7601 127.96 11.7601 127.76C10.9201 127.59 10.3201 126.99 10.3801 126.09C10.4401 125.12 11.2101 124.85 12.0601 124.79Z" fill="#36454E"/>
<path d="M1693.32 384.53C1693.06 385.37 1692.57 386.03 1691.62 385.85C1690.76 385.69 1690.22 384.99 1690.33 384.12C1690.44 383.23 1691.1 382.71 1692.04 382.83C1692.98 382.95 1693.34 383.62 1693.32 384.52V384.53Z" fill="#363E42"/>
<path d="M1693.36 392.64C1693.16 393.49 1692.75 394.13 1691.76 394.08C1690.79 394.03 1690.23 393.35 1690.31 392.52C1690.38 391.76 1690.88 390.99 1691.89 391.03C1692.89 391.07 1693.17 391.83 1693.36 392.64Z" fill="#363F44"/>
<path d="M1662.51 126.43C1662.37 127.26 1662.04 127.95 1661.1 128.07C1660.1 128.19 1659.54 127.51 1659.46 126.7C1659.38 125.89 1659.85 125.17 1660.81 125.06C1661.82 124.94 1662.18 125.68 1662.52 126.44L1662.51 126.43Z" fill="#363738"/>
<path d="M1691.81 410.88C1690.81 410.85 1690.31 410.07 1690.29 409.32C1690.27 408.53 1690.84 407.83 1691.84 407.83C1692.86 407.83 1693.36 408.54 1693.33 409.35C1693.3 410.12 1692.84 410.89 1691.81 410.88Z" fill="#3A3B3C"/>
<path d="M1691.67 416.03C1692.68 415.98 1693.19 416.63 1693.3 417.45C1693.42 418.32 1692.95 419 1691.97 419.09C1691 419.18 1690.38 418.6 1690.31 417.74C1690.24 416.9 1690.79 416.27 1691.67 416.03Z" fill="#364147"/>
<path d="M128.26 128.72C128.09 129.6 127.66 130.2 126.66 130.03C125.78 129.88 125.17 129.33 125.29 128.42C125.41 127.56 126.05 127.02 126.97 127.08C127.98 127.14 128.22 127.87 128.26 128.72Z" fill="#343536"/>
<path d="M1693.38 434.36C1693.11 435.13 1692.85 435.91 1691.82 435.89C1690.82 435.87 1690.31 435.08 1690.29 434.34C1690.27 433.57 1690.83 432.84 1691.83 432.84C1692.85 432.84 1693.16 433.55 1693.38 434.36Z" fill="#393A3B"/>
<path d="M128.25 137.13C128.22 137.84 127.65 138.4 126.77 138.34C125.96 138.29 125.18 137.84 125.23 136.87C125.28 135.98 125.99 135.38 126.79 135.34C127.68 135.29 128.17 135.99 128.25 137.13Z" fill="#364147"/>
<path d="M1585.99 134.98C1587 135.01 1587.49 135.75 1587.44 136.54C1587.39 137.3 1586.88 138.06 1585.87 138.01C1584.87 137.96 1584.4 137.2 1584.42 136.42C1584.44 135.63 1584.98 134.92 1585.99 134.98Z" fill="#38393A"/>
<path d="M1691.89 457.86C1692.93 457.86 1693.36 458.61 1693.32 459.42C1693.28 460.22 1692.8 460.95 1691.77 460.89C1690.79 460.83 1690.28 460.08 1690.31 459.31C1690.33 458.53 1690.89 457.82 1691.89 457.86Z" fill="#383939"/>
<path d="M13.37 143.04C13.22 143.98 12.66 144.46 11.74 144.31C10.9 144.17 10.19 143.7 10.4 142.72C10.57 141.89 11.18 141.28 12.09 141.35C13.05 141.43 13.34 142.18 13.38 143.05L13.37 143.04Z" fill="#364750"/>
<path d="M1584.38 161.35C1584.68 160.56 1585.07 159.87 1586.07 159.99C1587.02 160.1 1587.52 160.8 1587.42 161.62C1587.32 162.41 1586.79 163.13 1585.78 163.01C1584.83 162.9 1584.53 162.18 1584.38 161.36V161.35Z" fill="#373838"/>
<path d="M1691.61 144.01C1690.77 143.74 1690.21 143.14 1690.33 142.28C1690.45 141.42 1691.09 140.85 1692.04 140.99C1692.98 141.12 1693.42 141.81 1693.29 142.68C1693.16 143.54 1692.58 144.09 1691.61 144.02V144.01Z" fill="#38393A"/>
<path d="M1691.69 344.06C1690.75 343.91 1690.2 343.27 1690.32 342.43C1690.43 341.67 1690.95 340.91 1691.97 341.02C1692.95 341.13 1693.36 341.86 1693.31 342.69C1693.26 343.57 1692.67 344.12 1691.69 344.06Z" fill="#393A3B"/>
<path d="M13.3498 109.67C12.9298 111 12.1598 111.28 11.3598 110.83C10.9098 110.58 10.4398 109.8 10.4998 109.33C10.5998 108.46 11.3298 107.93 12.2798 108.13C13.3098 108.35 13.2998 109.19 13.3498 109.67Z" fill="#292A2A"/>
<path d="M13.3599 326.31C13.2199 327.17 12.9099 327.95 11.8899 327.87C10.9799 327.8 10.3499 327.11 10.4799 326.24C10.5499 325.76 11.2199 325.17 11.7399 325.01C12.7399 324.69 13.1899 325.41 13.3599 326.31Z" fill="#2C2D2D"/>
<path d="M13.3602 184.5C13.2802 185.41 12.8902 186.11 11.8802 186.03C10.9802 185.96 10.3002 185.34 10.4802 184.44C10.5802 183.94 11.2302 183.35 11.7502 183.18C12.7902 182.84 13.1402 183.68 13.3602 184.51V184.5Z" fill="#2A2B2B"/>
<path d="M128.22 103.77C128.02 104.71 127.45 105.3 126.51 104.92C125.99 104.71 125.34 104.06 125.32 103.58C125.28 102.7 125.97 102.08 126.92 102.1C127.96 102.12 128.25 102.86 128.23 103.77H128.22Z" fill="#272728"/>
<path d="M12.02 86.0099C11.03 85.9799 10.41 85.3099 10.42 84.5099C10.42 83.6899 11.08 83.0399 12.08 83.0799C12.87 83.1099 13.26 83.6499 13.31 84.3299C13.39 85.2199 13.02 85.8999 12.02 86.0199V86.0099Z" fill="#292A2A"/>
<path d="M10.4001 234.5C10.7201 233.71 11.1501 232.99 12.1501 233.14C13.1701 233.29 13.3901 234.07 13.2801 234.94C13.1901 235.69 12.6401 236.1 11.9301 236.05C11.0301 235.99 10.4601 235.46 10.3901 234.5H10.4001Z" fill="#2D2E2E"/>
<path d="M13.3699 351.32C13.2399 352.18 12.9099 352.95 11.8899 352.87C10.9799 352.8 10.3499 352.12 10.4799 351.25C10.5499 350.77 11.2199 350.18 11.7399 350.01C12.7499 349.69 13.1699 350.44 13.3599 351.32H13.3699Z" fill="#2B2C2C"/>
<path d="M10.3999 159.46C10.7199 158.66 11.1499 158.02 12.1599 158.1C12.9999 158.16 13.2799 158.82 13.3299 159.43C13.3999 160.32 12.9499 161.05 11.9499 161.01C11.0399 160.98 10.5299 160.36 10.4099 159.45L10.3999 159.46Z" fill="#292A2A"/>
<path d="M13.3401 209.78C13.1201 210.76 12.5301 211.31 11.6101 210.94C11.1001 210.74 10.4301 210.07 10.4401 209.61C10.4401 208.8 11.0501 208.07 12.0201 208.11C13.0401 208.15 13.2901 208.93 13.3501 209.77L13.3401 209.78Z" fill="#2B2C2D"/>
<path d="M13.35 59.65C13.12 60.5 12.7 61.27 11.69 60.91C11.17 60.72 10.53 60.1 10.46 59.61C10.34 58.72 11.02 58.09 11.93 58.06C12.93 58.03 13.3 58.74 13.34 59.65H13.35Z" fill="#2A2B2B"/>
<path d="M11.4701 135.92C10.8801 135.72 10.2501 135.2 10.5001 134.26C10.7301 133.4 11.4501 132.81 12.3401 133.19C12.8001 133.39 13.3101 134.13 13.3001 134.63C13.3001 135.47 12.8101 136.19 11.4601 135.92H11.4701Z" fill="#292A2A"/>
<path d="M167.97 51.1401C169.09 51.1801 170.21 51.2101 171.33 51.2501C171.25 52.2701 171.02 53.2101 169.72 53.1101C168.56 53.0201 168.24 52.0701 167.96 51.1401H167.97Z" fill="#36444B"/>
<path d="M91.9198 194H91.5698H91.2198C91.4798 192.38 90.6898 190.62 91.8498 189.12C92.3798 190.74 92.4598 192.37 91.9298 194.01L91.9198 194Z" fill="#1C1C1F"/>
<path d="M114.57 297.98C114.57 306.47 114.45 314.97 114.64 323.45C114.7 326.3 113.87 327.17 111.03 327.06C105.54 326.85 100.04 326.87 94.5501 327.06C91.9001 327.15 91.1801 326.28 91.2001 323.67C91.3101 306.85 91.1701 290.03 91.3001 273.22C91.3501 265.55 96.3101 260.44 103.12 260.51C109.79 260.58 114.4 265.46 114.54 273.01C114.7 281.33 114.58 289.66 114.58 297.99L114.57 297.98Z" fill="white"/>
<path d="M53.0599 297.83C53.0599 289.67 53.0199 281.52 53.0699 273.36C53.1199 265.7 57.8399 260.52 64.6399 260.51C71.4299 260.51 76.1599 265.67 76.1799 273.35C76.2299 289.99 76.0999 306.64 76.2799 323.28C76.3099 326.46 75.3799 327.22 72.3699 327.07C67.2199 326.82 62.0399 326.83 56.8899 327.07C53.9099 327.21 52.8699 326.51 52.9699 323.29C53.2199 314.81 53.0599 306.32 53.0599 297.83Z" fill="white"/>
<path d="M90.2801 194.04C89.5501 195.03 88.8201 196.02 88.0801 197.01C87.1001 197.05 86.1301 197.11 85.1501 197.13C78.5601 197.22 77.1501 195.62 78.0301 189.02C78.9901 187.24 80.7901 186.38 82.2901 185.19C83.4801 185.19 84.6701 185.19 85.8601 185.19C89.3401 187.13 91.1601 189.91 90.2701 194.03L90.2801 194.04Z" fill="#E3F9FA"/>
<path d="M888.2 30.39C892.78 25.56 899 24.04 904.99 22.06C908.98 21.45 912.96 21.09 916.92 22.23C916.95 35.54 916.87 48.86 917.07 62.17C917.12 65.47 915.95 65.89 913 65.8C906.66 65.59 900.4 66.26 894.94 70.06C890.493 72.1 888.267 70.5066 888.26 65.28C888.24 53.65 888.22 42.02 888.19 30.4L888.2 30.39Z" fill="white"/>
<path d="M873.86 23.1399C875.43 23.8699 877 24.5899 878.57 25.3199C884.45 27.8899 885.59 32.4599 885.27 38.5399C884.74 48.7799 885.15 59.0599 885.1 69.3299C885.1 70.7399 886.1 72.9399 883.15 72.7699C881.91 71.1999 880.19 70.4399 878.33 69.9099C875.7 68.1699 872.52 68.7399 869.67 67.8899C867.64 67.1999 865.53 67.4799 863.45 67.4099C861.23 67.2499 859.08 66.8399 857.05 65.8899H857.21C856.99 65.6399 856.6 65.3799 856.6 65.1299C856.63 50.7599 856.05 36.3899 856.87 22.0199L856.94 21.9699C859.75 20.9999 862.74 22.1699 865.55 21.1899C868.11 22.6899 870.86 23.4199 873.84 23.1299L873.86 23.1399Z" fill="white"/>
<path d="M850.11 29.0699C850.46 27.4699 850.59 25.6599 853.01 26.0399C855.31 26.3999 854.6 28.2199 854.6 29.5599C854.64 40.7999 854.6 52.0499 854.64 63.2899C854.64 64.9999 853.93 67.0099 855.96 68.2199C856.56 68.6799 856.61 69.2799 856.41 69.9399C856.01 70.4999 855.39 70.7099 854.8 70.9699C851.09 71.2799 850.19 69.5699 850.24 65.9599C850.42 53.6699 850.19 41.3699 850.11 29.0699Z" fill="white"/>
<path d="M923 27.0799C923.18 27.2699 923.39 27.3199 923.63 27.2199C923.65 39.1699 923.67 51.1199 923.68 63.0699C923.68 68.2232 921.123 70.6432 916.01 70.3299C912.17 69.2599 908.2 70.3999 903.23 69.5499C908.89 66.6199 914.22 69.4999 918.95 67.7699C919.21 67.8099 919.48 67.8399 919.74 67.8799C922.88 67.4999 921.94 65.0099 921.95 63.2399C922.04 53.7999 921.99 44.3599 921.99 34.9099C921.97 44.3099 922.06 53.7099 921.91 63.0999C921.89 64.4699 922.99 67.2899 919.52 66.4699C919.49 54.3899 919.52 42.3199 919.5 30.2399C919.5 27.8499 919.55 25.6199 922.99 27.0599L923 27.0799Z" fill="white"/>
<path d="M854.79 70.9699L856.02 70.1099C860.05 67.7699 864.69 69.9999 868.85 68.7499C865.82 68.9899 862.82 69.9299 859.98 67.8999C859.31 66.7899 857.45 67.4299 857.07 65.8999C859.38 65.9399 861.69 65.9799 864 66.0099C866.01 67.2399 868.34 66.0899 870.42 66.8799C873.36 67.1099 876.04 68.0299 878.35 69.9099C872.26 71.8599 865.98 70.9099 859.78 71.0599C858.12 71.0999 856.46 70.9999 854.8 70.9699H854.79Z" fill="#1B1B1B"/>
<path d="M923 27.0802C920.03 26.6602 919.93 28.4802 919.95 30.7202C920.04 42.8402 920.02 54.9502 920.05 67.0702C920.32 67.9802 919.92 68.3602 919.04 68.3602C918.82 68.1902 918.79 67.9902 918.96 67.7702C918.98 55.5502 918.97 43.3302 919.03 31.1102C919.03 29.3602 918.43 27.4402 919.99 25.9502C921.06 26.1702 922.36 25.7402 923.01 27.0802H923Z" fill="white"/>
<path d="M916.92 22.2199C912.95 21.6699 908.97 21.7099 904.99 22.0499C904.99 21.7199 904.99 21.3999 904.99 21.0699C908.96 21.5199 913.17 19.4599 916.91 22.2199H916.92Z" fill="#414548"/>
<path d="M856.9 22.03C857.01 36.65 857.13 51.27 857.24 65.89C855.07 64.95 855.99 63.01 855.98 61.52C855.91 48.36 855.95 35.2 855.96 22.04C856.27 21.99 856.58 21.99 856.9 22.02V22.03Z" fill="#304242"/>
<path d="M859.99 67.8999C863.38 68.5499 867.12 67.2599 871.27 70.1099H856.02C856 69.4799 855.98 68.8499 855.96 68.2199C857.3 68.1099 858.65 68.0099 859.99 67.8999Z" fill="white"/>
<path d="M865.58 21.2001C862.8 22.4101 859.81 21.4401 856.97 21.9801C859.69 20.1001 862.7 21.3401 865.58 21.2001Z" fill="#304242"/>
<path d="M870.42 66.8801C868.23 66.9601 865.93 67.8301 864 66.0101C866.19 65.9301 868.4 65.6701 870.42 66.8801Z" fill="#263737"/>
<path d="M919.03 68.3599C919.37 67.9299 919.7 67.4999 920.04 67.0699C921.6 65.5699 920.94 63.6299 920.95 61.8799C921.01 52.4299 920.98 42.9899 920.98 33.5399V28.6499C923.47 29.0299 922.82 30.5099 922.82 31.4599C922.88 42.7299 922.84 53.9999 922.87 65.2699C922.87 67.9999 922.61 70.1899 919.03 68.3699V68.3599Z" fill="white"/>
</svg>
