<svg width="218" height="219" viewBox="0 0 218 219" fill="none" xmlns="http://www.w3.org/2000/svg">
<g clip-path="url(#clip0_516_57)">
<path fill-rule="evenodd" clip-rule="evenodd" d="M108.846 0.928223C168.931 0.928223 217.639 49.6362 217.639 109.721C217.639 169.806 168.931 218.514 108.846 218.514C48.762 218.514 0.0529785 169.806 0.0529785 109.721C0.0529785 49.6362 48.762 0.928223 108.846 0.928223Z" fill="#5675B8"/>
</g>
<g clip-path="url(#clip1_516_57)">
<path fill-rule="evenodd" clip-rule="evenodd" d="M121.746 128.647C119.731 125.176 126.265 136.201 130.481 140.139C142.734 151.584 151.299 138.456 147.45 125.004C172.856 111.939 157.075 100.921 157.075 100.921C151.794 100.109 139.801 99.1712 130.695 99.2522C134.871 96.9482 140.121 93.7992 145.778 89.8002C159.472 80.1222 148.318 69.1062 134.346 70.1592C126.641 42.6842 109.052 59.6882 109.052 59.6882C106.343 66.9742 104.105 84.3532 104.585 91.0752C102.137 86.8832 97.493 79.5022 90.815 71.3162C80.219 58.3282 69.962 70.1842 71.959 84.0302C45.021 93.5582 63.972 107.8 63.972 107.8C70.528 109.741 83.154 112.16 91.828 112.381C87.708 115.21 81.035 120.143 73.771 126.914C61.506 138.347 74.048 147.764 87.749 144.839C99.09 171.03 112.678 151.774 112.678 151.774C113.425 148.443 114.814 143.234 115.967 137.778C116.544 135.048 117.063 132.257 117.414 129.608C119.932 136.77 124.077 145.566 114.751 165.225L129.259 154.36C129.259 154.36 128.742 140.698 121.746 128.647Z" fill="#0F0E0E"/>
</g>
<defs>
<clipPath id="clip0_516_57">
<rect width="218" height="219" fill="white"/>
</clipPath>
<clipPath id="clip1_516_57">
<rect width="105" height="112" fill="white" transform="translate(57 54)"/>
</clipPath>
</defs>
</svg>
