<svg width="218" height="218" viewBox="0 0 218 218" fill="none" xmlns="http://www.w3.org/2000/svg">
<g clip-path="url(#clip0_516_62)">
<path fill-rule="evenodd" clip-rule="evenodd" d="M109.192 0.371094C169.277 0.371094 217.985 49.0791 217.985 109.164C217.985 169.249 169.277 217.957 109.192 217.957C49.108 217.957 0.398987 169.249 0.398987 109.164C0.398987 49.0791 49.108 0.371094 109.192 0.371094Z" fill="#8393CA"/>
</g>
<g clip-path="url(#clip1_516_62)">
<path fill-rule="evenodd" clip-rule="evenodd" d="M139.792 116.807C148.421 115.318 146.679 104.889 151.974 104.094C158.783 103.072 165.062 112.773 165.062 112.773C165.062 112.773 162.302 98.5318 151.651 99.7938C142.988 100.819 144.431 108.492 139.261 109.392C135.526 110.04 131.664 107.264 129.231 105.021C131.546 104.759 135.779 103.812 139.838 100.435C146.566 94.8308 139.842 86.6708 144.032 83.3328C149.418 79.0448 159.707 84.3048 159.705 84.3048C159.705 84.3048 150.195 73.3518 141.601 79.7718C134.612 84.9908 139.698 90.9128 135.669 94.2798C132.76 96.7058 128.028 96.2358 124.799 95.5068C126.673 94.1248 129.866 91.1858 131.691 86.2338C134.716 78.0148 124.813 74.3118 126.773 69.3258C129.294 62.9188 140.834 62.3298 140.831 62.3308C140.831 62.3308 127.119 57.5988 122.889 67.4558C119.444 75.4728 126.811 78.0578 125.005 82.9838C123.698 86.5428 119.364 88.4998 116.205 89.4848C117.135 87.3508 118.432 83.2088 117.535 78.0058C116.047 69.3788 105.618 71.1208 104.823 65.8248C103.801 59.0148 113.502 52.7368 113.5 52.7368C113.5 52.7368 99.262 55.4958 100.523 66.1488C101.549 74.8098 109.221 73.3688 110.121 78.5368C110.769 82.2718 107.994 86.1328 105.749 88.5648C105.487 86.2508 104.54 82.0158 101.162 77.9618C95.56 71.2338 87.399 77.9568 84.063 73.7658C79.774 68.3788 85.033 58.0918 85.033 58.0918C85.033 58.0918 74.081 67.6018 80.502 76.1978C85.72 83.1858 91.644 78.1018 95.006 82.1278C97.436 85.0388 96.963 89.7698 96.235 92.9988C94.852 91.1248 91.915 87.9308 86.961 86.1078C78.745 83.0808 75.038 92.9848 70.054 91.0248C63.648 88.5058 63.058 76.9648 63.058 76.9648C63.058 76.9648 58.328 90.6788 68.186 94.9108C76.199 98.3538 78.788 90.9878 83.712 92.7938C87.272 94.0998 89.228 98.4348 90.212 101.593C88.077 100.664 83.938 99.3668 78.735 100.262C70.107 101.752 71.85 112.183 66.553 112.977C59.743 113.997 53.465 104.298 53.465 104.298C53.465 104.298 56.225 118.538 66.878 117.274C75.539 116.25 74.098 108.577 79.264 107.679C83 107.028 86.863 109.804 89.295 112.049C86.981 112.311 82.746 113.259 78.689 116.636C71.96 122.238 78.685 130.399 74.495 133.736C69.109 138.024 58.821 132.764 58.823 132.764C58.823 132.764 68.332 143.717 76.926 137.296C83.914 132.079 78.83 126.154 82.856 122.791C85.765 120.362 90.498 120.836 93.728 121.562C91.853 122.948 88.661 125.884 86.837 130.837C83.811 139.053 93.714 142.76 91.754 147.744C89.234 154.152 77.693 154.739 77.696 154.739C77.696 154.739 91.408 159.469 95.64 149.611C99.082 141.599 91.716 139.011 93.523 134.086C94.828 130.525 99.162 128.57 102.322 127.584C101.392 129.72 100.096 133.862 100.992 139.063C102.481 147.693 112.91 145.948 113.704 151.246C114.726 158.054 105.026 164.335 105.027 164.333C105.027 164.333 119.268 161.574 118.004 150.92C116.978 142.26 109.306 143.7 108.405 138.533C107.757 134.797 110.534 130.935 112.777 128.502C113.038 130.816 113.986 135.052 117.365 139.109C122.968 145.838 131.129 139.113 134.464 143.302C138.753 148.689 133.493 158.978 133.493 158.976C133.493 158.976 144.447 149.465 138.026 140.872C132.808 133.883 126.884 138.968 123.519 134.943C121.091 132.033 121.563 127.299 122.291 124.07C123.674 125.944 126.612 129.137 131.566 130.962C139.783 133.987 143.489 124.085 148.473 126.046C154.879 128.564 155.468 140.104 155.468 140.104C155.468 140.104 160.198 126.39 150.343 122.158C142.328 118.717 139.74 126.081 134.814 124.276C131.254 122.97 129.298 118.636 128.313 115.476C130.449 116.406 134.589 117.703 139.792 116.807ZM109.264 125.34C99.983 125.34 92.458 117.816 92.458 108.534C92.458 99.2518 99.983 91.7298 109.264 91.7298C118.544 91.7298 126.069 99.2518 126.069 108.534C126.069 117.816 118.544 125.34 109.264 125.34ZM94.714 108.534C94.714 100.5 101.227 93.9848 109.264 93.9848C117.299 93.9848 123.813 100.5 123.813 108.534C123.813 116.57 117.299 123.084 109.264 123.084C101.227 123.084 94.714 116.57 94.714 108.534Z" fill="#0F0E0E"/>
</g>
<defs>
<clipPath id="clip0_516_62">
<rect width="218" height="218" fill="white"/>
</clipPath>
<clipPath id="clip1_516_62">
<rect width="113" height="113" fill="white" transform="translate(53 52)"/>
</clipPath>
</defs>
</svg>
