<svg width="218" height="219" viewBox="0 0 218 219" fill="none" xmlns="http://www.w3.org/2000/svg">
<g clip-path="url(#clip0_516_52)">
<path fill-rule="evenodd" clip-rule="evenodd" d="M108.846 0.923828C168.931 0.923828 217.639 49.6318 217.639 109.717C217.639 169.801 168.931 218.51 108.846 218.51C48.762 218.51 0.053009 169.801 0.053009 109.717C0.053009 49.6318 48.762 0.923828 108.846 0.923828Z" fill="#F78F56"/>
</g>
<g clip-path="url(#clip1_516_52)">
<path fill-rule="evenodd" clip-rule="evenodd" d="M160.973 133.522C159.565 130.587 157.624 128.418 155.146 127.017C154.005 126.349 152.635 125.849 151.028 125.514C150.759 125.514 149.32 125.316 146.709 124.914C138.467 123.847 131.4 117.909 125.508 107.098C122.897 102.295 119.279 93.152 114.658 79.673L117.976 72.664C117.976 69.596 117.505 66.961 116.568 64.758C115.296 61.755 113.386 60.252 110.843 60.252C110.775 60.252 105.885 61.489 96.173 63.957C84.049 67.094 73.667 69.698 65.028 71.764C61.543 72.633 59.267 73.4 58.197 74.065C56.253 75.334 55.282 77.403 55.282 80.273C55.282 82.076 55.949 84.21 57.289 86.678C58.629 89.147 60.067 90.616 61.611 91.083C61.742 91.151 62.446 91.216 63.72 91.284C64.589 91.351 65.159 91.618 65.428 92.082C66.164 93.152 68.709 101.259 73.063 116.405C75.742 125.749 78.421 135.09 81.101 144.431C83.042 150.438 84.716 154.208 86.124 155.742C88.735 158.545 93.591 159.946 100.692 159.946H120.184C129.828 159.946 139.673 158.811 149.72 156.543C155.277 155.275 158.762 153.772 160.17 152.04C161.978 149.838 162.883 146.534 162.883 142.13C162.883 139.062 162.244 136.194 160.973 133.522ZM111.746 76.648C109.734 78.183 104.841 80.048 97.068 82.245C93.782 83.112 88.52 84.346 81.284 85.943C72.906 87.808 67.877 88.74 66.203 88.74C64.259 88.74 62.786 87.675 61.781 85.543C60.907 83.811 60.473 81.88 60.473 79.748C60.473 77.75 64.392 75.618 72.236 73.353C82.288 70.423 90.464 68.291 96.765 66.958C98.842 66.426 100.922 65.893 102.1 65.358C106.082 64.628 108.057 64.26 108.931 64.26C112.28 64.26 113.957 66.992 113.957 72.453C113.957 74.052 113.219 75.451 111.746 76.648ZM115.262 158.109H101.398C95.838 158.109 91.72 157.037 89.041 154.897C86.896 153.159 85.206 150.281 83.965 146.271C82.725 142.255 81.503 138.208 80.3 134.128L84.92 134.028C92.356 134.028 99.705 136.304 106.974 140.851C114.239 145.399 119.347 151.017 122.295 157.707L115.262 158.109Z" fill="#0F0E0E"/>
</g>
<defs>
<clipPath id="clip0_516_52">
<rect width="218" height="219" fill="white"/>
</clipPath>
<clipPath id="clip1_516_52">
<rect width="108" height="100" fill="white" transform="translate(55 60)"/>
</clipPath>
</defs>
</svg>
