<svg width="219" height="219" viewBox="0 0 219 219" fill="none" xmlns="http://www.w3.org/2000/svg">
<g clip-path="url(#clip0_516_44)">
<path fill-rule="evenodd" clip-rule="evenodd" d="M109.637 0.919922C169.722 0.919922 218.43 49.6279 218.43 109.713C218.43 169.797 169.722 218.506 109.637 218.506C49.553 218.506 0.844971 169.797 0.844971 109.713C0.844971 49.6279 49.553 0.919922 109.637 0.919922Z" fill="#F26C7C"/>
<g clip-path="url(#clip1_516_44)">
<path fill-rule="evenodd" clip-rule="evenodd" d="M158.238 96.082C161.483 103.925 154.053 113.3 149.181 117.292C151.577 109.806 156.493 106.451 154.962 96.854C152.868 97.203 150.773 97.552 148.679 97.902C150.645 97.102 152.611 96.303 154.577 95.504C153.501 87.907 150.318 85.089 146.869 80.271C153.414 82.386 155.685 87.335 157.467 94.154C161.871 92.938 164.259 90.386 169.607 90.876C169.607 90.94 169.607 91.005 169.607 91.069C169.415 91.262 169.222 91.455 169.029 91.648C167.511 95.109 161.934 94.869 158.238 96.082ZM148.025 98.011C148.243 97.974 148.461 97.938 148.679 97.902C148.589 97.938 148.5 97.974 148.41 98.011C148.282 98.011 148.153 98.011 148.025 98.011ZM134.343 82.199C136.353 77.268 144.654 66.81 148.796 63.689C151.478 65.491 148.765 68.541 147.832 69.666C143.336 73.843 138.839 78.022 134.343 82.199ZM143.786 112.858C141.859 118.449 139.931 124.041 138.005 129.633C136.271 130.854 134.536 132.075 132.802 133.296C130.554 135.032 128.305 136.767 126.057 138.503C122.204 139.531 118.349 140.559 114.495 141.587C107.109 140.431 99.721 139.274 92.335 138.117C88.545 133.168 84.755 128.218 80.965 123.27C80.773 121.149 80.58 119.028 80.387 116.907C78.717 106.623 80.729 103.149 83.856 95.504C84.948 92.741 86.04 89.976 87.132 87.213C94.261 84.385 101.392 81.556 108.521 78.729C114.43 79.564 120.341 80.4 126.25 81.235C127.92 82.906 129.59 84.578 131.26 86.248C133.765 88.691 136.271 91.134 138.775 93.576C140.445 100.002 142.116 106.431 143.786 112.858ZM137.234 97.818C131.839 92.998 126.442 88.176 121.047 83.356C116.358 82.971 111.668 82.585 106.98 82.199C100.621 85.798 94.261 89.398 87.903 92.997C86.233 97.625 84.562 102.253 82.892 106.88C83.149 111.7 83.406 116.522 83.663 121.342C87.388 125.648 91.115 129.954 94.84 134.26C98.693 134.967 102.548 135.674 106.402 136.381C109.509 137.09 121.779 137.718 125.286 136.189C126.699 134.71 128.113 133.232 129.526 131.754C132.031 129.44 134.536 127.126 137.041 124.812C137.362 123.141 137.684 121.47 138.005 119.799C139.646 112.603 140.111 109.46 138.197 102.445C137.876 100.903 137.555 99.36 137.234 97.818ZM130.875 125.969C126.315 128.604 121.753 131.24 117.193 133.875C120.533 130.533 123.874 127.19 127.213 123.848C131.025 117.163 131.182 108.839 131.838 98.975C132.93 103.538 134.022 108.102 135.114 112.665C134.151 115.492 133.187 118.321 132.224 121.149C131.774 122.756 131.324 124.363 130.875 125.969ZM116.229 53.855C116.872 53.341 117.514 52.827 118.156 52.313C119.255 52.804 119.419 53.927 120.084 54.819C118.349 60.796 116.615 66.775 114.881 72.752C114.812 68.274 114.525 56.71 116.229 53.855ZM84.819 69.666C86.297 73.201 87.774 76.737 89.251 80.271C89.123 80.207 88.994 80.143 88.866 80.079C86.811 76.994 84.755 73.908 82.7 70.823C78.023 73.623 74.847 77.378 73.065 82.971C73 82.971 72.936 82.971 72.872 82.971C73.707 78.922 74.542 74.872 75.377 70.823C77.175 69.923 78.974 69.024 80.773 68.124C80.644 67.995 80.516 67.867 80.387 67.738C79 64.435 77.087 63.96 77.111 58.676C81.308 60.511 81.796 62.723 83.663 66.774C85.205 65.939 86.746 65.103 88.288 64.267C93.683 65.424 99.08 66.581 104.475 67.738C97.932 67.637 88.442 66.658 84.819 69.666ZM78.46 95.504C71.074 94.218 63.686 92.933 56.3 91.648C55.465 90.234 54.629 88.819 53.795 87.406C53.923 87.406 54.051 87.406 54.18 87.406C55.272 87.148 56.364 86.891 57.456 86.634C64.457 89.526 71.459 92.419 78.46 95.311C78.46 95.375 78.46 95.44 78.46 95.504ZM74.992 116.328C66.505 116.963 58.68 122.41 50.904 119.413C51.033 119.221 51.161 119.028 51.289 118.835C52.446 117.935 53.602 117.035 54.758 116.135C61.502 116.2 68.248 116.264 74.992 116.328ZM73.065 141.202C71.202 138.952 69.339 136.702 67.476 134.453C68.183 131.433 68.89 128.411 69.596 125.391C69.66 125.391 69.724 125.391 69.789 125.391C70.097 131.825 71.863 136.226 75.762 139.081C77.882 137.346 80.002 135.61 82.122 133.875C80.387 135.996 78.653 138.117 76.919 140.238C78.835 142.764 88.906 147.793 92.335 148.722C95.289 148.722 98.244 148.722 101.199 148.722C101.584 147.244 101.97 145.765 102.355 144.287C102.419 144.287 102.484 144.287 102.548 144.287C102.548 145.765 102.548 147.244 102.548 148.722C105.759 148.786 108.971 148.85 112.183 148.915C108.971 149.557 105.759 150.2 102.548 150.843C102.548 155.47 102.548 160.099 102.548 164.726C101.263 165.497 99.978 166.268 98.694 167.04C98.18 165.883 97.666 164.726 97.152 163.569C98.244 159.52 99.336 155.47 100.428 151.421C97.923 151.935 95.418 152.45 92.913 152.964C90.528 152.984 75.711 144.716 74.606 142.744C74.221 143.066 73.835 143.387 73.45 143.708C71.579 147.7 67.852 150.459 63.044 151.807C64.78 146.59 70.04 145.078 73.065 141.202ZM144.942 163.569C143.593 163.183 142.244 162.798 140.895 162.412C137.748 155.343 134.6 148.271 131.453 141.202C136.27 147.371 141.088 153.543 145.905 159.713C145.584 160.998 145.263 162.283 144.942 163.569ZM170.378 128.283C169.094 128.669 167.809 129.054 166.524 129.44C160.037 127.576 153.548 125.712 147.061 123.848C154.126 124.362 161.194 124.877 168.259 125.391C168.965 126.355 169.672 127.319 170.378 128.283Z" fill="#0F0E0E"/>
</g>
</g>
<defs>
<clipPath id="clip0_516_44">
<rect width="219" height="219" fill="white"/>
</clipPath>
<clipPath id="clip1_516_44">
<rect width="121" height="116" fill="white" transform="translate(50 52)"/>
</clipPath>
</defs>
</svg>
