<svg width="219" height="218" viewBox="0 0 219 218" fill="none" xmlns="http://www.w3.org/2000/svg">
<g clip-path="url(#clip0_516_67)">
<path fill-rule="evenodd" clip-rule="evenodd" d="M109.401 0.375C169.486 0.375 218.194 49.084 218.194 109.168C218.194 169.253 169.486 217.961 109.401 217.961C49.316 217.961 0.607971 169.253 0.607971 109.168C0.607971 49.084 49.316 0.375 109.401 0.375Z" fill="#F06EAA"/>
</g>
<path fill-rule="evenodd" clip-rule="evenodd" d="M112.73 57.6478C165.417 59.9108 164.938 114.072 164.938 114.072C155.371 105.205 147.314 105.205 139.258 114.072C129.589 105.205 123.144 105.205 114.282 114.072V148.732C115.893 166.466 100.586 173.72 88.501 165.66C83.761 162.499 84.472 151.151 90.112 152.762C102.197 168.078 102.902 149.538 102.902 149.538V114.072C94.946 105.205 86.084 105.205 78.027 114.072C72.388 106.011 64.331 104.399 53.857 114.072C53.857 114.072 54.506 61.9308 104.614 58.3668L107.837 48.6948L112.73 57.6478Z" fill="#1A1A1D"/>
<defs>
<clipPath id="clip0_516_67">
<rect width="219" height="218" fill="white"/>
</clipPath>
</defs>
</svg>
