<svg width="387" height="124" viewBox="0 0 387 124" fill="none" xmlns="http://www.w3.org/2000/svg">
<g clip-path="url(#clip0_665_239)">
<path d="M161.64 2.29C160.29 2.09 160.43 0.1 161.8 0.1C235.37 0.1 308.93 0.13 382.5 0C385.96 0 386.66 0.66 386.65 4.06C386.49 42.86 386.51 81.66 386.64 120.45C386.64 123.41 386.03 124 383.01 124C256.55 123.91 130.09 123.91 3.64 124C0.62 124 0 123.41 0.01 120.45C0.13 81.49 0.13 42.53 0 3.56C0 0.61 0.61 0 3.63 0.01C48.65 0.13 93.68 0.09 138.7 0.09C139.94 0.09 140.25 1.86 139.06 2.24C138.4 2.45 137.66 2.52 137.02 2.69C108.51 10.33 93.88 29.72 88.63 57.18C87.21 64.59 87.46 71.92 88.65 79.33C89.72 85.94 88.56 86.94 82.1 85.14C72.04 82.34 63.07 84.33 55.07 90.67C50.45 94.33 47.32 99.07 47.04 105.02C46.83 109.64 44.47 111.64 40.14 112.7C32.92 114.47 25.83 116.71 19.83 118.42C18.61 118.77 18.84 120.57 20.11 120.58C135.02 121.79 253.68 122.29 372.03 120.61C373.23 120.59 373.55 118.95 372.44 118.49C365.21 115.48 357.83 112.14 350.32 109.05C343.51 106.25 343.46 106.08 343.57 98.86C343.8 83.77 334.74 71.82 321.26 69.33C317.33 68.6 313.57 69.16 309.79 70.18C304.18 71.69 303.09 70.75 303.75 65.08C305.19 52.76 303.15 41.1 297.08 30.14C287.95 13.67 269.69 5.84 251.13 10.43C246.79 11.5 242.84 13.31 239.46 16.11C236.46 18.59 234.04 18.3 231.02 15.92C224.71 10.95 217.73 8.87 209.9 12.74C207.12 14.11 204.99 16.12 203.05 18.48C200.01 22.18 198.63 22.42 195.27 19.22C185.81 10.2 174.83 4.24 161.68 2.3C161.67 2.3 161.66 2.3 161.64 2.3V2.29Z" fill="#F3F3F2"/>
<path d="M159.52 0.269863C164.55 1.68986 169.8 2.25986 174.7 4.21986C183.69 7.81986 191.55 12.9699 198.25 20.4399C198.74 20.9899 199.63 20.9299 200.01 20.2899C202.89 15.4199 206.67 11.9399 211.84 10.2599C220.02 7.61986 226.96 10.1399 232.97 15.7899C234.02 16.7699 234.52 18.7899 236.71 16.6599C251.9 1.89986 283.63 5.51986 296.65 26.4899C304.37 38.9199 307.05 52.2599 304.85 66.6099C304.74 67.3299 304.69 68.0499 304.63 68.9399C304.58 69.7299 305.35 70.3199 306.09 70.0599C311.31 68.2099 316.32 66.8099 321.7 67.8499C336.61 70.7299 346.4 84.2999 344.73 100.79C344.36 104.45 345.58 105.55 348.49 106.77C359.74 111.48 370.91 116.38 382.11 121.23C382.16 121.25 382.09 121.54 382.05 122.17C258.74 122.82 135.39 122.69 11.91 121.41C10.63 121.4 10.4 119.58 11.62 119.24C21.46 116.5 31.3 113.77 41.12 110.98C43.03 110.44 45.27 110.47 45.22 107.21C44.98 90.8099 65.29 77.8699 82.87 83.8999C84 84.2899 85.12 84.6799 86.43 85.1299C87.2 85.3999 87.99 84.7599 87.89 83.9499C87.53 81.1299 87.17 78.5099 86.94 75.8799C84.54 48.5899 93.67 26.1399 116.54 9.76986C123.21 4.99986 130.93 2.18986 139.19 1.06986C139.52 1.02986 139.82 0.969863 140.08 0.849863L143.9 0.109863C148.16 0.889863 152.42 0.899863 156.67 0.119863L159.52 0.249863V0.269863Z" fill="#1B1A1D"/>
<path d="M156.89 0.100098C152.51 1.7101 148.12 1.7301 143.74 0.100098H156.89Z" fill="#BF5037"/>
<path d="M134.8 81.3798C133.89 81.2198 133.18 82.1798 133.63 82.9898C136.22 87.7198 139.48 90.9398 143.93 93.0098C145.35 93.6698 147.14 93.8398 145.18 95.8798C135.48 105.95 120.05 114.08 105.34 107.92C99.97 105.67 97.12 106.04 92.94 110C86.45 116.14 77.65 117.91 68.88 118.99C67.22 119.19 65.51 119.08 63.83 119.08C54.21 119.08 44.59 119.08 34.87 118.66C33.62 118.61 33.41 116.84 34.61 116.49C38.08 115.49 41.55 114.51 45.05 113.6C47.57 112.95 48.89 112.22 48.77 109.08C48.38 98.7398 54.09 91.9898 63.4 88.1498C72.8 84.2798 81.79 85.3698 89.95 91.5898C91.63 92.8698 92.93 94.6298 94.74 95.7898C95.52 96.2798 96.53 95.6698 96.43 94.7498C93.53 68.7398 115.12 46.0798 145.54 52.5898C146.37 52.7698 147.08 51.9498 146.8 51.1498C145.8 48.3098 144.65 45.6298 145.13 42.5998C147.07 30.3198 159.23 23.9598 172.59 28.3698C181.18 31.2098 186.99 37.2498 191.57 44.5898C192.73 46.4498 193.76 48.3798 195.04 50.3998C195.59 51.2798 196.93 50.9798 197.07 49.9498C197.57 46.1998 198.54 42.7198 202.55 40.8798C206.6 39.0198 210.37 40.5898 215.21 46.1898C216.5 42.7598 216.95 39.0298 220.14 36.8598C223.25 34.7398 226.46 33.1798 230.47 34.3898C236.95 36.3398 239.73 41.4398 238.68 49.7798C238.56 50.7098 239.61 51.3998 240.37 50.8498C241.56 49.9898 242.26 48.5798 243.24 47.5698C247.28 43.4098 251.86 40.1698 257.65 38.9498C268.65 36.6198 282.13 44.3098 279.18 58.9098C279.01 59.7698 279.89 60.4698 280.7 60.1198C281.33 59.8498 281.91 59.3898 282.53 59.1798C290.24 56.5898 298.24 61.4898 297.47 69.2498C297.11 72.8298 298.39 76.2198 298.23 79.6798C298.18 80.7698 299.53 81.3098 300.19 80.4398C300.61 79.8898 300.98 79.2898 301.42 78.7798C310.37 68.3498 326.52 68.6398 335.13 79.4298C340.91 86.6698 342.15 95.0298 340.77 103.75C340.32 106.59 341.05 107.4 343.39 108.37C349.72 110.98 355.98 113.73 362.23 116.95C363.27 117.49 362.87 119.06 361.7 119.04C355.8 118.91 349.9 118.66 344.07 119.22C329.9 120.57 317.96 115.51 307.05 107.68C301.92 104 297.49 103.66 291.7 105.95C279.78 110.67 267.47 114.02 254.36 111.1C248.17 109.72 242.5 107.21 238.22 102.55C236.24 100.39 235.01 100.36 232.44 101.73C215.3 110.88 193.26 108.26 179.17 95.6498C178.61 95.1498 178.73 94.2398 179.38 93.8798C182.62 92.0998 185.61 90.0498 187.67 86.9598C189.74 83.8498 191.38 80.5998 191.21 76.4798C191.18 75.7198 190.39 75.2398 189.69 75.5198C172.07 82.6198 154 84.7798 134.8 81.3998V81.3798Z" fill="#F3F3F2"/>
<path d="M233.48 23.6199C233.83 24.3399 234.82 24.4599 235.32 23.8299C239.44 18.6399 244.27 14.8599 250.54 12.9999C270.81 6.98992 291.29 17.9699 298.5 38.9099C299.83 42.7599 300.92 46.7799 301.35 50.8099C301.72 54.2499 301.6 57.7399 301.51 61.7199C301.49 62.7899 300.09 63.2099 299.5 62.3199C295.97 57.0199 291.26 54.3899 284.64 54.9699C283.33 55.0799 283.52 54.1999 283.29 53.4599C277.54 34.4899 260.84 29.2299 244.81 41.3199C244.44 41.5999 244.08 41.8799 243.73 42.1499C243.38 42.4199 242.86 42.4699 242.48 42.2199C241.5 41.5699 241.72 40.2199 241.27 39.3399C236.15 29.2299 223.79 27.3899 216.28 35.7899C214.66 37.5999 212.14 38.2999 209.86 37.4499C204.13 35.3399 199.59 37.4699 195.88 41.9299C195.42 42.4799 194.56 42.4399 194.14 41.8499C190.67 36.9299 187 32.4699 182.07 29.1499C175.89 24.9899 169.13 23.0399 161.6 23.7199C149.9 24.7699 141.7 33.1499 141.72 44.5999C141.72 47.6399 141.28 48.1999 138.01 47.9599C116.44 46.3499 98.94 59.5599 93.68 80.5999C93.4 81.6999 91.83 81.7199 91.55 80.6199C86.06 58.6499 96.24 26.2599 120.26 11.8199C141.11 -0.730077 179.04 -0.320076 199.64 28.0599C200.19 28.8199 201.37 28.5699 201.59 27.6599C203.58 19.6099 208.11 13.7999 217.06 13.1599C224.68 12.6199 230.08 16.6799 233.47 23.6199H233.48Z" fill="#F3F3F2"/>
</g>
<defs>
<clipPath id="clip0_665_239">
<rect width="386.64" height="124" fill="white"/>
</clipPath>
</defs>
</svg>
