<svg width="519" height="593" viewBox="0 0 519 593" fill="none" xmlns="http://www.w3.org/2000/svg">
<path d="M239.041 0.09C330.991 0.09 422.941 0.12 514.891 0C518.311 0 519.001 0.66 518.991 4.06C518.841 48.31 518.891 92.57 518.891 136.82C518.491 137.17 518.051 137.43 517.561 137.63C514.811 138.05 512.301 137.04 509.781 136.27C499.921 133.25 490.231 129.74 480.311 126.88C474.351 125.16 474.271 124.76 474.551 118.49C475.221 103.58 465.221 94.4 450.411 96.33C445.531 96.97 444.641 96.45 444.711 91.57C444.821 83.42 444.021 75.51 441.201 67.74C433.341 46.1 411.841 35.84 390.031 43.53C385.201 45.23 381.281 48.25 377.621 51.64C373.121 55.82 373.081 55.92 369.881 50.48C365.741 43.46 359.721 38.78 352.101 36.07C338.671 31.3 324.531 36.2 316.911 48.2C315.131 51 313.761 54 312.461 57.05C310.901 60.71 309.631 61.08 306.611 58.36C299.831 52.23 292.281 48.93 282.931 50.94C279.721 51.63 279.021 49.62 278.711 46.97C277.121 33.16 271.391 21.5 260.851 12.07C254.561 6.44 247.091 3.65 239.191 1.48C238.751 1.07 238.701 0.61 239.031 0.11L239.041 0.09Z" fill="#F3F3F2"/>
<path d="M0.17145 136.82C0.17145 92.6299 0.23145 48.4299 0.06145 4.23991C0.04145 0.49991 1.04145 -8.97922e-05 4.47145 0.00991021C79.6615 0.11991 154.851 0.0899102 230.041 0.0899102C230.381 0.58991 230.331 1.03991 229.891 1.44991C227.351 2.77991 224.421 2.70991 221.761 3.66991C209.321 8.14991 200.311 16.1199 196.081 28.7299C194.941 32.1299 193.521 33.5299 189.721 32.9999C185.011 32.3299 180.791 33.9799 177.751 37.7399C175.441 40.6099 173.141 40.1899 170.371 38.5299C163.001 34.1399 155.041 31.7399 146.421 30.7699C125.191 28.3799 105.461 42.6799 101.531 63.4799C100.231 70.3499 100.741 76.9199 103.051 83.3999C104.331 86.9999 104.271 89.5799 99.9715 91.2199C95.9515 92.7599 93.1714 95.9799 91.8414 100.11C90.8614 103.18 89.1614 103.58 86.1714 102.85C72.3414 99.4899 60.6414 105.9 55.5914 119.45C54.7814 121.63 53.6015 123.3 51.3715 123.95C35.2615 128.62 19.2814 133.74 2.97145 137.74C2.49145 137.86 1.98145 137.71 1.49145 137.61C1.00145 137.41 0.56145 137.14 0.17145 136.8V136.82Z" fill="#F3F3F2"/>
<path d="M0.171445 136.82C0.591445 136.85 1.00144 136.88 1.42144 136.91C6.57144 137.49 11.6014 136.12 16.7514 136.13C162.091 136.22 307.431 136.18 452.761 136.23C469.411 136.23 486.051 136.5 502.701 136.14C507.701 136.03 512.561 137.44 517.551 136.97C518.001 136.92 518.451 136.87 518.901 136.82C518.851 138.45 519.531 140.67 516.401 139.81C515.941 139.68 515.411 139.79 514.911 139.79C344.661 139.79 174.421 139.79 4.17144 139.78C2.16144 139.78 -0.758555 140.8 0.181445 136.82H0.171445Z" fill="#F3F3F2"/>
<path d="M229.961 0.939844C230.021 0.659844 230.051 0.379844 230.051 0.0898438H239.051C239.071 0.369844 239.101 0.649844 239.141 0.929844C236.081 3.19984 233.031 3.18984 229.961 0.929844V0.939844Z" fill="#7953A2"/>
<path d="M229.961 0.940176C233.021 0.940176 236.081 0.940176 239.141 0.940176C256.571 2.92018 267.261 13.6802 274.761 28.2502C278.231 34.9902 280.081 42.3002 280.131 50.2802C292.151 46.8802 301.801 50.7702 310.051 60.0302C315.231 43.8202 324.881 32.7102 342.811 32.9902C357.161 33.2202 367.181 41.1802 373.451 54.0702C386.301 39.6902 402.431 35.0302 419.891 43.0002C442.141 53.1502 447.111 73.2302 446.071 95.7502C449.501 95.4602 452.751 94.1602 456.231 94.6002C469.641 96.3102 477.781 106.54 475.661 120.05C475.081 123.77 476.391 124.27 479.161 125.11C491.981 128.97 504.741 133 517.521 136.97C515.981 138.46 514.041 137.78 512.301 137.78C343.711 137.82 175.111 137.82 6.52143 137.78C4.82143 137.78 2.85143 138.64 1.40143 136.91C13.5814 133.5 25.7614 130.1 37.9314 126.69C39.8314 126.16 41.6914 125.31 43.6214 125.08C50.6814 124.24 54.2714 120.74 56.6514 113.71C59.1014 106.46 66.5314 103.19 73.9214 101.21C78.5114 99.9802 83.0514 100.16 87.5214 101.93C88.5914 102.36 89.6914 103.11 90.2414 100.79C91.6214 94.9502 95.3714 90.9202 101.301 89.3002C105.121 88.2602 102.611 86.2502 102.071 84.8102C94.3114 64.4302 104.661 40.6402 125.091 32.6602C141.181 26.3802 156.531 28.8802 171.021 37.5902C173.561 39.1202 174.801 40.0602 176.961 36.8002C179.871 32.4102 184.801 30.4802 189.991 31.7402C193.541 32.6102 194.091 31.0902 194.881 28.5202C199.561 13.2602 214.241 1.75018 229.941 0.930176L229.961 0.940176Z" fill="#1B1B1E"/>
<path d="M181.791 62.5802C182.901 60.5702 183.701 58.9502 184.671 57.4302C188.331 51.6902 193.171 49.9202 199.091 53.1102C202.441 54.9102 202.921 53.6102 204.091 51.0802C210.271 37.7602 220.941 30.2102 235.451 27.9802C240.931 27.1402 246.171 28.1302 250.341 32.0002C258.511 39.5802 264.351 48.6202 267.121 59.5002C267.781 62.0802 267.771 63.4602 264.481 64.1202C257.861 65.4402 253.911 69.8502 251.991 76.9402C265.851 71.8502 277.981 74.1602 288.711 84.4202C289.701 78.3502 287.721 73.7402 283.481 69.2602C293.431 68.9002 300.141 73.1002 305.571 80.0802C306.601 75.1602 307.421 74.9002 311.611 77.3002C315.181 79.3402 316.791 83.0302 319.331 86.5102C322.851 61.9202 335.081 50.7402 349.061 59.0202C344.571 60.8902 341.041 63.6802 338.821 68.7602C354.101 65.1702 364.931 70.5802 372.171 83.9102C372.481 75.2402 376.701 67.5602 376.021 58.9702C375.731 55.3402 379.151 52.9502 381.791 50.7402C397.331 37.7102 421.481 41.1502 433.571 58.2802C442.871 71.4502 444.761 86.1402 441.261 102.19C445.001 100.94 447.851 98.6402 451.431 98.1802C465.461 96.3702 476.141 108.65 471.681 122.06C470.481 125.68 471.331 126.35 474.491 127.25C481.621 129.29 488.631 131.75 495.931 134.11C470.321 139.06 449.221 134.94 428.701 120.87C426.571 119.41 425.281 119.42 423.091 120.71C412.111 127.17 400.291 129.58 387.671 126.92C385.111 126.38 382.501 125.55 380.211 124.31C376.391 122.25 373.221 118.97 368.161 119.75C366.891 119.95 364.621 118.61 364.011 117.39C361.341 112.04 358.291 114.47 354.671 116.18C339.481 123.37 324.011 124.09 308.471 117.24C305.101 115.75 302.681 115.79 299.611 118.52C292.581 124.77 284.141 125.85 275.421 122.48C273.011 121.55 271.391 121.6 269.081 122.62C252.491 129.92 236.791 127.89 221.291 117.49C226.941 114.19 231.561 110.42 234.241 103.81C217.291 109.01 200.871 109.18 184.571 103.02C185.261 109.07 187.731 111.86 194.491 114.47C190.801 121.91 177.461 128.56 165.741 125.43C155.541 122.7 145.521 120.11 134.911 122.81C133.861 123.08 132.181 123.06 131.541 122.43C127.411 118.36 124.151 121.64 120.641 123.41C103.791 131.9 85.8315 132.45 67.5815 130.48C61.6515 129.84 55.7715 128.68 49.3715 127.68C50.2715 127.09 50.7515 126.53 51.3015 126.45C55.3015 125.87 57.0715 123.81 57.9915 119.68C59.9315 110.95 64.4915 108.89 73.0715 111.94C79.4015 114.19 84.9015 117.85 90.4715 122.41C92.1315 119.09 94.1915 116.62 98.3915 118.72C99.3915 119.22 101.171 118.16 100.881 116.52C100.191 112.51 101.381 109.34 104.701 107.03C108.391 104.46 112.741 104.28 116.691 105.46C121.241 106.82 121.401 105.18 120.651 101.66C119.681 97.1002 119.591 92.4202 120.411 87.8702C122.731 74.9802 134.011 68.0302 147.661 70.8302C148.611 71.0302 149.581 71.1602 150.691 71.3502C146.891 64.3602 148.021 61.1202 155.221 57.7602C166.471 52.5102 174.391 53.8702 181.751 62.5902L181.791 62.5802Z" fill="#F3F3F2"/>
<path d="M371.771 68.7902C365.031 60.3202 355.741 57.8002 347.271 54.2802C338.571 50.6702 328.551 54.9702 322.451 63.3702C319.581 67.3202 318.141 71.8402 316.731 76.5702C313.001 74.2902 309.681 71.2102 304.811 72.8402C303.381 73.3202 302.471 71.8102 301.421 71.0802C292.761 65.1202 283.561 63.9402 273.271 68.0102C277.261 70.0402 281.801 70.8402 283.911 75.9602C275.831 71.8302 267.941 69.8002 258.881 71.5302C261.571 67.8002 264.961 66.9802 268.611 67.2302C270.951 67.3902 271.491 66.6502 271.251 64.4902C269.471 48.8702 261.981 36.3402 249.331 27.2702C242.651 22.4802 234.571 24.0502 227.191 26.3702C216.471 29.7302 208.211 36.4002 202.701 46.1902C201.411 48.4802 200.691 49.8802 197.241 48.9302C191.621 47.3802 186.271 48.7802 182.871 54.1202C181.511 56.2602 180.421 55.9102 178.561 54.6202C169.051 48.0202 154.381 52.7902 148.021 58.4602C147.181 59.2102 146.111 60.2602 146.051 61.2302C145.731 66.4902 142.091 66.6402 138.051 67.2702C123.111 69.6202 115.381 80.1202 116.741 96.0902C117.061 99.8602 117.881 102.19 112.111 101.64C104.501 100.92 99.6615 105.1 97.2915 112.27C96.7415 113.93 89.7215 117.3 88.3615 116.32C82.7315 112.27 76.5415 109.3 69.2515 106.95C78.6615 102.39 86.4915 103.63 94.4715 110.81C93.3415 104.77 92.8815 99.8002 97.0515 95.8602C101.071 92.0702 105.691 91.4402 112.181 93.9902C105.971 86.1202 102.671 78.6702 103.171 70.1802C104.671 44.5502 125.411 30.1302 148.001 33.5002C162.091 35.6002 163.071 36.4602 177.991 47.1702C177.671 41.8302 179.221 37.7902 184.491 35.7402C189.781 33.6802 193.311 36.1002 196.901 40.7902C197.011 27.6802 202.101 18.0802 212.181 11.2002C230.031 -0.979832 252.061 2.75017 265.451 20.2202C273.491 30.7102 277.181 42.5202 276.251 55.5102C277.241 56.4702 278.001 55.8802 278.631 55.4802C290.161 48.1402 304.651 56.6202 308.641 65.1102C309.301 66.5102 308.941 69.0102 311.761 68.6802C315.071 68.2902 313.681 65.6802 313.781 64.0602C314.761 47.9102 328.291 35.9102 344.731 36.7402C359.821 37.5002 372.861 52.3902 371.781 68.8002L371.771 68.7902Z" fill="#F3F3F2"/>
<path d="M347.581 64.24C349.511 61.86 351.941 62.05 354.151 61.78C359.701 61.11 359.781 61.09 361.041 62.66C363.151 65.27 366.221 67.21 367.411 71.84C361.201 66.86 354.971 64.33 347.571 64.24H347.581Z" fill="#D74D9B"/>
<path d="M399.051 140.32C399.481 138.17 398.681 137.73 396.541 137.76C384.431 137.89 372.311 137.82 360.201 137.82C360.201 141.13 360.321 144.44 360.151 147.73C359.821 154.26 359.431 160.76 365.291 165.47C367.821 169.6 367.081 172.38 362.511 175.86C365.171 177.34 364.991 181 363.921 181.73C359.611 184.67 363.251 185.69 364.831 187C371.341 192.4 377.941 197.7 384.531 203.01C389.441 206.97 389.721 208.56 386.481 214.17C385.851 215.27 385.641 216.43 387.461 216.6C388.281 216.68 389.121 216.62 389.951 216.63C397.681 216.73 399.321 219.96 395.531 227.21C394.901 228.43 394.961 230.09 394.951 231.54C394.921 257.96 395.001 284.39 394.861 310.81C394.841 314.88 398.001 318 397.231 322.37C396.741 325.11 396.171 326.35 393.451 325.82C389.441 325.04 388.471 327.05 389.041 330.47C389.481 333.14 388.001 334.22 385.841 335.22C377.591 339.03 369.381 342.94 361.221 346.93C359.281 347.88 357.661 347.91 355.711 346.95C347.711 343.01 339.681 339.11 331.561 335.43C328.991 334.26 327.661 332.96 327.821 329.94C327.921 328.06 328.141 325.43 324.581 325.77C322.981 325.92 320.271 326.88 319.821 324.64C319.251 321.85 318.291 318.18 320.391 316.09C321.961 314.53 322.231 313.22 322.241 311.5C322.271 284.58 322.241 257.66 322.281 230.74C322.281 227.07 318.581 224.81 319.311 220.58C319.871 217.36 320.571 216.2 323.701 216.63C324.841 216.79 326.021 216.65 327.181 216.66C329.761 216.66 332.001 217.23 329.111 213.28C327.491 211.06 327.191 207.13 330.601 204.48C338.061 198.68 345.391 192.69 352.631 186.61C353.701 185.71 358.091 184.65 353.151 182.1C351.471 181.24 351.741 177.67 354.151 175.87C352.401 175.1 351.311 173.76 350.831 171.91C349.761 168.93 349.591 166.1 352.201 163.73C352.681 162.47 353.571 161.75 354.921 161.59C356.771 160.59 356.851 158.93 356.881 157.05C356.991 150.64 356.381 144.21 357.241 137.82H256.671C256.591 138.17 256.521 138.52 256.441 138.87C256.501 159.64 256.591 180.42 256.621 201.19C256.651 222.97 256.621 244.74 256.631 266.52C256.631 268.44 256.071 270.63 258.631 271.55C264.321 275.49 264.921 279.22 260.701 284.53C260.571 285.23 259.271 285.51 260.081 286.58C261.201 288.04 261.141 290.74 260.491 291.23C254.391 295.82 261.161 296.71 262.731 298.12C269.021 303.75 275.681 308.99 282.341 314.21C285.991 317.07 285.501 320.56 283.631 323.71C282.341 325.88 282.231 326.4 284.751 326.49C285.581 326.52 286.421 326.41 287.231 326.52C289.281 326.8 292.451 325.4 293.161 327.36C294.161 330.15 294.681 334.01 292.881 336.44C291.501 338.31 291.341 339.9 291.341 341.75C291.301 368.16 291.381 394.57 291.231 420.98C291.211 424.92 294.471 427.79 293.731 432C293.251 434.7 293.171 436.5 289.891 435.89C286.571 435.27 284.821 436.42 285.481 440.02C286.051 443.11 284.321 444.28 281.801 445.42C273.831 449.03 265.941 452.83 258.111 456.73C255.831 457.87 253.941 457.91 251.641 456.77C243.951 452.95 236.191 449.25 228.371 445.71C225.521 444.42 223.821 442.87 224.091 439.47C224.231 437.63 224.301 435.41 221.031 435.79C219.461 435.98 216.741 436.98 216.261 434.74C215.661 431.98 214.751 428.41 216.761 426.22C218.671 424.13 218.521 422.07 218.521 419.89C218.581 394.14 218.381 368.39 218.751 342.65C218.811 338.71 215.761 336.5 215.771 332.71C215.771 327.98 216.561 325.39 221.911 326.45C223.021 326.67 224.231 326.52 225.381 326.45C227.071 326.34 227.351 325.43 226.401 324.18C223.161 319.91 224.311 316.54 228.251 313.42C235.411 307.77 242.471 302 249.511 296.2C250.211 295.62 251.461 294.96 251.861 294.25C251.861 294.22 251.851 294.19 251.841 294.15C251.741 293.82 251.651 293.48 251.581 293.14C251.211 292.83 250.581 292.52 249.541 292.21C248.411 291.87 248.621 290.31 248.941 289.57C250.101 286.88 248.781 284.79 247.631 282.62C247.551 282.46 247.501 282.32 247.481 282.19C245.441 276.46 246.661 273.82 252.771 270.5C252.751 226.28 252.721 182.05 252.701 137.83C208.231 137.83 163.751 137.88 119.281 137.73C115.871 137.72 115.201 138.4 115.201 141.82C115.321 226.26 115.301 310.71 115.301 395.16C115.791 395.16 116.281 395.16 116.771 395.16C127.531 395.3 134.911 390.85 136.761 379.4C137.701 379.94 138.051 380.01 138.101 380.18C141.211 390.57 147.621 396.49 159.971 395.32C149.501 401.83 146.931 410.21 152.031 421.07C151.591 421.12 151.141 421.17 150.701 421.22C147.721 419.69 144.581 418.4 141.791 416.56C138.751 414.55 136.201 414.73 133.221 416.67C130.511 418.44 127.461 419.7 124.401 421.26C123.881 418.31 124.461 415.86 125.221 413.53C126.931 408.35 125.701 404.32 121.161 401.23C119.021 399.77 117.821 397.18 115.291 396.15C115.291 460.32 115.321 524.48 115.191 588.64C115.191 592.06 115.861 592.73 119.271 592.72C211.041 592.6 302.811 592.6 394.581 592.72C398.311 592.72 399.161 591.88 399.151 588.14C399.041 439.53 399.061 290.92 399.061 142.31C399.061 141.65 398.951 140.96 399.081 140.32H399.051ZM137.791 365.44C138.681 365.57 139.101 366.27 139.121 366.46C139.141 368.21 138.321 368.69 137.581 368.71C136.791 368.73 136.041 368.17 136.041 367.17C136.041 366.04 136.561 365.27 137.781 365.44H137.791ZM136.061 358.59C136.151 357.64 136.721 357.11 137.731 357.25C138.691 357.38 139.171 357.94 139.121 358.93C138.991 359.93 138.331 360.31 137.411 360.26C136.391 360.2 135.981 359.52 136.071 358.59H136.061ZM137.321 352.08C136.371 351.99 136.021 351.26 136.041 350.35C136.071 349.34 136.781 349.02 137.601 348.79C138.361 349.07 139.171 349.33 139.141 350.36C139.111 351.52 138.471 352.18 137.321 352.08ZM137.571 332.27C138.501 332.3 139.081 332.81 139.151 333.79C139.081 334.77 138.511 335.28 137.571 335.32C136.571 335.36 136.031 334.72 136.031 333.8C136.031 332.88 136.581 332.24 137.571 332.27ZM137.361 323.92C138.451 323.83 139.201 324.43 139.131 325.63C139.081 326.57 138.411 327 137.561 327.21C136.651 327.08 136.111 326.56 136.041 325.64C135.971 324.69 136.471 324 137.361 323.92ZM137.581 318.78C136.761 318.8 136.021 318.26 136.031 317.24C136.041 316.08 136.561 315.33 137.811 315.51C138.731 315.64 139.161 316.33 139.171 317.25C139.181 318.33 138.361 318.77 137.581 318.79V318.78ZM137.581 302.22C136.701 302.26 136.081 301.62 136.051 300.69C136.011 299.54 136.631 298.81 137.791 298.96C138.621 299.07 139.221 299.68 139.151 300.66C139.061 301.62 138.401 302.18 137.581 302.22ZM137.731 310.36C136.721 310.5 136.161 309.97 136.061 309.02C135.971 308.09 136.381 307.41 137.401 307.35C138.321 307.3 138.981 307.68 139.091 308.47C139.171 309.67 138.681 310.23 137.731 310.36ZM137.351 293.75C136.421 293.67 135.961 292.98 136.031 292.02C136.101 291.07 136.651 290.57 137.571 290.46C138.441 290.64 139.091 291.09 139.151 292.04C139.221 293.29 138.461 293.84 137.351 293.74V293.75ZM137.731 235.51C136.701 235.66 136.191 235.07 136.071 234.14C135.951 233.17 136.431 232.59 137.411 232.45C138.321 232.48 139.051 232.77 139.111 233.81C139.171 234.77 138.691 235.38 137.721 235.52L137.731 235.51ZM139.111 242.5C139.061 243.52 138.261 243.69 137.461 243.82C136.561 243.67 135.991 243.16 136.051 242.23C136.101 241.4 136.491 240.64 137.461 240.64C138.611 240.64 139.161 241.38 139.111 242.5ZM137.591 227.33C136.741 227.37 136.081 226.72 136.061 225.78C136.041 224.65 136.621 223.86 137.801 224.03C138.621 224.15 139.231 224.77 139.161 225.76C139.091 226.74 138.381 227.3 137.591 227.34V227.33ZM137.701 207.49C138.551 207.57 139.161 208.03 139.151 209.03C139.051 209.89 138.591 210.49 137.681 210.56C136.411 210.67 136.041 209.83 136.081 208.77C136.131 207.81 136.811 207.4 137.701 207.49ZM136.081 200.55C136.081 199.59 136.811 198.98 137.591 199.01C138.331 199.04 139.091 199.56 139.141 200.56C139.181 201.51 138.611 202.14 137.801 202.26C136.631 202.44 136.091 201.66 136.091 200.55H136.081ZM137.811 193.84C136.961 193.86 136.221 193.66 136.101 192.67C135.981 191.59 136.371 190.75 137.571 190.74C138.441 190.74 139.001 191.32 139.121 192.22C139.251 193.21 138.681 193.65 137.811 193.84ZM137.581 168.9C136.711 168.95 136.071 168.41 136.061 167.47C136.051 166.63 136.351 165.93 137.331 165.79C138.191 165.79 138.871 166.07 139.071 167.02C139.331 168.24 138.651 168.83 137.581 168.9ZM139.121 175.82C139.121 176.79 138.321 177.11 137.591 177.43C136.801 177.17 136.121 176.79 136.071 175.83C136.021 174.9 136.501 174.18 137.361 174.1C138.441 174 139.141 174.67 139.121 175.82ZM137.351 182.55C138.161 182.49 138.961 182.68 139.091 183.69C139.231 184.82 138.671 185.55 137.561 185.64C136.621 185.72 136.191 185.04 136.051 184.18C135.991 183.25 136.421 182.63 137.351 182.56V182.55ZM139.091 159.32C138.931 160.21 138.371 160.69 136.951 160.65C136.461 160.61 136.101 159.9 136.051 159.08C136.001 158.15 136.601 157.56 137.481 157.56C138.541 157.56 139.311 158.07 139.091 159.32ZM137.461 215.69C138.621 215.69 139.161 216.42 139.111 217.54C139.061 218.56 138.261 218.73 137.461 218.85C136.551 218.71 135.991 218.18 136.041 217.27C136.091 216.44 136.481 215.69 137.461 215.69ZM136.041 283.89C136.021 282.95 136.601 282.33 137.571 282.36C138.491 282.39 139.161 282.89 139.131 283.88C139.101 284.81 138.561 285.39 137.551 285.41C136.541 285.41 136.051 284.78 136.041 283.88V283.89ZM137.331 277.21C136.411 277.12 136.001 276.38 136.051 275.45C136.101 274.47 136.781 274.08 137.631 273.85C138.341 274.17 139.161 274.46 139.141 275.47C139.121 276.64 138.451 277.31 137.321 277.21H137.331ZM137.291 252.28C136.471 252.01 136.011 251.43 136.051 250.49C136.101 249.51 136.831 248.86 137.591 248.93C138.591 249.02 139.431 249.78 139.131 250.98C138.931 251.79 138.291 252.33 137.291 252.28ZM139.111 258.53C139.161 259.73 138.701 260.32 137.741 260.46C136.721 260.61 136.181 260.04 136.081 259.11C135.971 258.16 136.421 257.5 137.421 257.44C138.331 257.38 139.001 257.76 139.121 258.54L139.111 258.53ZM137.811 140.89C138.741 141.02 139.121 141.65 139.131 142.55C139.091 143.55 138.391 143.91 137.571 143.94C136.681 143.97 136.061 143.44 136.061 142.51C136.061 141.41 136.591 140.71 137.811 140.89ZM136.071 150.39C136.241 149.57 136.821 148.88 137.791 149.11C138.631 149.31 139.191 149.88 139.161 150.85C139.121 151.86 138.331 152.46 137.611 152.43C136.541 152.4 135.841 151.55 136.081 150.39H136.071ZM139.171 375.55C139.071 376.51 138.441 377.11 137.591 377.11C136.371 377.11 135.901 376.2 136.071 375.09C136.211 374.17 136.901 373.69 137.821 373.84C138.711 373.99 139.261 374.55 139.171 375.54V375.55ZM137.591 343.73C136.811 343.78 136.081 343.21 136.051 342.2C136.021 341.28 136.431 340.68 137.231 340.45C138.291 340.36 138.911 340.91 139.121 341.73C139.431 342.93 138.621 343.66 137.591 343.73ZM137.811 268.72C136.971 268.85 136.211 268.52 136.101 267.54C135.971 266.46 136.371 265.58 137.571 265.57C138.421 265.57 138.991 266.18 139.331 268.41C139.281 268.1 138.661 268.58 137.821 268.71L137.811 268.72ZM211.921 192.47C211.161 192.22 210.711 191.65 210.741 190.72C210.781 189.72 211.521 189.12 212.281 189.17C213.301 189.25 214.111 190 213.811 191.2C213.611 192.02 213.001 192.58 211.911 192.47H211.921ZM212.441 200.64C211.441 200.76 210.861 200.26 210.771 199.3C210.681 198.37 211.101 197.7 212.111 197.63C213.041 197.57 213.681 197.96 213.791 198.72C213.871 199.95 213.411 200.52 212.441 200.64ZM212.501 167.48C211.301 167.66 210.761 166.89 210.761 165.75C210.761 164.76 211.511 164.17 212.291 164.19C213.031 164.21 213.841 164.71 213.841 164.9C213.881 166.69 213.361 167.35 212.511 167.47L212.501 167.48ZM213.811 174.01C213.881 174.97 213.411 175.57 212.441 175.69C211.431 175.82 210.881 175.29 210.781 174.34C210.681 173.39 211.131 172.78 212.121 172.67C213.051 172.67 213.741 172.99 213.811 174.02V174.01ZM212.521 180.83C213.481 180.95 213.811 181.69 213.811 181.71C213.891 183.65 213.071 184.08 212.301 184.09C211.491 184.11 210.741 183.59 210.751 182.56C210.761 181.41 211.281 180.67 212.521 180.82V180.83ZM212.521 139.29C213.341 139.4 213.931 140.05 213.851 141.02C213.761 141.99 213.081 142.56 212.281 142.58C211.431 142.6 210.781 141.96 210.761 141.01C210.741 139.87 211.381 139.13 212.521 139.28V139.29ZM213.821 149.04C213.861 150.01 213.411 150.61 212.441 150.74C211.431 150.88 210.891 150.33 210.781 149.38C210.671 148.42 211.131 147.77 212.121 147.71C213.031 147.65 213.711 148.02 213.821 149.04ZM212.321 155.81C213.171 155.97 213.801 156.42 213.851 157.38C213.921 158.62 213.181 159.18 212.061 159.07C211.141 158.98 210.671 158.31 210.741 157.35C210.811 156.4 211.361 155.9 212.321 155.81ZM212.291 205.7C213.151 205.9 213.811 206.34 213.861 207.3C213.921 208.53 213.181 209.12 212.071 209.01C211.161 208.92 210.681 208.23 210.751 207.27C210.821 206.31 211.391 205.83 212.301 205.69L212.291 205.7ZM212.291 230.68C213.121 230.91 213.791 231.33 213.831 232.27C213.881 233.47 213.151 234.07 212.061 233.97C211.181 233.88 210.681 233.19 210.751 232.25C210.821 231.31 211.401 230.83 212.291 230.68ZM212.111 222.59C213.041 222.53 213.681 222.93 213.811 223.92C213.881 224.92 213.401 225.47 212.441 225.59C211.451 225.71 210.851 225.21 210.771 224.25C210.691 223.33 211.091 222.65 212.111 222.58V222.59ZM212.271 217.47C211.401 217.49 210.831 216.87 210.751 215.92C210.711 214.97 211.211 214.29 212.081 214.21C213.171 214.11 213.891 214.73 213.831 215.93C213.781 216.88 213.111 217.45 212.271 217.47ZM212.291 239.11C213.361 239.17 214.131 239.92 213.831 241.13C213.621 241.97 213.021 242.53 211.791 242.38C211.111 242.2 210.711 241.59 210.731 240.65C210.751 239.63 211.491 239.06 212.291 239.1V239.11ZM212.451 250.55C211.451 250.65 210.861 250.17 210.781 249.21C210.701 248.29 211.091 247.6 212.121 247.54C213.061 247.48 213.711 247.89 213.811 248.89C213.921 249.88 213.401 250.41 212.451 250.55ZM203.001 285.57C205.581 278.16 204.571 272.26 196.631 267.98C199.151 267.36 200.371 266.76 201.541 266.83C207.961 267.23 210.131 263.32 210.801 257.87C210.931 256.78 211.111 255.8 212.341 255.8C212.801 255.8 213.641 256.55 213.671 257C214.161 265.1 219.591 267.09 226.381 267.47C226.621 267.48 226.851 267.77 227.601 268.27C220.951 272.27 218.881 277.91 221.981 285.61C215.491 280.22 209.401 280.57 203.011 285.57H203.001ZM311.751 512.89C312.611 512.89 313.191 513.48 313.321 514.2C313.481 515.39 312.861 515.84 312.011 515.98C311.141 516.12 310.401 515.8 310.281 514.82C310.151 513.75 310.531 512.88 311.751 512.89ZM310.281 505.87C310.401 504.9 311.131 504.58 312.011 504.72C312.871 504.85 313.481 505.31 313.311 506.52C313.191 507.22 312.611 507.79 311.751 507.79C310.531 507.8 310.151 506.94 310.281 505.87ZM311.781 499.56C310.611 499.56 310.021 498.62 310.231 497.5C310.381 496.67 310.971 495.95 311.981 496.2C312.831 496.41 313.391 497.01 313.411 497.57C313.311 498.97 312.551 499.56 311.771 499.56H311.781ZM311.861 241.49C310.581 241.62 310.191 240.77 310.251 239.72C310.301 238.79 310.951 238.32 311.881 238.43C312.741 238.53 313.351 238.97 313.371 239.95C313.241 240.81 312.751 241.39 311.861 241.49ZM313.331 248.39C313.221 249.42 312.471 249.75 311.611 249.71C310.651 249.66 310.131 249.02 310.281 248.04C310.411 247.16 310.841 246.44 311.901 246.65C312.811 246.83 313.311 247.42 313.331 248.39ZM311.571 254.9C312.471 254.93 313.181 255.38 313.351 256.23C313.591 257.42 312.771 258.15 311.741 258.25C310.871 258.34 310.281 257.61 310.221 256.68C310.161 255.74 310.691 255.17 311.561 254.9H311.571ZM311.661 263.38C312.741 263.4 313.491 263.91 313.311 265.13C313.171 266.05 312.511 266.42 311.621 266.44C310.601 266.42 310.241 265.68 310.221 264.89C310.201 264.04 310.711 263.36 311.661 263.38ZM313.321 273.35C313.271 274.41 312.441 274.58 311.651 274.71C310.651 274.52 310.121 273.96 310.281 272.99C310.421 272.11 310.861 271.4 311.921 271.61C312.831 271.79 313.361 272.41 313.321 273.36V273.35ZM311.801 279.87C312.541 279.87 313.351 280.41 313.391 282.18C313.391 282.39 312.821 282.95 311.981 283.16C310.971 283.42 310.401 282.7 310.251 281.89C310.041 280.76 310.691 279.87 311.811 279.86L311.801 279.87ZM311.741 296.49C312.831 296.59 313.521 297.33 313.341 298.48C313.201 299.4 312.441 299.71 311.561 299.72C310.631 299.52 310.171 298.92 310.231 298C310.291 297.1 310.811 296.4 311.741 296.49ZM310.211 289.86C310.171 289.03 310.681 288.34 311.651 288.34C312.501 288.34 313.181 288.66 313.341 289.62C313.351 290.5 313.041 291.14 312.111 291.34C310.891 291.6 310.271 290.92 310.221 289.86H310.211ZM311.801 304.85C312.531 304.85 313.361 305.37 313.371 307.54C313.371 307.36 312.821 307.92 311.971 308.13C310.961 308.38 310.391 307.67 310.241 306.86C310.031 305.73 310.701 304.85 311.811 304.85H311.801ZM310.221 481.24C310.171 480.35 310.751 479.69 311.671 479.71C312.721 479.73 313.541 480.2 313.301 481.47C313.131 482.36 312.541 482.83 310.501 482.79C310.591 482.79 310.261 482.03 310.211 481.24H310.221ZM311.861 487.95C312.741 488.05 313.271 488.61 313.361 489.82C313.361 490.51 312.711 490.93 311.871 491.03C310.961 491.14 310.291 490.67 310.251 489.73C310.201 488.69 310.561 487.8 311.861 487.95ZM311.791 474.57C310.661 474.57 310.041 473.65 310.251 472.53C310.401 471.72 310.971 470.99 311.981 471.25C312.811 471.46 313.401 472.02 313.401 472.51C313.321 473.99 312.541 474.57 311.801 474.57H311.791ZM311.631 438.04C312.521 438.06 313.171 438.45 313.311 439.37C313.491 440.6 312.731 441.1 311.651 441.11C310.701 441.12 310.181 440.44 310.211 439.59C310.241 438.8 310.621 438.06 311.631 438.04ZM311.601 429.82C312.451 429.78 313.211 430.1 313.321 431C313.321 432.09 312.811 432.7 311.911 432.88C310.851 433.09 310.421 432.38 310.281 431.5C310.131 430.52 310.641 429.87 311.601 429.82ZM310.261 464.32C310.391 463.49 310.791 462.78 311.371 462.93C312.761 463.13 313.351 463.69 313.351 464.56C313.351 465.77 312.491 466.16 311.421 466.04C310.441 465.93 310.131 465.18 310.261 464.33V464.32ZM311.621 454.76C312.471 454.86 313.281 455.06 313.321 456.12C313.351 457.07 312.821 457.67 311.901 457.84C310.831 458.04 310.411 457.32 310.281 456.45C310.131 455.47 310.661 454.92 311.621 454.76ZM311.801 449.67C310.961 449.44 310.291 449.02 310.231 448.05C310.181 447.13 310.581 446.36 311.521 446.29C312.631 446.21 313.371 446.84 313.371 448.03C313.371 449.03 312.551 449.34 311.801 449.67ZM311.521 413.13C312.631 413.08 313.361 413.59 313.341 414.77C313.321 415.74 312.601 416.13 311.761 416.17C310.841 416.22 310.331 415.66 310.201 414.67C310.291 413.94 310.501 413.17 311.511 413.13H311.521ZM310.271 406.23C310.311 405.25 310.981 404.74 311.921 404.88C312.781 405.01 313.501 405.46 313.301 406.53C313.121 407.45 312.531 407.94 311.581 407.99C310.561 407.85 310.241 407.1 310.271 406.24V406.23ZM312.001 399.61C311.061 399.82 310.421 399.21 310.261 398.35C310.051 397.24 310.581 396.33 311.761 396.33C312.571 396.33 313.241 396.94 313.391 397.88C313.461 398.88 312.841 399.43 312.011 399.62L312.001 399.61ZM311.501 383.03C310.531 382.96 310.201 382.2 310.231 381.3C310.261 380.3 310.941 379.94 311.801 379.77C312.581 380.02 313.401 380.26 313.361 381.31C313.321 382.47 312.641 383.11 311.511 383.03H311.501ZM313.351 389.69C313.321 390.88 312.481 391.29 311.401 391.17C310.401 391.06 310.141 390.29 310.241 389.46C310.351 388.59 310.861 388.03 311.501 388.12C312.751 388.27 313.361 388.8 313.341 389.68L313.351 389.69ZM310.221 364.62C310.281 363.77 310.791 363.12 311.751 363.21C312.841 363.31 313.491 363.9 313.291 365.09C313.121 366.09 312.321 366.19 311.621 366.27C310.541 366.15 310.161 365.47 310.221 364.63V364.62ZM311.781 374.66C310.961 374.7 310.231 374.12 310.231 373.13C310.231 372.01 310.731 371.21 311.981 371.41C312.841 371.55 313.371 372.18 313.371 372.23C313.371 374.17 312.551 374.62 311.791 374.65L311.781 374.66ZM311.501 358.07C310.541 358 310.191 357.23 310.231 356.33C310.271 355.35 310.931 354.94 311.841 354.78C312.571 355.05 313.401 355.31 313.361 356.34C313.321 357.51 312.631 358.16 311.501 358.07ZM310.221 347.92C310.291 347.01 310.821 346.47 311.751 346.37C312.571 346.6 313.281 347.02 313.351 347.94C313.431 349.16 312.631 349.71 311.551 349.63C310.631 349.56 310.161 348.84 310.221 347.92ZM311.341 341.35C310.891 341.41 310.351 340.88 310.241 340C310.141 339.17 310.401 338.41 311.401 338.29C312.491 338.16 313.311 338.61 313.351 339.77C313.381 340.66 312.761 341.17 311.341 341.34V341.35ZM310.201 314.86C310.251 314.09 310.531 313.38 311.521 313.33C312.351 313.29 313.121 313.5 313.291 314.48C313.491 315.66 312.841 316.27 311.751 316.36C310.801 316.44 310.361 315.82 310.211 314.87L310.201 314.86ZM311.951 321.5C312.821 321.64 313.331 322.27 313.351 323.19C313.361 324.27 312.551 324.67 311.781 324.71C310.941 324.75 310.231 324.21 310.221 323.22C310.221 322.09 310.711 321.31 311.951 321.5ZM310.221 422.6C310.381 421.8 310.951 421.08 311.961 421.32C312.821 421.53 313.311 422.14 313.371 422.56C313.331 424.08 312.521 424.64 311.791 424.63C310.681 424.62 310.011 423.73 310.231 422.6H310.221ZM311.951 333.09C310.711 333.28 310.201 332.48 310.221 331.36C310.231 330.38 310.971 329.79 311.781 329.84C312.521 329.89 313.401 330.29 313.421 330.02C313.351 332.33 312.811 332.96 311.951 333.09ZM311.731 233.3C310.581 233.28 310.011 232.36 310.241 231.25C310.411 230.42 311.031 229.75 311.991 230C312.811 230.21 313.401 230.79 313.391 231.54C313.231 232.72 312.521 233.32 311.731 233.31V233.3ZM311.731 216.57C310.761 216.67 310.381 215.95 310.201 215.12C310.201 214.22 310.571 213.55 311.521 213.5C312.331 213.45 313.151 213.64 313.291 214.64C313.451 215.79 312.821 216.46 311.731 216.58V216.57ZM313.291 223.79C312.951 224.62 312.231 224.91 311.401 224.74C310.151 224.49 310.011 223.57 310.371 222.55C310.701 221.62 311.461 221.45 312.301 221.8C313.131 222.15 313.441 222.85 313.281 223.78L313.291 223.79ZM311.621 208.34C310.751 208.36 310.211 207.64 310.191 206.76C310.161 205.66 310.731 204.87 311.861 204.97C312.631 205.04 313.301 205.6 313.391 206.73C313.371 207.7 312.651 208.33 311.631 208.35L311.621 208.34ZM312.081 191.55C310.821 191.86 310.281 191.08 310.191 190.05C310.121 189.18 310.681 188.54 311.621 188.51C312.471 188.48 313.091 188.9 313.331 189.46C313.301 190.65 313.001 191.33 312.081 191.55ZM311.981 199.79C311.111 199.92 310.371 199.61 310.251 198.64C310.121 197.57 310.501 196.7 311.721 196.72C312.581 196.72 313.161 197.3 313.291 198.04C313.441 199.2 312.831 199.66 311.971 199.79H311.981ZM311.521 138.59C312.321 138.54 313.161 138.73 313.291 139.75C313.441 140.91 312.801 141.61 311.711 141.72C310.751 141.82 310.351 141.08 310.191 140.12C310.141 139.28 310.591 138.64 311.511 138.58L311.521 138.59ZM311.611 146.82C312.501 146.84 313.151 147.23 313.291 148.15C313.481 149.39 312.711 149.88 311.631 149.89C310.681 149.9 310.161 149.22 310.191 148.37C310.221 147.58 310.601 146.84 311.611 146.82ZM310.221 156.35C310.371 155.55 310.961 154.82 311.961 155.08C312.791 155.3 313.381 155.85 313.381 156.33C313.291 157.82 312.511 158.4 311.761 158.39C310.631 158.39 310.011 157.46 310.221 156.35ZM311.951 171.81C312.841 171.96 313.321 172.53 313.301 174.05C313.281 174.45 312.561 174.82 311.751 174.87C310.851 174.92 310.201 174.36 310.211 173.45C310.211 172.4 310.681 171.59 311.951 171.81ZM310.251 164.73C310.361 163.74 311.111 163.43 311.981 163.57C312.831 163.7 313.471 164.14 313.201 165.87C313.161 166.08 312.591 166.67 311.721 166.68C310.491 166.69 310.131 165.8 310.251 164.74V164.73ZM311.731 179.96C312.521 179.96 313.261 180.56 313.371 181.55C313.431 182.55 312.801 183.11 311.971 183.33C310.981 183.59 310.361 182.89 310.211 182.05C310.001 180.93 310.561 179.98 311.731 179.97V179.96ZM311.731 521.12C312.501 521.11 313.271 521.7 313.381 523.06C313.401 523.69 312.791 524.26 311.961 524.48C310.961 524.74 310.361 524.03 310.201 523.2C309.981 522.07 310.581 521.13 311.731 521.12ZM312.001 557.64C310.841 557.81 310.351 557.23 310.231 556.36C310.111 555.51 310.401 554.76 311.391 554.65C312.461 554.53 313.321 554.92 313.331 556.12C313.331 556.98 312.771 557.57 312.011 557.64H312.001ZM313.291 564.71C313.191 565.61 312.431 565.93 311.581 565.89C310.621 565.84 310.101 565.2 310.251 564.22C310.391 563.34 310.811 562.63 311.881 562.83C312.791 563.01 313.291 563.61 313.301 564.71H313.291ZM311.701 549.49C310.821 549.58 310.241 548.84 310.181 547.91C310.121 546.97 310.641 546.39 311.521 546.11C312.431 546.14 313.131 546.61 313.311 547.46C313.561 548.65 312.741 549.39 311.701 549.49ZM311.711 532.74C310.491 532.76 310.091 531.91 310.231 530.84C310.351 529.87 311.071 529.55 311.951 529.69C312.821 529.82 313.411 530.28 313.281 531.44C313.161 532.19 312.581 532.73 311.711 532.75V532.74ZM311.891 540.92C310.941 541.06 310.261 540.58 310.221 539.59C310.191 538.74 310.471 537.92 311.531 537.87C312.471 537.83 313.041 538.37 313.191 538.98C313.461 540.37 312.751 540.79 311.891 540.91V540.92ZM319.381 592.26C313.981 588.52 309.931 587.31 305.401 591.19C306.251 586.2 306.101 581.92 301.181 578.93C305.911 578.12 310.041 577.33 310.661 571.73C310.781 570.66 312.761 570.71 312.841 571.77C313.251 577.61 317.711 577.95 323.281 578.62C317.961 581.95 316.261 585.8 319.381 592.27V592.26Z" fill="#F3F3F2"/>
<path d="M126.411 412.71C126.261 413.7 126.061 414.67 125.891 415.65C125.371 418.67 126.611 418.87 128.851 417.51C129.701 416.99 130.631 416.6 131.451 416.06C135.461 413.41 139.341 413.09 143.361 416.18C144.891 417.36 146.741 418.22 149.071 418.74C149.981 414.27 146.991 410.2 148.301 406.01C149.601 401.88 153.881 400.12 156.951 395.63C146.531 396.49 140.371 392.07 137.741 382C134.231 394.17 126.231 397.4 115.251 395.14V396.14C122.571 398.21 127.491 405.52 126.401 412.71H126.411Z" fill="#F3F3F2" fill-opacity="0.4"/>
<path d="M121.131 401.22C125.671 404.31 126.901 408.34 125.191 413.52C124.421 415.85 123.851 418.29 124.371 421.25C127.431 419.69 130.481 418.44 133.191 416.66C136.171 414.72 138.711 414.54 141.761 416.55C144.541 418.38 147.681 419.68 150.671 421.21C151.111 421.16 151.561 421.11 152.001 421.06C146.901 410.2 149.471 401.82 159.941 395.31C147.581 396.47 141.181 390.56 138.071 380.17C138.021 380 137.671 379.93 136.731 379.39C134.881 390.84 127.501 395.29 116.741 395.15C116.251 395.15 115.761 395.15 115.271 395.15C126.241 397.4 134.241 394.17 137.761 382.01C140.391 392.08 146.551 396.5 156.971 395.64C153.911 400.13 149.621 401.89 148.321 406.02C147.011 410.21 150.001 414.28 149.091 418.75C146.751 418.24 144.911 417.37 143.381 416.19C139.361 413.1 135.481 413.42 131.471 416.07C130.651 416.62 129.721 417 128.871 417.52C126.631 418.88 125.391 418.68 125.911 415.66C126.081 414.68 126.281 413.7 126.431 412.72C127.521 405.53 122.601 398.22 115.281 396.15C117.811 397.18 119.011 399.77 121.151 401.23L121.131 401.22Z" fill="#414146"/>
<path d="M255.931 138.88C256.141 138.51 256.371 138.15 256.651 137.83H252.671C253.231 138.44 253.561 139.13 253.761 139.84C254.071 139.29 254.721 138.92 255.931 138.88Z" fill="#5E4F7B"/>
<path d="M253.681 264.87C253.741 224.53 253.701 184.18 253.791 143.84C253.791 142.66 253.151 140.91 253.761 139.84C253.561 139.13 253.241 138.44 252.671 137.83C252.691 182.05 252.721 226.28 252.741 270.5C254.531 268.88 253.681 266.75 253.681 264.87Z" fill="#5E4F7B"/>
<path d="M256.421 138.87C256.501 138.52 256.571 138.17 256.651 137.82C256.371 138.15 256.141 138.5 255.931 138.87C256.091 138.87 256.241 138.86 256.421 138.87Z" fill="#5E4F7B"/>
<path d="M360.201 137.82H357.211C357.861 140.14 358.361 142.45 358.661 144.76C358.631 142.39 358.881 140.05 360.201 137.82Z" fill="#24202B"/>
<path d="M364.691 166.29C364.441 165.92 364.141 165.56 363.771 165.19C363.711 165.15 363.661 165.1 363.601 165.06C363.901 165.53 364.161 166.08 364.351 166.75C364.461 166.6 364.581 166.44 364.691 166.29Z" fill="#24202B"/>
<path d="M361.731 163.39C359.551 161.01 358.671 158.13 358.621 154.93C358.281 157.13 357.721 159.33 356.891 161.52C356.581 161.83 356.231 162.09 355.861 162.33C355.971 162.42 356.091 162.5 356.201 162.59C358.141 162.66 360.141 162.61 361.721 163.39H361.731Z" fill="#24202B"/>
<path d="M358.661 144.76C359.111 148.15 359.141 151.54 358.621 154.93C358.671 158.13 359.551 161.01 361.731 163.39C362.461 163.74 363.091 164.28 363.601 165.07C363.661 165.11 363.711 165.16 363.771 165.2C364.141 165.57 364.441 165.93 364.691 166.3C364.891 166.03 365.091 165.76 365.291 165.49C359.441 160.78 359.821 154.28 360.151 147.75C360.321 144.45 360.191 141.14 360.201 137.84C358.881 140.07 358.631 142.41 358.661 144.78V144.76Z" fill="#24202B"/>
<path d="M356.851 157.06C356.821 158.94 356.741 160.6 354.891 161.6C355.211 161.84 355.541 162.09 355.861 162.33C356.231 162.09 356.581 161.84 356.891 161.52C357.731 159.33 358.291 157.13 358.621 154.93C358.611 154.05 358.651 153.14 358.751 152.21C359.021 149.76 358.681 147.24 358.651 144.76C358.341 142.45 357.851 140.14 357.201 137.82C356.341 144.22 356.951 150.64 356.841 157.05L356.851 157.06Z" fill="#24202B"/>
<path d="M358.661 144.76C358.691 147.24 359.031 149.76 358.761 152.21C358.661 153.14 358.611 154.04 358.631 154.93C359.151 151.55 359.121 148.16 358.671 144.76H358.661Z" fill="#24202B"/>
<path d="M356.472 174.56C355.792 174.88 354.942 174.88 354.412 175.47C354.542 175.89 354.611 176.33 354.551 176.84C354.301 178.15 353.752 179.59 354.502 180.74C356.882 184.38 354.812 186.53 352.222 188.72C346.132 193.86 339.911 198.84 333.641 203.76C330.571 206.18 329.061 208.88 330.541 212.81C331.881 216.39 329.961 217.56 326.731 217.95C320.211 218.74 319.442 220.23 322.502 226.17C323.542 228.2 323.752 230.27 323.752 232.44C323.772 258.2 323.761 283.96 323.771 309.71C323.771 312.45 322.981 314.84 321.771 317.3C319.701 321.5 320.692 323.76 325.032 325.08C327.182 325.74 328.641 326.91 329.071 329.01C329.831 332.74 332.472 334.45 335.592 335.92C341.902 338.88 348.351 341.53 354.481 344.86C357.051 346.25 359.431 345.98 362.081 344.86C369.571 341.68 376.732 337.8 384.122 334.42C386.292 333.43 387.611 331.99 387.771 329.56C387.951 326.86 389.321 325.26 392.101 325.03C395.611 324.74 396.081 322.19 395.521 319.62C391.651 301.85 394.442 283.87 393.752 266C393.362 255.88 393.691 245.73 393.671 235.59C393.671 231.93 393.851 228.37 395.041 224.79C396.621 220.03 395.421 218.53 390.511 217.98C385.451 217.41 384.932 216.9 386.132 212.15C387.082 208.37 385.831 205.8 382.931 203.49C376.961 198.73 370.952 194.02 365.092 189.12C362.172 186.68 359.351 184.41 362.111 180.07C362.721 179.12 362.041 177.79 361.891 176.65C361.851 176.2 361.952 175.82 362.122 175.49C361.802 175.19 361.491 174.88 361.171 174.58C359.611 174.58 358.051 174.58 356.491 174.58L356.472 174.56ZM348.481 303.64C342.681 303.51 336.881 303.46 331.081 303.66C328.411 303.75 328.211 302.5 328.231 300.38C328.311 291.75 328.261 283.12 328.261 274.49C328.261 266.19 328.212 257.89 328.282 249.59C328.342 242.52 332.881 237.65 339.391 237.52C345.831 237.39 351.051 242.11 351.141 249.06C351.371 266.32 351.201 283.58 351.291 300.84C351.301 303.01 350.651 303.69 348.481 303.64ZM366.312 249.07C366.392 242.19 371.611 237.4 378.041 237.52C384.531 237.64 389.101 242.48 389.171 249.57C389.261 257.86 389.192 266.16 389.192 274.45C389.192 283.08 389.092 291.7 389.252 300.33C389.302 302.96 388.531 303.75 385.921 303.66C380.301 303.47 374.662 303.53 369.032 303.64C366.912 303.68 366.182 303.03 366.192 300.83C366.272 283.58 366.112 266.32 366.312 249.07Z" fill="black"/>
<path d="M361.871 176.64C362.021 177.78 362.691 179.1 362.091 180.06C359.341 184.4 362.151 186.67 365.071 189.11C370.941 194 376.941 198.71 382.911 203.48C385.811 205.79 387.061 208.37 386.111 212.14C384.911 216.89 385.431 217.41 390.491 217.97C395.411 218.52 396.601 220.02 395.021 224.78C393.831 228.35 393.641 231.92 393.651 235.58C393.671 245.72 393.331 255.87 393.731 265.99C394.421 283.86 391.631 301.83 395.501 319.61C396.061 322.18 395.591 324.73 392.081 325.02C389.301 325.25 387.941 326.85 387.751 329.55C387.591 331.98 386.271 333.41 384.101 334.41C376.711 337.79 369.551 341.66 362.061 344.85C359.421 345.97 357.031 346.25 354.461 344.85C348.331 341.52 341.871 338.87 335.571 335.91C332.451 334.44 329.811 332.73 329.051 329C328.621 326.9 327.161 325.73 325.011 325.07C320.671 323.75 319.681 321.49 321.751 317.29C322.961 314.84 323.751 312.44 323.751 309.7C323.751 283.94 323.751 258.18 323.731 232.43C323.731 230.27 323.521 228.19 322.481 226.16C319.421 220.22 320.191 218.73 326.711 217.94C329.941 217.55 331.871 216.37 330.521 212.8C329.041 208.87 330.551 206.16 333.621 203.75C339.881 198.83 346.111 193.85 352.201 188.71C354.791 186.52 356.861 184.37 354.481 180.73C353.731 179.58 354.281 178.13 354.531 176.83C354.591 176.32 354.531 175.88 354.391 175.46C354.291 175.57 354.191 175.7 354.121 175.86C351.711 177.66 351.441 181.23 353.121 182.09C358.061 184.63 353.661 185.7 352.601 186.6C345.361 192.68 338.041 198.67 330.571 204.47C327.161 207.12 327.461 211.05 329.081 213.27C331.971 217.21 329.731 216.65 327.151 216.65C325.991 216.65 324.811 216.78 323.671 216.62C320.541 216.19 319.841 217.35 319.281 220.57C318.551 224.8 322.251 227.07 322.251 230.73C322.201 257.65 322.231 284.57 322.211 311.49C322.211 313.2 321.931 314.51 320.361 316.08C318.261 318.17 319.231 321.83 319.791 324.63C320.241 326.87 322.951 325.91 324.551 325.76C328.111 325.42 327.891 328.05 327.791 329.93C327.631 332.95 328.961 334.25 331.531 335.42C339.651 339.1 347.681 343.01 355.681 346.94C357.631 347.9 359.251 347.87 361.191 346.92C369.361 342.93 377.561 339.02 385.811 335.21C387.971 334.21 389.451 333.13 389.011 330.46C388.451 327.04 389.421 325.03 393.421 325.81C396.131 326.34 396.711 325.11 397.201 322.36C397.971 318 394.811 314.87 394.831 310.8C394.971 284.38 394.891 257.96 394.921 231.53C394.921 230.08 394.861 228.42 395.501 227.2C399.281 219.95 397.641 216.72 389.921 216.62C389.091 216.61 388.261 216.66 387.431 216.59C385.611 216.42 385.811 215.26 386.451 214.16C389.691 208.55 389.411 206.95 384.501 203C377.911 197.69 371.321 192.39 364.801 186.99C363.211 185.67 359.571 184.66 363.891 181.72C364.961 180.99 365.141 177.33 362.481 175.85C362.341 175.72 362.211 175.59 362.071 175.46C361.901 175.79 361.801 176.17 361.841 176.62L361.871 176.64Z" fill="#1B1A1D"/>
<path d="M247.811 299.46C242.411 303.87 237.001 308.25 231.501 312.53C227.851 315.37 225.261 318.39 227.011 323.51C228.161 326.88 225.591 327.33 223.121 327.64C217.051 328.38 215.791 330.26 218.251 335.99C219.821 339.64 220.231 343.29 220.221 347.14C220.191 369.73 220.191 392.32 220.221 414.91C220.221 419.1 219.851 423.1 218.171 427.07C216.161 431.83 216.941 433.22 221.921 434.91C223.991 435.61 224.841 436.97 225.091 438.9C225.441 441.61 226.771 443.59 229.301 444.61C236.531 447.54 243.291 451.47 250.431 454.62C253.711 456.06 256.701 456.19 259.901 454.36C266.101 450.82 272.841 448.37 279.201 445.15C280.531 444.48 282.401 444.05 282.851 442.71C284.291 438.45 285.551 434.58 291.001 433.61C292.731 433.3 292.311 429.98 291.591 428.17C290.001 424.17 290.111 420.05 290.111 415.9C290.111 392.81 290.121 369.72 290.111 346.63C290.111 342.81 290.311 339.09 291.511 335.34C293.251 329.92 292.011 328.28 286.331 327.68C283.091 327.34 281.271 326.36 282.581 322.64C283.931 318.83 282.451 315.98 279.351 313.55C273.081 308.64 266.891 303.63 260.771 298.53C257.971 296.2 255.981 293.97 258.561 290.18C259.581 288.68 258.801 286.56 259.511 284.84C259.711 284.51 259.891 284.2 260.061 283.89C259.901 283.73 259.731 283.56 259.571 283.4C255.511 284.9 251.541 285.94 248.531 281.45C248.531 281.45 248.531 281.45 248.531 281.46C248.651 281.8 248.781 282.15 248.931 282.5C251.471 285.59 250.781 289.54 251.561 293.13C252.011 293.51 252.041 293.88 251.841 294.24C252.361 296.23 249.581 298.02 247.821 299.46H247.811ZM247.591 411.02C247.591 412.87 247.061 413.76 245.081 413.73C239.121 413.66 233.161 413.61 227.201 413.75C224.201 413.82 224.671 411.88 224.671 410.1C224.671 401.48 224.671 392.85 224.671 384.23C224.671 376.1 224.631 367.98 224.681 359.85C224.721 352.71 229.021 347.79 235.461 347.4C241.601 347.02 247.351 352.02 247.451 358.78C247.721 376.19 247.541 393.6 247.591 411.01V411.02ZM262.681 358.88C262.741 352.43 268.051 347.43 274.111 347.4C280.481 347.37 285.471 352.45 285.551 359.3C285.651 367.76 285.571 376.23 285.571 384.7C285.571 393.17 285.471 401.63 285.631 410.09C285.681 412.83 285.011 413.91 282.081 413.79C276.621 413.57 271.141 413.62 265.681 413.77C263.301 413.83 262.561 413.08 262.571 410.67C262.661 393.41 262.511 376.14 262.681 358.88Z" fill="black"/>
<path d="M259.511 284.85C258.791 286.57 259.571 288.69 258.561 290.19C255.991 293.98 257.981 296.21 260.771 298.54C266.891 303.64 273.081 308.65 279.351 313.56C282.451 315.98 283.921 318.83 282.581 322.65C281.271 326.37 283.091 327.35 286.331 327.69C292.011 328.29 293.251 329.93 291.511 335.35C290.311 339.09 290.111 342.81 290.111 346.64C290.121 369.73 290.121 392.82 290.111 415.91C290.111 420.06 290.001 424.18 291.591 428.18C292.311 429.99 292.731 433.31 291.001 433.62C285.551 434.6 284.291 438.46 282.851 442.72C282.401 444.05 280.521 444.49 279.201 445.16C272.841 448.38 266.101 450.84 259.901 454.37C256.701 456.2 253.711 456.07 250.431 454.63C243.291 451.49 236.531 447.56 229.301 444.62C226.771 443.6 225.451 441.61 225.091 438.91C224.841 436.98 223.991 435.62 221.921 434.92C216.941 433.23 216.161 431.84 218.171 427.08C219.851 423.12 220.231 419.11 220.221 414.92C220.181 392.33 220.191 369.74 220.221 347.15C220.221 343.3 219.811 339.64 218.251 336C215.791 330.27 217.051 328.39 223.121 327.65C225.591 327.35 228.161 326.89 227.011 323.52C225.261 318.4 227.851 315.38 231.501 312.54C237.001 308.26 242.411 303.87 247.811 299.47C249.571 298.03 252.351 296.24 251.831 294.25C251.441 294.96 250.181 295.63 249.481 296.2C242.451 302.01 235.381 307.77 228.221 313.42C224.271 316.54 223.131 319.9 226.371 324.18C227.321 325.43 227.041 326.34 225.351 326.45C224.191 326.52 222.991 326.67 221.881 326.45C216.531 325.38 215.751 327.98 215.741 332.71C215.741 336.5 218.781 338.71 218.721 342.65C218.351 368.39 218.551 394.14 218.491 419.89C218.491 422.06 218.641 424.12 216.731 426.22C214.731 428.42 215.631 431.98 216.231 434.74C216.721 436.98 219.431 435.98 221.001 435.79C224.271 435.4 224.201 437.63 224.061 439.47C223.801 442.88 225.491 444.42 228.341 445.71C236.161 449.25 243.911 452.96 251.611 456.77C253.911 457.91 255.801 457.86 258.081 456.73C265.921 452.83 273.801 449.03 281.771 445.42C284.291 444.28 286.021 443.11 285.451 440.02C284.791 436.43 286.541 435.28 289.861 435.89C293.141 436.5 293.231 434.69 293.701 432C294.441 427.79 291.181 424.92 291.201 420.98C291.351 394.57 291.271 368.16 291.311 341.75C291.311 339.91 291.481 338.31 292.851 336.44C294.651 334.01 294.131 330.15 293.131 327.36C292.421 325.39 289.251 326.79 287.201 326.52C286.391 326.41 285.541 326.52 284.721 326.49C282.201 326.4 282.311 325.88 283.601 323.71C285.471 320.57 285.961 317.07 282.311 314.21C275.661 308.99 269.001 303.76 262.701 298.12C261.131 296.71 254.361 295.82 260.461 291.23C261.111 290.74 261.171 288.04 260.051 286.58C259.231 285.51 260.541 285.23 260.671 284.53C260.461 284.32 260.261 284.11 260.051 283.91C259.871 284.22 259.701 284.52 259.501 284.86L259.511 284.85Z" fill="#1B1A1D"/>
<path d="M248.521 281.47C248.211 281.85 247.901 282.23 247.591 282.61C248.741 284.78 250.061 286.87 248.901 289.56C248.581 290.3 248.381 291.86 249.501 292.2C250.541 292.51 251.181 292.82 251.541 293.13C250.761 289.54 251.451 285.6 248.911 282.5C248.751 282.15 248.631 281.8 248.511 281.46L248.521 281.47Z" fill="#1B1A1D"/>
<path d="M247.601 282.62C247.541 282.47 247.501 282.33 247.451 282.19C247.481 282.32 247.521 282.46 247.601 282.62Z" fill="#1B1A1D"/>
<path d="M253.441 270.13C253.001 271.05 252.311 271.81 251.461 272.45C248.321 274.82 247.361 277.74 248.421 281.16C248.431 281.16 248.441 281.16 248.461 281.16C247.001 275.76 250.531 272.34 257.291 272.7C257.461 272.55 257.631 272.41 257.801 272.26C257.391 271.87 256.951 271.46 256.481 271.02C255.651 269.81 255.351 268.49 255.241 267.14C255.131 268.3 254.691 269.36 253.441 270.14V270.13Z" fill="#342D45"/>
<path d="M255.171 145.52C255.141 184.74 255.171 223.96 255.091 263.18C255.091 263.66 255.131 264.17 255.171 264.68C255.171 224.26 255.171 183.84 255.171 143.42C255.171 142.6 255.171 141.78 255.271 140.97C254.911 142.43 255.171 144.02 255.171 145.52Z" fill="#342D45"/>
<path d="M255.171 143.42C255.161 183.84 255.161 224.26 255.171 264.68C255.241 265.5 255.311 266.34 255.241 267.13C255.351 268.49 255.651 269.8 256.481 271.01C256.961 271.45 257.391 271.85 257.801 272.25C258.071 272.02 258.351 271.79 258.621 271.55C256.061 270.63 256.621 268.44 256.621 266.52C256.611 244.74 256.641 222.97 256.611 201.19C256.581 180.42 256.491 159.64 256.431 138.87C255.811 139.52 255.471 140.23 255.281 140.97C255.181 141.78 255.181 142.6 255.181 143.42H255.171Z" fill="#342D45"/>
<path d="M248.421 281.16C247.361 277.73 248.321 274.82 251.461 272.45C252.311 271.81 253.001 271.05 253.441 270.13C253.231 270.26 253.001 270.39 252.741 270.5C246.631 273.82 245.411 276.46 247.451 282.19C247.321 281.56 247.791 281.31 248.421 281.16Z" fill="#342D45"/>
<path d="M254.001 267.35C254.001 267.85 253.911 268.34 253.861 268.82C253.771 269.29 253.631 269.72 253.431 270.12C254.681 269.34 255.121 268.28 255.231 267.12C255.171 266.35 255.161 265.56 255.161 264.77V264.67C255.121 264.16 255.081 263.65 255.081 263.17C255.171 223.95 255.131 184.73 255.161 145.51C255.161 144 254.901 142.42 255.261 140.96C255.321 140.46 255.411 139.96 255.601 139.48C255.691 139.27 255.811 139.07 255.921 138.87C254.701 138.91 254.061 139.28 253.751 139.83C254.031 140.83 254.051 141.9 254.051 142.97C254.051 184.43 254.141 225.89 254.011 267.35H254.001Z" fill="#342D45"/>
<path d="M255.611 139.49C255.431 139.98 255.341 140.47 255.271 140.97C255.451 140.23 255.791 139.52 256.421 138.87C256.241 138.87 256.091 138.87 255.931 138.87C255.821 139.07 255.701 139.27 255.611 139.48V139.49Z" fill="#342D45"/>
<path d="M255.241 267.13C255.321 266.34 255.241 265.5 255.171 264.68V264.78C255.171 265.57 255.171 266.35 255.241 267.13Z" fill="#342D45"/>
<path d="M253.861 268.82C253.921 268.34 254.001 267.85 254.001 267.35C254.141 225.89 254.051 184.43 254.041 142.97C254.041 141.9 254.021 140.83 253.741 139.83C253.131 140.91 253.771 142.65 253.771 143.83C253.681 184.17 253.721 224.52 253.661 264.86C253.661 266.74 254.511 268.87 252.721 270.49C252.981 270.38 253.211 270.25 253.421 270.12C253.611 269.72 253.761 269.29 253.851 268.82H253.861Z" fill="#342D45"/>
<path d="M248.421 281.16C248.451 281.26 248.491 281.37 248.531 281.48C248.531 281.48 248.531 281.48 248.531 281.47C248.501 281.36 248.481 281.26 248.451 281.16C248.441 281.16 248.431 281.16 248.411 281.16H248.421Z" fill="#342D45"/>
<path d="M248.421 281.16C247.791 281.31 247.321 281.56 247.451 282.19C247.501 282.34 247.551 282.47 247.601 282.62C247.911 282.24 248.221 281.86 248.531 281.48C248.491 281.37 248.461 281.27 248.421 281.16Z" fill="#342D45"/>
<path d="M226.594 268.173C226.62 268.193 226.649 268.215 226.678 268.238C223.635 270.203 221.577 272.569 220.631 275.394C219.764 277.986 219.853 280.904 220.895 284.161C218.057 282.131 215.25 281.152 212.423 281.187C209.567 281.222 206.753 282.291 203.928 284.249C204.85 281.067 205.057 278.122 204.218 275.452C203.335 272.64 201.316 270.209 197.92 268.152C198.332 268.036 198.703 267.925 199.038 267.824C199.279 267.752 199.501 267.686 199.706 267.627C200.467 267.41 200.993 267.3 201.491 267.329C204.815 267.536 207.127 266.626 208.682 264.876C210.211 263.154 210.938 260.691 211.278 257.933C211.35 257.368 211.421 256.953 211.579 256.671C211.65 256.545 211.731 256.461 211.829 256.405C211.929 256.348 212.081 256.3 212.321 256.3C212.321 256.3 212.321 256.3 212.323 256.301C212.332 256.302 212.384 256.312 212.482 256.365C212.585 256.42 212.702 256.503 212.814 256.603C212.925 256.704 213.018 256.809 213.081 256.903C213.142 256.993 213.152 257.037 213.153 257.037C213.153 257.037 213.153 257.037 213.153 257.037C213.406 261.206 214.944 263.88 217.361 265.539C219.739 267.171 222.899 267.77 226.308 267.968C226.324 267.977 226.374 268.007 226.48 268.086C226.514 268.112 226.552 268.141 226.594 268.173Z" fill="#F3F3F2" fill-opacity="0.4" stroke="black"/>
<path d="M312.383 571.813L312.383 571.813C312.493 573.335 312.868 574.537 313.488 575.487C314.11 576.442 314.957 577.107 315.953 577.588C317.586 578.375 319.676 578.684 321.92 578.956C319.827 580.454 318.37 582.114 317.727 584.119C317.095 586.089 317.275 588.312 318.284 590.914C316.126 589.55 314.124 588.629 312.168 588.382C310.097 588.12 308.127 588.618 306.127 590.03C306.405 587.973 306.457 586.003 305.979 584.192C305.482 582.312 304.422 580.637 302.528 579.218C304.441 578.869 306.275 578.437 307.756 577.567C309.603 576.483 310.872 574.741 311.198 571.795L310.701 571.74L311.198 571.796C311.209 571.7 311.255 571.628 311.35 571.569C311.456 571.502 311.617 571.457 311.799 571.461C311.982 571.465 312.141 571.516 312.244 571.587C312.336 571.651 312.377 571.722 312.383 571.813Z" fill="#F3F3F2" fill-opacity="0.4" stroke="black"/>
<path d="M259.841 282.95C260.061 283.04 260.261 283.15 260.411 283.27C262.971 278.65 262.681 276.98 258.311 272.74C258.181 272.87 258.011 272.99 257.831 273.09C261.251 275.78 262.081 279.03 259.831 282.94L259.841 282.95Z" fill="#502464"/>
<path d="M258.321 272.75C262.691 276.99 262.981 278.66 260.421 283.28C260.751 283.55 260.911 283.93 260.691 284.53C264.911 279.22 264.321 275.49 258.621 271.55C258.771 272.09 258.621 272.46 258.321 272.75Z" fill="#502464"/>
<path d="M259.571 283.41C259.731 283.57 259.901 283.74 260.061 283.9C260.181 283.68 260.301 283.48 260.411 283.27C260.251 283.14 260.051 283.04 259.841 282.95C259.751 283.1 259.671 283.25 259.571 283.41Z" fill="#502464"/>
<path d="M260.411 283.28C260.301 283.48 260.181 283.69 260.061 283.91C260.271 284.12 260.471 284.33 260.681 284.53C260.901 283.93 260.751 283.55 260.411 283.28Z" fill="#502464"/>
<path d="M257.841 273.1C258.021 272.99 258.191 272.88 258.321 272.75C258.151 272.58 257.981 272.42 257.801 272.25C257.631 272.4 257.461 272.54 257.291 272.69C257.481 272.83 257.661 272.97 257.841 273.11V273.1Z" fill="#502464"/>
<path d="M258.321 272.75C258.611 272.46 258.761 272.09 258.621 271.55C258.351 271.78 258.071 272.01 257.801 272.25C257.981 272.42 258.151 272.59 258.321 272.75Z" fill="#502464"/>
<path d="M364.431 166.98C365.601 170.32 364.381 172.68 361.511 174.37C361.821 174.6 362.071 174.88 362.251 175.22C362.671 174.57 363.361 174.08 363.801 173.45C365.381 171.21 366.201 169 364.991 166.78C364.831 166.86 364.641 166.94 364.451 167C364.451 167 364.441 167 364.431 166.99V166.98Z" fill="#1B1A1D"/>
<path d="M364.991 166.77C366.201 168.98 365.391 171.2 363.801 173.44C363.351 174.07 362.671 174.57 362.251 175.21C362.361 175.41 362.451 175.63 362.511 175.87C367.081 172.39 367.821 169.61 365.291 165.48C365.681 166.19 365.441 166.54 364.991 166.77Z" fill="#1B1A1D"/>
<path d="M364.431 166.98C364.431 166.98 364.441 166.98 364.451 166.99C364.641 166.92 364.831 166.85 364.991 166.77C364.901 166.61 364.801 166.45 364.691 166.29C364.581 166.44 364.461 166.6 364.351 166.75C364.381 166.83 364.401 166.9 364.431 166.98Z" fill="#1B1A1D"/>
<path d="M364.991 166.77C365.441 166.53 365.681 166.18 365.291 165.48C365.091 165.75 364.891 166.02 364.691 166.29C364.801 166.45 364.901 166.61 364.991 166.77Z" fill="#1B1A1D"/>
<path d="M361.511 174.37C361.391 174.44 361.281 174.51 361.151 174.58C361.471 174.88 361.781 175.19 362.101 175.49C362.151 175.4 362.191 175.3 362.251 175.22C362.071 174.88 361.821 174.6 361.511 174.37Z" fill="#1B1A1D"/>
<path d="M362.101 175.48C362.241 175.61 362.371 175.74 362.511 175.87C362.451 175.63 362.361 175.41 362.251 175.21C362.191 175.3 362.151 175.39 362.101 175.48Z" fill="#1B1A1D"/>
<path d="M353.211 164.66C353.151 164.61 353.101 164.56 353.041 164.51C351.281 166.67 351.051 169.05 352.161 171.63C352.171 171.66 352.191 171.69 352.201 171.72C352.261 171.72 352.311 171.7 352.371 171.7C351.991 169.28 352.011 166.9 353.211 164.67V164.66Z" fill="#3B344D"/>
<path d="M352.161 171.63C351.051 169.05 351.271 166.67 353.041 164.51C352.751 164.25 352.471 163.99 352.181 163.74C349.571 166.1 349.741 168.93 350.811 171.92C351.271 171.86 351.741 171.79 352.201 171.73C352.191 171.7 352.171 171.67 352.161 171.64V171.63Z" fill="#3B344D"/>
<path d="M137.801 315.5C136.561 315.32 136.041 316.08 136.021 317.23C136.011 318.25 136.751 318.8 137.571 318.77C138.341 318.75 139.171 318.32 139.161 317.23C139.161 316.31 138.721 315.62 137.801 315.49V315.5Z" fill="#4F2667"/>
<path d="M311.981 183.33C312.811 183.11 313.442 182.56 313.382 181.55C313.272 180.56 312.531 179.96 311.741 179.96C310.561 179.97 310.001 180.92 310.221 182.04C310.381 182.88 311.001 183.58 311.981 183.32V183.33Z" fill="#57445F"/>
<path d="M212.281 184.1C213.061 184.08 213.871 183.65 213.791 181.72C213.791 181.7 213.461 180.96 212.501 180.84C211.261 180.68 210.741 181.42 210.731 182.58C210.721 183.61 211.461 184.13 212.281 184.11V184.1Z" fill="#5A225C"/>
<path d="M212.041 209.02C213.161 209.13 213.901 208.53 213.831 207.31C213.781 206.35 213.131 205.91 212.261 205.71C211.351 205.85 210.781 206.33 210.711 207.29C210.641 208.25 211.131 208.94 212.031 209.03L212.041 209.02Z" fill="#48235F"/>
<path d="M212.041 159.08C213.161 159.18 213.901 158.63 213.831 157.39C213.781 156.43 213.151 155.98 212.301 155.82C211.341 155.91 210.791 156.41 210.721 157.36C210.651 158.31 211.111 158.99 212.041 159.08Z" fill="#411D4C"/>
<path d="M137.571 290.47C136.641 290.58 136.091 291.08 136.031 292.03C135.961 292.98 136.421 293.68 137.351 293.76C138.461 293.86 139.231 293.3 139.151 292.06C139.091 291.1 138.451 290.66 137.571 290.48V290.47Z" fill="#4C225A"/>
<path d="M211.781 242.39C213.011 242.54 213.611 241.97 213.821 241.14C214.121 239.93 213.341 239.18 212.281 239.12C211.491 239.08 210.751 239.64 210.721 240.67C210.701 241.6 211.101 242.21 211.781 242.4V242.39Z" fill="#48235F"/>
<path d="M355.161 173.99C354.151 173.41 353.311 172.59 352.461 171.78C352.411 171.85 352.381 171.92 352.331 171.98C352.331 171.98 352.331 171.98 352.321 171.98C352.791 173 353.641 173.85 354.151 174.86C354.311 174.42 354.701 174.18 355.151 173.98L355.161 173.99Z" fill="#55406D"/>
<path d="M354.161 174.87C353.651 173.86 352.801 173.01 352.331 171.99C351.811 172.27 351.311 172.25 350.821 171.91C351.301 173.75 352.391 175.09 354.141 175.87C354.041 175.45 354.071 175.13 354.161 174.87Z" fill="#55406D"/>
<path d="M356.471 174.56C356.001 174.42 355.571 174.23 355.161 173.99C354.711 174.18 354.321 174.43 354.161 174.87C354.261 175.06 354.341 175.26 354.411 175.47C354.941 174.89 355.791 174.88 356.471 174.56Z" fill="#55406D"/>
<path d="M354.162 174.87C354.062 175.13 354.041 175.45 354.141 175.87C354.211 175.71 354.312 175.58 354.412 175.47C354.342 175.26 354.262 175.06 354.162 174.87Z" fill="#55406D"/>
<path d="M352.461 171.78C352.461 171.78 352.401 171.72 352.371 171.7C352.311 171.7 352.261 171.72 352.201 171.72C352.231 171.81 352.281 171.9 352.321 171.99C352.321 171.99 352.321 171.99 352.331 171.99C352.381 171.92 352.411 171.85 352.461 171.79V171.78Z" fill="#55406D"/>
<path d="M352.321 171.99C352.281 171.9 352.231 171.81 352.201 171.72C351.741 171.78 351.271 171.85 350.811 171.91C351.301 172.24 351.801 172.27 352.321 171.99Z" fill="#55406D"/>
<path d="M311.861 204.98C310.731 204.88 310.161 205.68 310.191 206.77C310.221 207.65 310.751 208.37 311.621 208.35C312.641 208.33 313.361 207.7 313.381 206.73C313.291 205.6 312.621 205.04 311.851 204.97L311.861 204.98Z" fill="#5A4457"/>
<path d="M137.801 373.85C136.881 373.69 136.191 374.18 136.051 375.1C135.881 376.21 136.351 377.12 137.571 377.12C138.431 377.12 139.061 376.53 139.151 375.56C139.231 374.57 138.681 374.01 137.801 373.86V373.85Z" fill="#502668"/>
<path d="M311.971 496.22C310.961 495.97 310.371 496.69 310.221 497.52C310.011 498.64 310.601 499.58 311.771 499.58C312.541 499.58 313.311 498.99 313.411 497.59C313.381 497.02 312.831 496.43 311.981 496.22H311.971Z" fill="#594463"/>
<path d="M311.981 524.5C312.811 524.28 313.421 523.71 313.401 523.08C313.291 521.72 312.521 521.13 311.751 521.14C310.601 521.16 310.001 522.09 310.221 523.22C310.381 524.05 310.991 524.77 311.981 524.5Z" fill="#574462"/>
<path d="M311.741 166.68C312.611 166.68 313.181 166.09 313.221 165.87C313.491 164.15 312.851 163.71 312.001 163.57C311.131 163.43 310.381 163.74 310.271 164.73C310.151 165.79 310.511 166.69 311.741 166.67V166.68Z" fill="#483B60"/>
<path d="M137.321 165.8C136.341 165.94 136.041 166.64 136.051 167.48C136.061 168.42 136.711 168.96 137.571 168.91C138.631 168.84 139.321 168.25 139.061 167.03C138.861 166.08 138.191 165.81 137.321 165.8Z" fill="#151129"/>
<path d="M311.761 174.88C312.571 174.83 313.291 174.46 313.311 174.06C313.331 172.54 312.851 171.97 311.961 171.82C310.691 171.6 310.221 172.41 310.221 173.46C310.221 174.37 310.861 174.93 311.761 174.88Z" fill="#15102B"/>
<path d="M210.761 174.35C210.861 175.3 211.411 175.83 212.421 175.7C213.391 175.58 213.861 174.98 213.791 174.02C213.711 173 213.021 172.67 212.101 172.67C211.111 172.79 210.661 173.39 210.761 174.34V174.35Z" fill="#3C334D"/>
<path d="M137.561 185.65C138.671 185.56 139.231 184.83 139.091 183.7C138.961 182.69 138.161 182.5 137.351 182.56C136.421 182.63 136.001 183.25 136.051 184.18C136.191 185.04 136.621 185.72 137.561 185.64V185.65Z" fill="#15112A"/>
<path d="M212.281 189.18C211.511 189.12 210.781 189.73 210.741 190.73C210.701 191.67 211.161 192.24 211.921 192.48C213.001 192.58 213.611 192.03 213.821 191.21C214.121 190.01 213.311 189.26 212.291 189.18H212.281Z" fill="#4D3C65"/>
<path d="M311.641 188.52C310.701 188.55 310.141 189.2 310.211 190.06C310.301 191.09 310.841 191.86 312.101 191.56C313.031 191.33 313.321 190.66 313.351 189.47C313.121 188.91 312.501 188.49 311.641 188.52Z" fill="#453A5D"/>
<path d="M137.561 190.74C136.361 190.74 135.961 191.6 136.091 192.67C136.211 193.66 136.951 193.86 137.801 193.84C138.681 193.65 139.251 193.21 139.111 192.22C138.991 191.32 138.431 190.73 137.561 190.74Z" fill="#16112A"/>
<path d="M311.741 196.72C310.521 196.71 310.131 197.58 310.271 198.64C310.391 199.62 311.131 199.93 312.001 199.79C312.861 199.66 313.471 199.2 313.321 198.04C313.191 197.29 312.611 196.73 311.751 196.72H311.741Z" fill="#453A5D"/>
<path d="M212.101 197.64C211.091 197.71 210.671 198.37 210.761 199.31C210.851 200.27 211.431 200.77 212.431 200.65C213.401 200.53 213.861 199.96 213.781 198.73C213.671 197.98 213.031 197.58 212.101 197.64Z" fill="#3B334C"/>
<path d="M137.671 210.57C138.571 210.49 139.031 209.89 139.141 209.04C139.151 208.04 138.551 207.58 137.691 207.5C136.811 207.41 136.121 207.82 136.071 208.78C136.021 209.83 136.401 210.68 137.671 210.57Z" fill="#151129"/>
<path d="M212.071 214.21C211.201 214.29 210.691 214.97 210.741 215.92C210.821 216.86 211.391 217.49 212.261 217.47C213.101 217.45 213.771 216.88 213.821 215.93C213.881 214.73 213.161 214.11 212.071 214.21Z" fill="#4C3C64"/>
<path d="M311.521 213.5C310.561 213.56 310.201 214.22 310.201 215.12C310.381 215.95 310.761 216.67 311.731 216.57C312.821 216.46 313.451 215.79 313.291 214.63C313.151 213.63 312.331 213.44 311.521 213.49V213.5Z" fill="#16102C"/>
<path d="M137.451 218.85C138.251 218.73 139.051 218.56 139.101 217.54C139.151 216.43 138.611 215.7 137.451 215.69C136.481 215.69 136.081 216.44 136.031 217.27C135.981 218.18 136.541 218.71 137.451 218.85Z" fill="#16102C"/>
<path d="M312.311 221.82C311.471 221.46 310.711 221.63 310.381 222.57C310.021 223.59 310.161 224.51 311.411 224.76C312.241 224.93 312.951 224.64 313.301 223.81C313.451 222.87 313.151 222.18 312.321 221.83L312.311 221.82Z" fill="#483B60"/>
<path d="M212.432 225.6C213.392 225.48 213.882 224.93 213.802 223.93C213.672 222.94 213.032 222.54 212.102 222.6C211.082 222.66 210.682 223.34 210.762 224.27C210.852 225.23 211.442 225.73 212.432 225.61V225.6Z" fill="#3B334C"/>
<path d="M137.791 224.03C136.611 223.86 136.031 224.65 136.051 225.78C136.071 226.73 136.731 227.37 137.581 227.33C138.371 227.29 139.081 226.74 139.151 225.75C139.211 224.77 138.611 224.14 137.791 224.02V224.03Z" fill="#513E69"/>
<path d="M312.002 230.01C311.042 229.77 310.422 230.43 310.252 231.26C310.022 232.37 310.591 233.29 311.741 233.31C312.521 233.33 313.241 232.72 313.401 231.54C313.411 230.79 312.822 230.21 312.002 230V230.01Z" fill="#543F6D"/>
<path d="M212.051 233.97C213.141 234.08 213.871 233.48 213.821 232.27C213.781 231.32 213.111 230.9 212.281 230.68C211.391 230.83 210.811 231.31 210.741 232.25C210.671 233.2 211.171 233.89 212.051 233.97Z" fill="#4B3C64"/>
<path d="M137.411 232.45C136.431 232.59 135.951 233.17 136.071 234.14C136.181 235.07 136.701 235.66 137.731 235.51C138.701 235.37 139.171 234.76 139.121 233.8C139.061 232.76 138.321 232.47 137.421 232.44L137.411 232.45Z" fill="#151128"/>
<path d="M311.871 238.45C310.941 238.34 310.301 238.81 310.241 239.74C310.181 240.78 310.561 241.64 311.851 241.51C312.751 241.42 313.231 240.84 313.361 239.97C313.341 238.98 312.731 238.55 311.871 238.45Z" fill="#15102A"/>
<path d="M137.451 240.65C136.481 240.65 136.091 241.41 136.041 242.24C135.981 243.16 136.561 243.67 137.451 243.83C138.251 243.71 139.051 243.53 139.101 242.51C139.151 241.39 138.611 240.66 137.451 240.65Z" fill="#463A5E"/>
<path d="M212.102 247.54C211.082 247.6 210.682 248.29 210.762 249.21C210.842 250.17 211.432 250.66 212.432 250.55C213.382 250.41 213.892 249.88 213.792 248.89C213.682 247.89 213.042 247.48 212.102 247.54Z" fill="#3B334C"/>
<path d="M137.581 248.93C136.821 248.86 136.081 249.5 136.041 250.49C136.001 251.43 136.461 252 137.281 252.28C138.281 252.33 138.921 251.79 139.121 250.98C139.421 249.79 138.581 249.03 137.581 248.93Z" fill="#503D68"/>
<path d="M311.731 258.27C312.761 258.17 313.581 257.44 313.341 256.25C313.171 255.4 312.471 254.95 311.561 254.92C310.681 255.19 310.161 255.76 310.221 256.7C310.271 257.63 310.861 258.35 311.741 258.27H311.731Z" fill="#553E6C"/>
<path d="M136.062 259.1C136.172 260.04 136.701 260.6 137.721 260.45C138.681 260.31 139.142 259.72 139.092 258.52C138.982 257.74 138.301 257.36 137.391 257.42C136.391 257.48 135.941 258.14 136.051 259.09L136.062 259.1Z" fill="#161126"/>
<path d="M311.611 266.46C312.501 266.44 313.161 266.07 313.301 265.15C313.481 263.92 312.741 263.42 311.651 263.4C310.701 263.38 310.181 264.06 310.211 264.91C310.231 265.7 310.601 266.45 311.611 266.46Z" fill="#16112A"/>
<path d="M137.561 265.59C136.371 265.59 135.971 266.48 136.091 267.56C136.211 268.54 136.961 268.87 137.801 268.74C138.641 268.61 139.271 268.13 139.311 268.44C138.981 266.21 138.411 265.59 137.551 265.6L137.561 265.59Z" fill="#4A3B62"/>
<path d="M137.621 273.85C136.771 274.08 136.091 274.47 136.041 275.45C135.991 276.38 136.411 277.12 137.321 277.21C138.451 277.32 139.121 276.64 139.141 275.47C139.151 274.46 138.331 274.17 137.631 273.85H137.621Z" fill="#4F3C67"/>
<path d="M310.231 281.92C310.381 282.73 310.951 283.45 311.961 283.19C312.801 282.98 313.371 282.41 313.371 282.21C313.331 280.44 312.521 279.89 311.781 279.9C310.671 279.91 310.011 280.8 310.221 281.93L310.231 281.92Z" fill="#533E6B"/>
<path d="M139.131 283.89C139.161 282.9 138.491 282.4 137.571 282.37C136.591 282.34 136.021 282.96 136.041 283.9C136.061 284.8 136.551 285.44 137.551 285.43C138.551 285.41 139.101 284.83 139.131 283.9V283.89Z" fill="#3B344D"/>
<path d="M312.091 291.35C313.031 291.15 313.341 290.51 313.321 289.63C313.161 288.67 312.481 288.35 311.631 288.35C310.661 288.35 310.151 289.04 310.191 289.87C310.251 290.93 310.861 291.61 312.081 291.35H312.091Z" fill="#151129"/>
<path d="M311.551 299.74C312.431 299.74 313.191 299.42 313.331 298.5C313.511 297.35 312.821 296.61 311.731 296.51C310.801 296.43 310.282 297.12 310.222 298.02C310.162 298.94 310.621 299.54 311.551 299.74Z" fill="#4F3D67"/>
<path d="M137.792 298.96C136.632 298.81 136.012 299.54 136.052 300.69C136.082 301.62 136.692 302.27 137.582 302.22C138.402 302.18 139.062 301.62 139.152 300.66C139.232 299.67 138.632 299.07 137.792 298.96Z" fill="#4D3C65"/>
<path d="M310.221 306.89C310.371 307.7 310.951 308.41 311.951 308.16C312.801 307.95 313.351 307.39 313.351 307.57C313.341 305.4 312.511 304.87 311.781 304.88C310.671 304.88 310.001 305.77 310.211 306.89H310.221Z" fill="#513D69"/>
<path d="M137.402 307.35C136.382 307.41 135.972 308.09 136.062 309.02C136.152 309.97 136.722 310.5 137.732 310.36C138.692 310.23 139.172 309.67 139.092 308.47C138.972 307.68 138.322 307.29 137.402 307.35Z" fill="#3B344E"/>
<path d="M311.741 316.37C312.831 316.27 313.481 315.67 313.281 314.49C313.111 313.51 312.341 313.3 311.511 313.34C310.531 313.39 310.251 314.1 310.191 314.87C310.341 315.82 310.791 316.45 311.731 316.36L311.741 316.37Z" fill="#151129"/>
<path d="M311.781 324.72C312.551 324.68 313.371 324.28 313.351 323.2C313.321 322.28 312.821 321.65 311.951 321.51C310.711 321.31 310.211 322.1 310.221 323.23C310.221 324.22 310.941 324.76 311.781 324.72Z" fill="#4F3D67"/>
<path d="M137.561 327.22C138.401 327.01 139.081 326.58 139.131 325.64C139.191 324.44 138.441 323.84 137.361 323.93C136.471 324.01 135.971 324.71 136.041 325.65C136.111 326.58 136.661 327.09 137.561 327.22Z" fill="#4C3C64"/>
<path d="M311.781 329.85C310.971 329.8 310.231 330.39 310.221 331.37C310.211 332.49 310.721 333.29 311.951 333.1C312.811 332.97 313.341 332.34 313.421 330.03C313.401 330.3 312.521 329.9 311.781 329.85Z" fill="#513D69"/>
<path d="M137.572 335.33C138.502 335.3 139.082 334.78 139.152 333.8C139.092 332.82 138.502 332.31 137.572 332.28C136.582 332.25 136.031 332.89 136.031 333.81C136.031 334.73 136.572 335.37 137.572 335.33Z" fill="#3B344D"/>
<path d="M311.391 338.31C310.391 338.43 310.131 339.19 310.231 340.02C310.341 340.9 310.881 341.43 311.331 341.37C312.751 341.2 313.371 340.69 313.341 339.8C313.301 338.63 312.481 338.19 311.391 338.32V338.31Z" fill="#151128"/>
<path d="M137.221 340.46C136.421 340.68 136.011 341.29 136.041 342.21C136.071 343.21 136.801 343.79 137.581 343.74C138.611 343.67 139.421 342.94 139.111 341.74C138.901 340.93 138.281 340.38 137.221 340.46Z" fill="#4C3C65"/>
<path d="M311.541 349.65C312.631 349.73 313.431 349.18 313.341 347.96C313.281 347.03 312.571 346.61 311.741 346.39C310.811 346.5 310.271 347.03 310.211 347.94C310.141 348.87 310.611 349.58 311.541 349.65Z" fill="#4F3D67"/>
<path d="M212.261 142.59C213.061 142.57 213.751 142 213.831 141.03C213.911 140.05 213.321 139.41 212.501 139.3C211.361 139.14 210.721 139.88 210.741 141.03C210.751 141.97 211.411 142.62 212.261 142.6V142.59Z" fill="#4F3D67"/>
<path d="M137.561 143.94C138.381 143.91 139.081 143.54 139.121 142.55C139.121 141.65 138.731 141.03 137.801 140.89C136.581 140.71 136.051 141.42 136.051 142.51C136.051 143.44 136.671 143.97 137.561 143.94Z" fill="#151127"/>
<path d="M137.601 348.8C136.781 349.02 136.071 349.35 136.041 350.36C136.011 351.27 136.371 352.01 137.321 352.09C138.471 352.2 139.101 351.53 139.141 350.37C139.171 349.33 138.371 349.07 137.601 348.8Z" fill="#4C3C64"/>
<path d="M311.821 354.79C310.911 354.95 310.261 355.36 310.211 356.34C310.171 357.24 310.521 358.01 311.481 358.08C312.611 358.16 313.301 357.52 313.341 356.35C313.371 355.32 312.541 355.06 311.821 354.79Z" fill="#4D3C65"/>
<path d="M137.402 360.27C138.322 360.32 138.981 359.94 139.111 358.94C139.171 357.94 138.681 357.39 137.721 357.26C136.711 357.12 136.141 357.64 136.051 358.6C135.961 359.53 136.371 360.21 137.391 360.27H137.402Z" fill="#3C344E"/>
<path d="M311.611 366.27C312.311 366.19 313.122 366.09 313.282 365.09C313.482 363.9 312.831 363.31 311.741 363.21C310.781 363.12 310.272 363.77 310.212 364.62C310.152 365.46 310.531 366.14 311.611 366.26V366.27Z" fill="#151128"/>
<path d="M311.641 149.91C312.721 149.89 313.481 149.41 313.301 148.17C313.161 147.25 312.511 146.86 311.621 146.84C310.611 146.86 310.231 147.6 310.201 148.39C310.171 149.25 310.691 149.93 311.641 149.91Z" fill="#16102A"/>
<path d="M311.971 371.43C310.731 371.22 310.221 372.02 310.221 373.15C310.221 374.14 310.951 374.72 311.771 374.68C312.531 374.64 313.351 374.2 313.351 372.26C313.351 372.21 312.821 371.58 311.961 371.44L311.971 371.43Z" fill="#503D67"/>
<path d="M212.101 147.72C211.111 147.78 210.651 148.43 210.761 149.39C210.871 150.34 211.411 150.88 212.421 150.75C213.391 150.62 213.831 150.02 213.801 149.05C213.691 148.03 213.011 147.66 212.101 147.72Z" fill="#3B344E"/>
<path d="M137.591 152.43C138.311 152.45 139.111 151.86 139.141 150.85C139.181 149.89 138.611 149.31 137.771 149.11C136.801 148.88 136.221 149.57 136.051 150.39C135.811 151.54 136.521 152.39 137.581 152.43H137.591Z" fill="#523D6A"/>
<path d="M311.791 379.78C310.941 379.95 310.251 380.31 310.221 381.31C310.191 382.21 310.531 382.96 311.491 383.04C312.621 383.13 313.301 382.49 313.341 381.32C313.381 380.27 312.561 380.03 311.781 379.78H311.791Z" fill="#4E3D66"/>
<path d="M310.241 389.47C310.141 390.3 310.401 391.07 311.401 391.18C312.481 391.3 313.321 390.89 313.351 389.7C313.371 388.82 312.761 388.29 311.511 388.14C310.871 388.05 310.351 388.6 310.251 389.48L310.241 389.47Z" fill="#151129"/>
<path d="M311.741 396.33C310.561 396.33 310.031 397.24 310.241 398.35C310.401 399.21 311.051 399.82 311.981 399.61C312.811 399.42 313.431 398.87 313.361 397.87C313.221 396.93 312.551 396.32 311.731 396.32L311.741 396.33Z" fill="#503D68"/>
<path d="M311.751 416.18C312.591 416.14 313.311 415.74 313.331 414.78C313.351 413.6 312.611 413.09 311.511 413.14C310.501 413.18 310.291 413.95 310.201 414.68C310.321 415.67 310.831 416.23 311.761 416.18H311.751Z" fill="#161129"/>
<path d="M311.781 424.64C312.511 424.64 313.321 424.09 313.361 422.57C313.311 422.15 312.811 421.54 311.951 421.33C310.941 421.09 310.371 421.8 310.211 422.61C309.991 423.74 310.661 424.63 311.771 424.64H311.781Z" fill="#533E6B"/>
<path d="M311.641 441.13C312.721 441.11 313.481 440.62 313.301 439.39C313.171 438.47 312.511 438.08 311.621 438.06C310.611 438.08 310.231 438.82 310.201 439.61C310.171 440.46 310.691 441.14 311.641 441.13Z" fill="#16102B"/>
<path d="M311.501 446.3C310.561 446.37 310.161 447.15 310.211 448.06C310.261 449.02 310.931 449.45 311.781 449.68C312.531 449.35 313.351 449.04 313.351 448.04C313.351 446.86 312.611 446.22 311.501 446.3Z" fill="#553E6C"/>
<path d="M137.581 368.72C138.321 368.7 139.141 368.22 139.121 366.47C139.101 366.28 138.681 365.57 137.791 365.45C136.571 365.28 136.051 366.05 136.051 367.18C136.051 368.18 136.801 368.75 137.591 368.72H137.581Z" fill="#4D3C65"/>
<path d="M311.961 471.27C310.961 471.01 310.381 471.74 310.231 472.55C310.021 473.67 310.641 474.58 311.771 474.59C312.521 474.59 313.291 474.01 313.371 472.53C313.371 472.03 312.781 471.48 311.951 471.27H311.961Z" fill="#553F6D"/>
<path d="M313.291 481.5C313.531 480.23 312.701 479.76 311.661 479.74C310.741 479.72 310.171 480.37 310.211 481.27C310.251 482.06 310.591 482.83 310.501 482.82C312.531 482.86 313.131 482.39 313.301 481.5H313.291Z" fill="#483B60"/>
<path d="M311.871 491.05C312.711 490.95 313.361 490.53 313.361 489.84C313.261 488.63 312.741 488.07 311.861 487.97C310.571 487.82 310.201 488.71 310.251 489.75C310.291 490.69 310.961 491.16 311.871 491.05Z" fill="#453A5E"/>
<path d="M311.771 158.4C312.511 158.4 313.301 157.83 313.391 156.34C313.391 155.86 312.801 155.31 311.971 155.09C310.971 154.83 310.381 155.56 310.231 156.36C310.021 157.47 310.651 158.39 311.771 158.4Z" fill="#543F6D"/>
<path d="M313.291 506.53C313.451 505.32 312.851 504.87 311.991 504.73C311.111 504.59 310.391 504.91 310.261 505.88C310.131 506.95 310.511 507.81 311.731 507.8C312.591 507.8 313.171 507.23 313.291 506.53Z" fill="#463A5E"/>
<path d="M311.991 515.98C312.851 515.85 313.461 515.4 313.301 514.2C313.171 513.48 312.601 512.9 311.731 512.89C310.511 512.88 310.131 513.75 310.261 514.82C310.381 515.8 311.121 516.11 311.991 515.98Z" fill="#483B60"/>
<path d="M137.471 157.57C136.581 157.57 135.981 158.17 136.041 159.09C136.091 159.91 136.451 160.62 136.941 160.66C138.361 160.7 138.921 160.22 139.081 159.33C139.301 158.08 138.531 157.57 137.471 157.57Z" fill="#16102C"/>
<path d="M311.981 529.7C311.101 529.57 310.381 529.88 310.261 530.85C310.131 531.92 310.521 532.77 311.741 532.75C312.611 532.74 313.181 532.19 313.311 531.44C313.441 530.28 312.851 529.82 311.981 529.69V529.7Z" fill="#16102B"/>
<path d="M313.331 547.47C313.151 546.63 312.461 546.16 311.541 546.12C310.661 546.4 310.151 546.98 310.201 547.92C310.261 548.85 310.832 549.58 311.722 549.5C312.762 549.4 313.581 548.67 313.331 547.47Z" fill="#533E6B"/>
<path d="M311.402 554.66C310.412 554.77 310.121 555.52 310.241 556.37C310.361 557.23 310.851 557.82 312.011 557.65C312.771 557.58 313.331 556.99 313.331 556.13C313.331 554.93 312.461 554.54 311.391 554.66H311.402Z" fill="#16102A"/>
<path d="M212.271 164.2C211.491 164.18 210.741 164.77 210.741 165.76C210.741 166.9 211.291 167.67 212.481 167.49C213.331 167.36 213.851 166.7 213.811 164.92C213.811 164.72 213.001 164.22 212.261 164.21L212.271 164.2Z" fill="#4D3C66"/>
<path d="M311.411 466.05C312.481 466.17 313.341 465.78 313.341 464.57C313.341 463.7 312.751 463.14 311.361 462.94C310.781 462.8 310.381 463.51 310.251 464.33C310.111 465.18 310.421 465.93 311.411 466.04V466.05Z" fill="#16102C"/>
<path d="M310.271 248.06C310.121 249.04 310.641 249.68 311.601 249.73C312.451 249.77 313.211 249.44 313.321 248.41C313.311 247.45 312.811 246.85 311.891 246.67C310.821 246.46 310.401 247.18 310.271 248.06Z" fill="#362E44"/>
<path d="M311.902 432.9C312.802 432.72 313.312 432.11 313.312 431.02C313.202 430.11 312.442 429.79 311.592 429.84C310.632 429.89 310.111 430.54 310.271 431.52C310.411 432.4 310.842 433.12 311.902 432.9Z" fill="#372E45"/>
<path d="M311.731 141.74C312.811 141.62 313.451 140.92 313.311 139.77C313.181 138.75 312.341 138.56 311.541 138.61C310.611 138.67 310.171 139.31 310.221 140.15C310.381 141.11 310.771 141.85 311.741 141.75L311.731 141.74Z" fill="#4F3D67"/>
<path d="M311.891 457.86C312.811 457.69 313.341 457.08 313.311 456.14C313.271 455.08 312.461 454.88 311.611 454.78C310.651 454.94 310.121 455.49 310.271 456.47C310.401 457.35 310.821 458.06 311.891 457.86Z" fill="#362E45"/>
<path d="M311.561 537.88C310.501 537.93 310.221 538.75 310.251 539.6C310.291 540.59 310.971 541.07 311.921 540.93C312.791 540.8 313.491 540.39 313.221 539C313.071 538.38 312.501 537.84 311.561 537.89V537.88Z" fill="#382D46"/>
<path d="M311.911 271.63C310.851 271.42 310.411 272.14 310.271 273.01C310.111 273.99 310.641 274.54 311.641 274.73C312.431 274.61 313.251 274.43 313.311 273.37C313.361 272.42 312.821 271.8 311.911 271.62V271.63Z" fill="#382F47"/>
<path d="M137.781 202.27C138.591 202.15 139.171 201.52 139.121 200.57C139.081 199.57 138.311 199.04 137.571 199.02C136.791 198.99 136.061 199.6 136.061 200.56C136.061 201.67 136.601 202.45 137.771 202.27H137.781Z" fill="#3B344D"/>
<path d="M311.901 562.85C310.831 562.65 310.411 563.36 310.271 564.24C310.121 565.22 310.641 565.86 311.601 565.91C312.451 565.95 313.211 565.63 313.311 564.73C313.311 563.63 312.811 563.03 311.891 562.85H311.901Z" fill="#372E45"/>
<path d="M311.571 407.99C312.521 407.95 313.111 407.45 313.291 406.53C313.501 405.46 312.771 405.01 311.911 404.88C310.971 404.74 310.291 405.25 310.261 406.23C310.231 407.09 310.541 407.85 311.571 407.98V407.99Z" fill="#373047"/>
<path d="M137.351 174.11C136.501 174.19 136.011 174.9 136.061 175.84C136.111 176.8 136.791 177.18 137.581 177.44C138.311 177.11 139.101 176.8 139.111 175.83C139.121 174.68 138.421 174.01 137.351 174.11Z" fill="#3B344D"/>
<path d="M355.691 162.95C355.581 162.85 355.482 162.75 355.382 162.63C354.682 163.05 353.971 163.46 353.411 164.07C353.491 164.16 353.551 164.27 353.611 164.39C354.301 163.91 355.001 163.43 355.691 162.95Z" fill="#1B1A1D"/>
<path d="M353.411 164.07C353.971 163.46 354.681 163.05 355.381 162.63C355.151 162.34 354.971 162.01 354.891 161.6C353.551 161.76 352.651 162.48 352.171 163.74C352.781 163.59 353.151 163.75 353.401 164.07H353.411Z" fill="#1B1A1D"/>
<path d="M355.691 162.95C355.861 162.83 356.031 162.71 356.211 162.59C356.101 162.5 355.981 162.42 355.871 162.33C355.711 162.43 355.551 162.53 355.391 162.63C355.481 162.74 355.591 162.85 355.701 162.95H355.691Z" fill="#1B1A1D"/>
<path d="M355.871 162.33C355.551 162.09 355.221 161.84 354.901 161.6C354.981 162 355.161 162.34 355.391 162.63C355.551 162.53 355.711 162.43 355.871 162.33Z" fill="#1B1A1D"/>
<path d="M353.611 164.39C353.551 164.27 353.481 164.17 353.411 164.07C353.351 164.14 353.281 164.2 353.231 164.27C353.161 164.35 353.111 164.43 353.041 164.51C353.101 164.56 353.151 164.61 353.211 164.66C353.341 164.57 353.481 164.47 353.611 164.38V164.39Z" fill="#1B1A1D"/>
<path d="M353.231 164.27C353.291 164.2 353.351 164.14 353.411 164.07C353.151 163.75 352.781 163.59 352.181 163.74C352.471 164 352.751 164.26 353.041 164.51C353.111 164.43 353.161 164.35 353.231 164.27Z" fill="#1B1A1D"/>
<path d="M353.771 164.8C353.791 164.86 353.811 164.91 353.831 164.97C353.731 167.28 353.861 169.65 352.521 171.7C354.221 171.64 355.441 172.26 356.121 173.66C357.761 173.37 359.371 173.43 360.951 174.03C361.081 174.09 361.191 174.17 361.301 174.24C362.341 171.81 363.911 169.59 364.321 166.91C361.931 165 359.151 163.95 356.181 163.32C356.121 163.29 356.081 163.25 356.031 163.21C355.661 164.3 355.041 165.02 353.771 164.81V164.8Z" fill="#F3F3F2"/>
<path d="M356.031 163.2C356.081 163.24 356.131 163.28 356.181 163.31C359.151 163.94 361.931 164.98 364.321 166.9C364.321 166.85 364.341 166.8 364.351 166.75C364.151 166.08 363.901 165.53 363.601 165.06C362.891 164.53 362.271 163.97 361.731 163.38C360.151 162.61 358.151 162.65 356.211 162.58C356.161 162.79 356.101 163 356.031 163.19V163.2Z" fill="#F3F3F2"/>
<path d="M363.601 165.06C363.101 164.27 362.461 163.74 361.731 163.38C362.271 163.97 362.891 164.53 363.601 165.06Z" fill="#F5C257"/>
<path d="M360.941 174.02C359.361 173.42 357.751 173.37 356.111 173.65C356.241 173.93 356.371 174.22 356.461 174.56C358.021 174.56 359.581 174.56 361.141 174.56C361.191 174.45 361.241 174.34 361.291 174.22C361.171 174.15 361.061 174.07 360.941 174.01V174.02Z" fill="#F3F3F2"/>
<path d="M361.511 174.37C364.381 172.69 365.591 170.32 364.431 166.98C364.401 166.95 364.361 166.93 364.321 166.9C363.901 169.59 362.331 171.8 361.301 174.23C361.371 174.27 361.451 174.31 361.511 174.36V174.37Z" fill="#F3F3F2"/>
<path d="M364.351 166.75C364.351 166.8 364.331 166.85 364.321 166.9C364.351 166.93 364.391 166.95 364.431 166.98C364.401 166.9 364.381 166.83 364.351 166.75Z" fill="#F5C257"/>
<path d="M361.151 174.57C361.271 174.5 361.391 174.43 361.511 174.36C361.451 174.31 361.371 174.27 361.301 174.23C361.251 174.34 361.201 174.45 361.151 174.57Z" fill="#F3F3F2"/>
<path d="M353.831 164.97C353.811 164.91 353.791 164.85 353.771 164.8C353.591 164.77 353.411 164.73 353.211 164.67C352.011 166.9 351.991 169.28 352.371 171.7C352.421 171.7 352.461 171.7 352.511 171.7C353.851 169.65 353.721 167.29 353.821 164.97H353.831Z" fill="#F3F3F2"/>
<path d="M356.121 173.66C355.441 172.27 354.221 171.64 352.521 171.7C352.501 171.73 352.491 171.76 352.471 171.78C353.321 172.59 354.161 173.41 355.171 173.99C355.441 173.87 355.741 173.78 356.021 173.67C356.061 173.67 356.092 173.67 356.132 173.66H356.121Z" fill="#F3F3F2"/>
<path d="M356.121 173.66C356.121 173.66 356.051 173.66 356.011 173.67C355.731 173.78 355.431 173.88 355.161 173.99C355.571 174.22 356.001 174.42 356.471 174.56C356.381 174.22 356.261 173.93 356.121 173.65V173.66Z" fill="#F3F3F2"/>
<path d="M352.371 171.7C352.371 171.7 352.431 171.76 352.461 171.78C352.481 171.75 352.491 171.72 352.511 171.7C352.461 171.7 352.421 171.7 352.371 171.7Z" fill="#F5C257"/>
<path d="M353.771 164.8C355.041 165.01 355.661 164.29 356.031 163.2C355.911 163.12 355.791 163.04 355.691 162.95C355.001 163.43 354.301 163.91 353.611 164.39C353.671 164.52 353.721 164.66 353.771 164.8Z" fill="#F3F3F2"/>
<path d="M356.031 163.2C356.101 163.01 356.161 162.8 356.211 162.59C356.041 162.71 355.871 162.83 355.691 162.95C355.791 163.04 355.911 163.12 356.031 163.2Z" fill="#F5C257"/>
<path d="M353.611 164.39C353.481 164.48 353.341 164.58 353.211 164.67C353.411 164.74 353.601 164.78 353.771 164.8C353.721 164.65 353.671 164.51 353.611 164.39Z" fill="#F5C257"/>
<path d="M351.131 249.05C351.041 242.1 345.821 237.38 339.381 237.51C332.871 237.64 328.331 242.51 328.271 249.58C328.211 257.88 328.251 266.18 328.251 274.48C328.251 283.11 328.301 291.74 328.221 300.37C328.201 302.49 328.401 303.74 331.071 303.65C336.861 303.46 342.671 303.5 348.471 303.63C350.631 303.68 351.291 303 351.281 300.83C351.191 283.57 351.371 266.3 351.131 249.05Z" fill="#F3F3F2"/>
<path d="M369.032 303.64C374.662 303.53 380.301 303.47 385.921 303.66C388.541 303.75 389.302 302.96 389.252 300.33C389.092 291.71 389.192 283.08 389.192 274.45C389.192 266.16 389.261 257.86 389.171 249.57C389.091 242.49 384.531 237.64 378.041 237.52C371.611 237.4 366.392 242.2 366.312 249.07C366.112 266.32 366.272 283.58 366.192 300.83C366.182 303.03 366.912 303.68 369.032 303.64Z" fill="#F3F3F2"/>
<path d="M265.681 413.77C271.141 413.62 276.621 413.56 282.081 413.79C285.011 413.91 285.681 412.83 285.631 410.09C285.471 401.63 285.571 393.16 285.571 384.7C285.571 376.23 285.651 367.77 285.551 359.3C285.471 352.46 280.481 347.38 274.111 347.4C268.051 347.42 262.741 352.43 262.681 358.88C262.511 376.14 262.661 393.4 262.571 410.67C262.561 413.08 263.301 413.83 265.681 413.77Z" fill="#F3F3F2"/>
<path d="M247.451 358.79C247.351 352.03 241.591 347.04 235.461 347.41C229.021 347.8 224.721 352.72 224.681 359.86C224.631 367.99 224.671 376.11 224.671 384.24C224.671 392.86 224.671 401.49 224.671 410.11C224.671 411.89 224.201 413.83 227.201 413.76C233.161 413.62 239.121 413.67 245.081 413.74C247.071 413.76 247.601 412.88 247.591 411.03C247.541 393.62 247.711 376.21 247.451 358.8V358.79Z" fill="#F3F3F2"/>
<path d="M257.531 273.21C252.481 273.56 249.341 276.04 248.581 281.16C252.001 283.4 255.801 283.29 259.641 282.9C260.221 279.4 258.981 276.28 257.531 273.22V273.21Z" fill="#F3F3F2"/>
<path d="M248.581 281.16C248.561 281.26 248.541 281.36 248.531 281.46C251.531 285.95 255.511 284.91 259.571 283.41C259.611 283.24 259.621 283.07 259.651 282.89C255.811 283.28 252.011 283.39 248.591 281.15L248.581 281.16Z" fill="#F3F3F2"/>
<path d="M248.581 281.16C249.341 276.05 252.481 273.57 257.531 273.21C257.451 273.03 257.371 272.86 257.281 272.68C250.521 272.33 246.991 275.75 248.451 281.14C248.481 281.14 248.501 281.13 248.531 281.12C248.551 281.13 248.561 281.14 248.581 281.15V281.16Z" fill="#F3F3F2"/>
<path d="M248.531 281.13C248.531 281.13 248.481 281.14 248.451 281.15C248.481 281.26 248.501 281.36 248.531 281.46C248.541 281.36 248.561 281.26 248.581 281.16C248.561 281.15 248.551 281.14 248.531 281.13Z" fill="#FACB9E"/>
<path d="M257.531 273.21C258.981 276.28 260.231 279.39 259.641 282.89C259.661 282.89 259.671 282.89 259.691 282.89C259.741 282.91 259.791 282.93 259.841 282.95C262.091 279.04 261.261 275.79 257.841 273.1C257.791 273.13 257.731 273.16 257.671 273.2C257.621 273.2 257.581 273.2 257.531 273.21Z" fill="#F3F3F2"/>
<path d="M259.691 282.89C259.691 282.89 259.661 282.89 259.641 282.89C259.611 283.06 259.601 283.23 259.561 283.41C259.661 283.26 259.741 283.1 259.831 282.95C259.781 282.93 259.731 282.91 259.681 282.89H259.691Z" fill="#FACB9E"/>
<path d="M257.671 273.2C257.731 273.17 257.781 273.14 257.841 273.1C257.661 272.96 257.481 272.82 257.291 272.68C257.371 272.86 257.461 273.03 257.541 273.21C257.591 273.21 257.631 273.21 257.681 273.2H257.671Z" fill="#FACB9E"/>
</svg>
