<svg width="91" height="86" viewBox="0 0 91 86" fill="none" xmlns="http://www.w3.org/2000/svg">
<path d="M90.16 85.4444C90.16 85.4444 91.16 82.4444 88.16 77.4444C85.16 72.4444 60.16 63.4444 59.16 62.4444C58.4587 61.7431 58.2492 57.5987 58.1866 55.1856C59.2914 54.1977 60.3436 53.0705 61.3286 51.8041C63.1597 49.4498 64.6166 46.7966 65.6993 43.9667C66.7995 43.634 68.2631 42.971 69.7267 41.6495C72.664 38.9974 72.6639 31.0411 71.1953 29.7151C70.617 29.1929 69.3554 29.4932 68.0384 30.0493C68.0224 29.3686 67.9882 28.6885 67.9358 28.0103C68.1725 25.9158 68.2411 23.9928 68.0476 22.4444C67.0476 14.4444 64.16 6.44444 62.16 4.44444C60.16 2.44444 57.16 1.44444 53.16 0.444444C49.16 -0.555556 41.2394 0.444444 37.16 0.444444C24.16 0.444444 17.16 6.44444 17.16 6.44444C17.16 6.44444 19.8846 5.53624 22.7373 7.18189C18.9293 8.80219 18.16 12.6485 18.16 12.6485C18.16 12.6485 21.0825 11.5004 24.1596 10.509C24.1361 12.4877 23.0368 14.4875 22.0476 18.4444C21.5363 20.4894 21.2865 25.6707 21.5652 30.9151C20.5241 30.5535 19.5967 30.4317 19.1247 30.8579C17.6561 32.184 17.6561 40.1403 20.5933 42.7923C22.2414 44.2805 23.8896 44.9336 25.0188 45.2203C26.035 47.5811 27.3222 49.8008 28.8803 51.8041C29.8975 53.1119 30.9864 54.2712 32.1308 55.2821C32.0652 57.7075 31.8521 61.7524 31.16 62.4444C30.16 63.4444 5.16 72.4444 2.16 77.4444C-0.839999 82.4444 0.16 85.4444 0.16 85.4444H90.16ZM39.641 8.58725L47.2305 6.55367C47.9926 6.34947 48.7759 6.80173 48.9801 7.56382C49.1843 8.32592 48.732 9.10925 47.97 9.31346L40.3805 11.347C39.6184 11.5512 38.8351 11.099 38.6309 10.3369C38.4267 9.57479 38.879 8.79145 39.641 8.58725ZM38.588 12.9366L51.007 9.60889C51.7691 9.40469 52.5525 9.85695 52.7567 10.619C52.9609 11.3811 52.5086 12.1645 51.7465 12.3687L39.3275 15.6964C38.5654 15.9006 37.782 15.4483 37.5778 14.6862C37.3736 13.9241 37.8259 13.1408 38.588 12.9366ZM38.5699 17.0086L50.9889 13.6809C51.751 13.4767 52.5343 13.929 52.7385 14.6911C52.9427 15.4532 52.4905 16.2365 51.7284 16.4407L39.3093 19.7684C38.5473 19.9726 37.7639 19.5203 37.5597 18.7582C37.3555 17.9961 37.8078 17.2128 38.5699 17.0086ZM40.6216 20.526L50.6258 17.8454C51.3879 17.6412 52.1712 18.0934 52.3754 18.8555C52.5796 19.6176 52.1274 20.4009 51.3653 20.6051L41.3611 23.2858C40.599 23.49 39.8156 23.0377 39.6114 22.2756C39.4072 21.5135 39.8595 20.7302 40.6216 20.526ZM43.4328 34.9991L43.3725 34.9087C43.2669 34.7504 43.3097 34.5364 43.4681 34.4309C43.5247 34.3932 43.5912 34.373 43.6592 34.373H47.3715C47.5618 34.373 47.7161 34.5273 47.7161 34.7176C47.7161 34.7856 47.6959 34.8521 47.6582 34.9087L47.5979 34.9991C47.4125 35.2773 47.1002 35.4444 46.7659 35.4444H44.2648C43.9305 35.4444 43.6182 35.2773 43.4328 34.9991ZM49.8011 29.4163V32.1868C49.8011 32.6719 49.6084 33.1371 49.2653 33.4802C48.9223 33.8232 48.4571 34.0159 47.972 34.0159H43.0587C42.5736 34.0159 42.1084 33.8232 41.7653 33.4802C41.4223 33.1371 41.2296 32.6719 41.2296 32.1868V29.4163C41.2296 28.9313 41.0369 28.466 40.6939 28.123C40.3509 27.78 40.1582 27.3148 40.1582 26.8297V26.6944C40.1582 26.2013 40.5579 25.8016 41.0511 25.8016H41.5865L41.585 24.4364L44.0868 23.71L44.0877 25.8016H46.9451L46.9439 22.9444L49.4457 22.2112V25.8016H49.9796C50.4727 25.8016 50.8725 26.2013 50.8725 26.6944V26.8297C50.8725 27.3148 50.6798 27.78 50.3368 28.123C49.9938 28.466 49.8011 28.9313 49.8011 29.4163ZM2.18941 20.5079C4.89529 20.5079 12.1894 18.5079 12.1894 18.5079C12.1894 18.5079 4.89529 16.5079 2.18941 16.5079C-0.51647 16.5079 -0.51647 20.5079 2.18941 20.5079ZM3.74571 11.0242C6.28841 11.9497 13.8267 12.5651 13.8267 12.5651C13.8267 12.5651 7.65649 8.19094 5.11379 7.26547C2.5711 6.34001 1.20302 10.0988 3.74571 11.0242ZM5.11379 29.7503C7.65649 28.8249 13.8267 24.4508 13.8267 24.4508C13.8267 24.4508 6.28841 25.0661 3.74571 25.9916C1.20302 26.917 2.5711 30.6758 5.11379 29.7503ZM86.1306 20.5079C88.8365 20.5079 88.8365 16.5079 86.1306 16.5079C83.4247 16.5079 76.1306 18.5079 76.1306 18.5079C76.1306 18.5079 83.4247 20.5079 86.1306 20.5079ZM84.5743 11.0242C87.117 10.0988 85.7489 6.34001 83.2062 7.26547C80.6635 8.19094 74.4933 12.5651 74.4933 12.5651C74.4933 12.5651 82.0316 11.9497 84.5743 11.0242ZM83.2062 29.7503C85.7489 30.6758 87.117 26.917 84.5743 25.9916C82.0316 25.0661 74.4933 24.4508 74.4933 24.4508C74.4933 24.4508 80.6635 28.8249 83.2062 29.7503Z" fill="black"/>
</svg>
