<svg width="78" height="77" viewBox="0 0 78 77" fill="none" xmlns="http://www.w3.org/2000/svg">
<g clip-path="url(#clip0_569_484)">
<path d="M38.5102 76.94C26.5202 76.94 14.5202 76.87 2.53017 77C0.410172 77.02 -0.00982753 76.59 0.000172472 74.47C0.100172 50.49 0.100172 26.51 0.000172472 2.53C0.000172472 0.41 0.410172 0 2.53017 0C26.8502 0.1 51.1602 0.1 75.4802 0C77.6002 0 78.0202 0.41 78.0102 2.53C77.9102 26.51 77.9102 50.49 78.0102 74.48C78.0102 76.6 77.6002 77.03 75.4802 77.01C63.1602 76.88 50.8402 76.95 38.5102 76.95V76.94Z" fill="#F3F2F2"/>
<path d="M39.5699 13.74C45.1399 13.74 50.7299 13.97 56.2899 13.65C59.7599 13.45 61.6899 14.74 63.2999 17.66C65.5099 21.66 67.9999 25.51 70.5899 29.27C71.9699 31.27 71.6899 32.77 70.2899 34.51C60.7499 46.36 51.2199 58.22 41.7299 70.11C39.5799 72.81 37.5599 72.94 35.3799 70.21C25.7699 58.21 16.1499 46.21 6.50987 34.23C5.17987 32.58 5.14987 31.17 6.48987 29.44C10.1099 24.8 13.6399 20.08 17.0799 15.31C18.2499 13.69 19.7299 13.72 21.3799 13.73C27.4499 13.76 33.5099 13.73 39.5799 13.73L39.5699 13.74Z" fill="#020202"/>
<path d="M37.9502 58.44C35.5802 51.02 33.2002 43.61 30.4902 35.15C35.5402 35.15 40.2702 35.09 44.9902 35.18C46.5102 35.21 46.1102 36.24 45.7802 37.26C43.5102 44.34 41.2902 51.43 39.0602 58.52C38.6902 58.5 38.3102 58.47 37.9402 58.45L37.9502 58.44Z" fill="#D2CFD6"/>
<path d="M14.4399 35.4099C15.9799 35.2199 16.4699 35.1899 16.9399 35.0899C22.6199 33.8999 25.4899 36.2999 26.4699 41.9399C27.0499 45.2599 28.4699 48.4299 29.5199 51.6699C29.1799 51.9699 28.8499 52.2599 28.5099 52.5599C23.9799 47.0399 19.4399 41.5099 14.4399 35.4099Z" fill="#A37EB8"/>
<path d="M62.1802 35.7898C57.4702 41.1798 53.7502 47.1598 48.6902 51.9298C48.3502 51.6198 48.0002 51.3198 47.6602 51.0098C48.6902 47.8398 49.7402 44.6798 50.7502 41.5098C53.1002 34.1398 53.3402 33.9998 62.1802 35.7898Z" fill="#9472B2"/>
<path d="M44.4899 29.8202C43.6199 30.1602 43.3499 30.3502 43.0799 30.3602C39.8099 30.3802 36.5499 30.3702 32.9199 30.3702C33.9899 27.0502 35.9199 23.1802 38.4199 22.9302C41.0699 22.6702 42.2399 27.1702 44.4899 29.8202Z" fill="#767297"/>
<path d="M49.9801 27.5801C48.1301 25.0901 46.4201 22.7901 44.3901 20.0601H54.1601C53.4001 22.7801 51.8501 25.1001 49.9901 27.5801H49.9801Z" fill="#AE96C3"/>
<path d="M59.6902 22.96C60.9502 25.63 62.7302 27.41 63.1402 30.17H56.2202C56.5302 27.37 58.2902 25.59 59.6902 22.96Z" fill="#697294"/>
<path d="M13.75 30.6501C16.02 27.6101 17.53 25.5901 19.23 23.3301C20.76 25.5001 22.41 28.0101 21.41 29.6501C20.26 31.5401 17.25 30.0701 13.75 30.6501Z" fill="#656F91"/>
<path d="M24.5601 19.98H32.3801C31.0101 22.53 29.6401 24.6 27.2701 26.64C26.3601 24.4 25.5601 22.44 24.5601 19.98Z" fill="#93C18B"/>
</g>
<defs>
<clipPath id="clip0_569_484">
<rect width="78" height="77" fill="white"/>
</clipPath>
</defs>
</svg>
