<svg width="314" height="374" viewBox="0 0 314 374" fill="none" xmlns="http://www.w3.org/2000/svg">
<g clip-path="url(#clip0_568_468)">



<path d="M99.7399 372.88C99.7399 373.21 99.7199 373.55 99.7199 373.88H94.7399C92.5599 371.71 89.5999 370.23 88.6299 366.98C93.1099 367.48 95.6499 371.65 99.7399 372.88Z" fill="#6CC5A2"/>
<path d="M213.29 373.88C213.32 373.55 213.31 373.22 213.26 372.89C217.35 371.65 219.89 367.48 224.39 367C223.4 370.22 220.44 371.69 218.28 373.88H213.3H213.29Z" fill="#6CC5A2"/>
<path d="M1.08008 163.57C0.750078 163.57 0.410078 163.57 0.0800781 163.56V152.6L0.860078 152.43C3.46008 156.1 3.25008 159.82 1.08008 163.58V163.57Z" fill="#64C3A0"/>
<path d="M1.07986 163.57C1.00986 159.85 0.929863 156.14 0.859863 152.42C2.62986 145.2 6.39986 138.93 10.9599 133.28C17.8199 124.8 19.4999 115.27 18.1499 104.83C17.8299 102.37 17.6599 99.8799 17.5499 97.3999C16.9599 84.0199 21.9699 73.2099 34.5299 68.1399C50.2099 61.7999 60.4899 51.44 66.8699 35.72C72.5199 21.82 84.7499 17.5799 99.1299 18.8899C102.1 19.1599 105.07 19.34 108.04 19.62C116.5 20.42 124.03 18.19 130.77 13.02C134.7 9.99995 138.87 7.30995 143.28 5.00995C152.14 0.389951 160.97 0.219951 169.75 5.10995C172.92 6.86995 176.36 8.40995 179.03 10.78C188.8 19.45 200.14 20.7399 212.47 19.1399C229.61 16.9099 239.78 22.5 247.59 37.9C247.89 38.49 248.19 39.08 248.41 39.7C252.82 52.56 261.74 60.4099 274.19 65.8699C292.31 73.8199 297.44 83.8399 294.97 103.51C293.52 115.11 295.21 125.47 302.96 134.6C306.05 138.24 308.37 142.51 310.3 146.91C313.39 153.94 313.57 161.09 310.41 168.11C308.79 171.7 307.11 175.46 304.6 178.42C295.62 189.01 293.36 200.85 295 214.5C297.15 232.4 291.72 240.89 275.6 249.16C270.19 251.94 264.47 254.13 259.53 257.84C257.01 259.74 256.48 261.42 257.92 264.45C268.24 286.15 278.37 307.94 288.56 329.7C292.3 337.69 289.82 341.49 280.96 341.69C270.85 341.92 260.74 342.35 250.63 342.67C247.34 342.78 244.84 343.95 242.59 346.61C236.7 353.57 230.45 360.22 224.35 367C220.71 369.1 218.55 373.98 213.22 372.89C210.67 371.86 209.71 369.53 208.67 367.29C199.65 347.92 190.58 328.58 181.7 309.15C180.13 305.72 178.94 304.58 175.4 307.15C162.83 316.27 149.98 316.14 137.45 307.08C133.79 304.44 132.73 305.8 131.2 309.17C122.33 328.59 113.26 347.93 104.25 367.29C103.21 369.53 102.25 371.86 99.6999 372.89C94.3699 373.99 92.2099 369.11 88.5899 366.99C82.1499 359.85 75.6799 352.74 69.3099 345.54C67.8999 343.95 66.4599 343.07 64.2699 343C53.1799 342.63 42.0999 342.05 31.0099 341.69C23.6499 341.45 20.9499 337.34 24.0499 330.63C34.1499 308.84 44.1099 286.98 54.5499 265.35C56.6199 261.07 55.4499 259.23 52.2199 256.97C47.7199 253.82 42.6399 251.88 37.7899 249.46C21.0099 241.1 15.3999 231.26 17.9299 212.61C19.5499 200.65 17.6299 190.09 9.76986 180.6C5.67986 175.66 2.55986 169.95 1.02986 163.56L1.07986 163.57Z" fill="#1B1B1E"/>
<path d="M95.7699 32.9401C101.73 32.9401 107.68 32.8601 113.64 32.9601C122.31 33.1101 129.68 29.6101 136.66 24.9701C138.45 23.7801 140.17 22.4901 141.95 21.2801C154.67 12.6901 158.83 12.0201 170.78 21.2801C183.88 31.4101 198.01 34.4901 214.04 32.4401C226.42 30.8601 230.53 33.4801 236.16 44.5701C237.5 47.2101 238.71 49.9301 239.93 52.6401C244.56 62.9101 252.11 70.1801 262.42 74.6701C264.84 75.7201 267.21 76.8801 269.56 78.0801C280.96 83.8701 283.13 87.9201 281.91 100.63C281.55 104.42 281.47 108.25 281.21 112.05C280.53 121.95 284.07 130.48 289.59 138.41C291.95 141.8 294.14 145.3 296.38 148.76C300.3 154.8 300.18 160.85 296.35 166.89C294.58 169.68 293.05 172.67 290.98 175.21C282.25 185.91 279.91 198.19 281.49 211.54C281.7 213.35 281.81 215.18 282.03 216.99C283.15 226.11 279.92 232.76 271.31 236.62C266.82 238.63 262.45 240.92 258.08 243.2C250.05 247.39 244.11 253.6 240.3 261.85C238.71 265.29 237.04 268.71 235.26 272.05C229.84 282.23 224.86 284.88 213.53 283.13C199.05 280.89 186.07 283.05 173.81 292.17C157.81 304.07 154.77 303.99 138.85 291.98C126.78 282.87 113.86 280.93 99.5899 283.11C88.1599 284.86 82.1899 282.67 77.9399 272.11C70.9399 254.73 59.0799 243.38 41.8599 236.43C31.9899 232.44 29.2099 226.81 30.9599 216.12C33.6899 199.43 30.0599 184.98 19.7199 171.5C11.0499 160.19 11.6099 155.92 19.6799 143.85C24.5299 136.59 29.9099 129.59 31.2599 120.61C32.2299 114.16 31.8799 107.7 31.1299 101.26C29.6199 88.1601 31.9899 83.7101 43.6799 77.8801C45.8899 76.7801 48.0999 75.6601 50.3799 74.7001C60.9399 70.2601 68.4399 62.7401 73.1999 52.3701C74.7799 48.9301 76.3999 45.4901 78.2099 42.1601C82.7299 33.8201 86.2099 31.8901 95.7499 32.9401H95.7699Z" fill="#545863"/>
<path d="M217.59 354.52C210.34 338.97 203.34 323.96 196.34 308.95C195.71 307.6 195.08 306.26 194.45 304.92C190.65 296.82 190.84 296.32 200.05 296.15C205.31 296.06 210.59 296.64 215.85 297.09C231.49 298.42 242.03 291.39 248.35 277.26C249.76 277.54 249.95 278.62 250.41 279.61C257.39 294.64 264.31 309.7 271.52 324.63C273.2 328.1 272.38 328.85 268.96 328.87C262 328.92 255.03 329.4 248.07 329.22C241.85 329.06 237.54 331.64 233.73 336.39C228.78 342.56 223.23 348.24 217.59 354.53V354.52Z" fill="#A90606"/>
<path d="M95.4001 354.55C89.4401 347.88 83.7501 341.86 78.4801 335.49C75.1801 331.5 71.4601 329.32 66.2101 329.32C58.5901 329.32 50.9601 329.03 43.3401 328.74C42.0301 328.69 39.4401 329.27 40.8601 326.23C48.4701 309.91 56.0701 293.59 63.9501 276.69C67.2801 282.16 70.0201 287.3 74.5801 291.06C83.9501 298.78 94.9701 297.64 105.76 296.48C110.49 295.97 114.94 296.55 119.5 297.09C121.73 297.35 121.5 298.59 120.74 300.21C112.39 318.04 104.08 335.89 95.3801 354.56L95.4001 354.55Z" fill="#A90606"/>
<path d="M156.55 256.23C102.35 255.72 58.3701 213.21 58.1701 158.29C57.9701 102.89 101.38 59.19 157.02 59.44C211.6 59.68 254.98 102.69 254.83 158.29C254.68 213.3 210.31 255.82 156.55 256.23Z" fill="#1B1B1E"/>
<path d="M240.46 158.07C240.77 203.09 204.31 241.87 156.67 241.89C107.61 241.91 71.8098 201.67 72.4198 156.48C73.0298 111.43 110.67 72.5799 158.8 73.6099C203.78 74.5699 240.86 112.44 240.45 158.06L240.46 158.07Z" fill="#EF8B2E"/>
<path d="M206.24 136.68C206.35 139.18 204.97 140.87 203.45 142.41C186.81 159.09 170.19 175.78 153.47 192.39C149.07 196.76 146.04 196.64 141.54 192.18C130.12 180.84 118.75 169.45 107.4 158.04C103.33 153.94 103 149.94 106.31 146.82C109.51 143.79 113.33 144.11 117.24 147.97C126.32 156.95 135.43 165.92 144.29 175.11C146.83 177.75 148.17 177.91 150.84 175.18C164.63 161.06 178.64 147.14 192.62 133.2C197.33 128.5 202.12 128.52 205.15 133.07C205.91 134.21 206.37 135.42 206.24 136.69V136.68Z" fill="white"/>
</g>
<defs>
<clipPath id="clip0_568_468">
<rect width="314" height="374"/>
</clipPath>
</defs>
</svg>
