<svg width="92" height="91" viewBox="0 0 92 91" fill="none" xmlns="http://www.w3.org/2000/svg">
<path d="M46.5 79.8L6.3 85.1L5.9 79.8M46.5 79.8L80.8 90L81.5 84.6M46.5 79.8L85.7 85.1L86.1 79.8M46.5 79.8H1V10.2H46.5M46.5 79.8V10.2M46.5 79.8H91V10.2H86.1M46.5 79.8L86.1 75V5.00001L76.9 6.20001M46.5 79.8L81.2 70.2L76.5 0.700012L46.5 10.2M36.1 30.2H10.9M10.9 24.9H36.1M10.9 35H36.1M36.1 40H10.9M10.9 45H36.1M36.1 50.1H10.9M36.1 55.1H10.9M10.9 59.9H36.1M36.1 64.8H10.9M70.6 20.5L52.7 26M70.3 15.5L52.7 21.1M52.8 30.6L70.8 25M52.9 35.4L71.1 29.8M52.9 40.4L71.3 34.9M53 45.5L71.6 40M71.9 45.1L53.1 50.6M53.2 55.7L72.1 50.2M53.2 61L72.3 55.6" stroke="black" stroke-miterlimit="10" stroke-linecap="round" stroke-linejoin="round"/>
</svg>
