<svg width="80" height="80" viewBox="0 0 80 80" fill="none" xmlns="http://www.w3.org/2000/svg">
<path d="M11.2168 50.2524C10.6646 50.2524 10.2168 50.7002 10.2168 51.2524C10.2168 51.8047 10.6646 52.2524 11.2168 52.2524H47.2402C47.7925 52.2524 48.2402 51.8047 48.2402 51.2524C48.2402 50.7002 47.7925 50.2524 47.2402 50.2524H11.2168Z" fill="black"/>
<path d="M48.2402 61.3042C48.2402 60.752 47.7925 60.3042 47.2402 60.3042H11.2168C10.6646 60.3042 10.2168 60.752 10.2168 61.3042C10.2168 61.8564 10.6646 62.3042 11.2168 62.3042H47.2402C47.7925 62.3042 48.2402 61.8564 48.2402 61.3042Z" fill="black"/>
<path d="M15.6602 35.5811C17.1665 35.5811 18.6729 35.0127 19.8193 33.8765C20.9336 32.7725 21.5474 31.3042 21.5474 29.7422C21.5474 28.5206 21.1676 27.3594 20.4715 26.3821L25.0427 21.853C26.1108 22.9261 27.5922 23.5933 29.2285 23.5933C30.8649 23.5933 32.3463 22.9262 33.4143 21.8531L37.985 26.382C37.2892 27.3593 36.9097 28.5206 36.9097 29.7422C36.9097 31.3042 37.5234 32.7725 38.6372 33.8765C39.7842 35.0127 41.29 35.5811 42.7969 35.5811C44.3027 35.5811 45.8096 35.0127 46.9561 33.8765C48.0703 32.7725 48.6841 31.3042 48.6841 29.7422C48.6841 28.1797 48.0703 26.7114 46.9561 25.6074C44.9049 23.5751 41.7074 23.3758 39.4123 24.981L34.5731 20.186C34.918 19.4436 35.1157 18.6207 35.1157 17.751C35.1157 14.5293 32.4746 11.9087 29.2285 11.9087C25.9824 11.9087 23.3413 14.5293 23.3413 17.751C23.3413 18.6207 23.5391 19.4436 23.884 20.186L19.0447 24.9807C16.7504 23.3744 13.553 23.5737 11.501 25.6074C10.3867 26.7114 9.77295 28.1797 9.77295 29.7422C9.77295 31.3042 10.3867 32.7725 11.5005 33.8765C12.6475 35.0132 14.1538 35.5811 15.6602 35.5811ZM45.5488 27.0283C46.2808 27.7534 46.6841 28.7173 46.6841 29.7422C46.6841 30.7666 46.2808 31.7305 45.5488 32.4556C44.0303 33.9595 41.5625 33.9595 40.0449 32.4556C39.313 31.7305 38.9097 30.7666 38.9097 29.7422C38.9097 28.7173 39.3125 27.7539 40.0444 27.0283C41.561 25.5264 44.0303 25.5244 45.5488 27.0283ZM29.2285 13.9087C31.3721 13.9087 33.1157 15.6323 33.1157 17.751C33.1157 19.8696 31.3721 21.5933 29.2285 21.5933C27.085 21.5933 25.3413 19.8696 25.3413 17.751C25.3413 15.6323 27.085 13.9087 29.2285 13.9087ZM12.9082 27.0283C13.667 26.2764 14.6636 25.9009 15.6602 25.9009C16.6567 25.9009 17.6533 26.2764 18.4121 27.0283C19.144 27.7534 19.5474 28.7173 19.5474 29.7422C19.5474 30.7666 19.144 31.7305 18.4116 32.4556C16.895 33.9595 14.4258 33.9595 12.9082 32.4556C12.1763 31.7305 11.7729 30.7666 11.7729 29.7422C11.7729 28.7173 12.1763 27.7534 12.9082 27.0283Z" fill="black"/>
<path d="M79 6.396H58.457V1C58.457 0.447754 58.0093 0 57.457 0H1C0.447754 0 0 0.447754 0 1V72.604C0 73.1562 0.447754 73.604 1 73.604H21.543V79C21.543 79.5522 21.9907 80 22.543 80H79C79.5522 80 80 79.5522 80 79V7.396C80 6.84375 79.5522 6.396 79 6.396ZM2 2H56.457V71.604H2V2ZM78 78H23.543V73.604H57.457C58.0093 73.604 58.457 73.1562 58.457 72.604V8.396H78V78Z" fill="black"/>
</svg>
