<svg width="86" height="101" viewBox="0 0 86 101" fill="none" xmlns="http://www.w3.org/2000/svg">
<path d="M85.0884 48.9892H78.5219L75.5133 45.1613L75.4758 45.1168C75.3885 45.0167 75.2761 44.9388 75.1637 44.8943C75.0639 44.8386 74.939 44.8164 74.8142 44.8052C74.7892 44.8052 74.7393 44.8052 74.7393 44.8052H61.6812C61.419 44.694 61.1319 44.694 60.8697 44.8052H48.0363C45.5895 44.8052 44.0165 45.9625 43.1551 46.8972C42.2938 45.9625 40.7208 44.8052 38.274 44.8052H25.4405C25.1784 44.6828 24.8788 44.6828 24.6166 44.8052H11.571C11.571 44.8052 11.5335 44.8052 11.4961 44.8052C11.3712 44.8164 11.2464 44.8498 11.1465 44.9054C11.0217 44.9499 10.9218 45.0278 10.8469 45.1279C10.822 45.1279 10.797 45.1613 10.797 45.1613L7.78838 48.9892H1.22187C0.722515 48.9892 0.310547 49.3565 0.310547 49.8127V100.177C0.310547 100.633 0.722515 101 1.22187 101H43.1551H85.0884C85.5878 101 85.9997 100.633 85.9997 100.177V49.8127C86.0122 49.3565 85.5878 48.9892 85.0884 48.9892ZM36.5637 88.3033C40.0841 88.3033 41.8443 90.7403 42.2313 91.3857V94.6906H9.18657V94.1676C9.21154 94.1787 9.22402 94.201 9.26147 94.2121C9.34886 94.2343 9.43624 94.2455 9.53612 94.2455C9.92311 94.2455 10.2976 94.0118 10.41 93.6557L11.2214 91.2633H28.2994C28.7987 91.2633 29.2107 90.9072 29.2107 90.4509C29.2107 89.9947 28.8112 89.6275 28.3118 89.6275H11.7832L12.2326 88.3033H36.5637ZM74.0777 88.3033L74.5271 89.6275H57.9984C57.4991 89.6275 57.0871 89.9947 57.0871 90.4509C57.0871 90.9072 57.4991 91.2633 57.9984 91.2633H75.0764L75.8878 93.6557C76.0126 94.0118 76.3747 94.2455 76.7617 94.2455C76.8615 94.2455 76.9489 94.2343 77.0363 94.2121C77.0613 94.201 77.0738 94.1787 77.0987 94.1676V94.6906H44.0789V91.3857C44.4659 90.7403 46.2387 88.3033 49.7466 88.3033H74.0777ZM12.4823 46.441H22.6941L20.035 48.8112C19.673 49.1339 19.673 49.6569 20.035 49.9685C20.2098 50.1354 20.4595 50.2244 20.6842 50.2244C20.9089 50.2244 21.1586 50.1354 21.3458 49.9796L25.2907 46.4521H38.274C40.6709 46.4521 41.9068 48.0768 42.2189 48.5775V85.5436C42.2189 85.9887 42.6308 86.356 43.1427 86.356C43.6545 86.356 44.0665 85.9887 44.0665 85.5436V48.5664C44.4035 48.0656 45.6394 46.441 48.0363 46.441H61.0071L64.9644 49.9796C65.1517 50.1354 65.3764 50.2244 65.6261 50.2244C65.8633 50.2244 66.1005 50.1354 66.2752 49.9907C66.6373 49.668 66.6373 49.145 66.2752 48.8335L63.6162 46.441H73.828V86.6453H49.7466C46.326 86.6453 44.2163 88.4146 43.1551 89.6609C42.094 88.4146 39.9967 86.6453 36.5637 86.6453H12.4823V46.441Z" fill="black"/>
<path d="M24.5285 23.9075C24.4162 24.1968 24.516 24.5195 24.7532 24.7421L33.2922 32.1531L31.2823 42.6131C31.2199 42.9247 31.3572 43.2363 31.6443 43.4255C31.9315 43.6035 32.306 43.6258 32.6056 43.4811L43.1544 38.5404L53.7033 43.4811C53.8406 43.5367 53.9779 43.5701 54.1278 43.5701C54.6396 43.5701 55.064 43.2029 55.064 42.7578C55.064 42.6465 55.0391 42.5464 55.0016 42.4573L53.0167 32.1531L61.5556 24.7421C61.8053 24.5195 61.8927 24.1968 61.7928 23.9075C61.668 23.5959 61.3809 23.3845 61.0438 23.34L49.2466 21.8155L43.9784 12.3014C43.6663 11.7339 42.6426 11.7339 42.318 12.3014L37.0623 21.8155L25.2651 23.34C24.928 23.3845 24.6409 23.5959 24.5285 23.9075Z" fill="black"/>
<path d="M43.1552 7.33842C43.6671 7.33842 44.0791 6.97121 44.0791 6.51498V1.05129C44.0791 0.595057 43.6671 0.227844 43.1552 0.227844C42.6434 0.227844 42.2314 0.595057 42.2314 1.05129V6.51498C42.2314 6.97121 42.6434 7.33842 43.1552 7.33842Z" fill="black"/>
<path d="M24.3798 13.7925C24.5546 13.9483 24.7918 14.0373 25.029 14.0373C25.2661 14.0373 25.5033 13.9483 25.6906 13.8036C26.0401 13.4809 26.0401 12.9579 25.6906 12.6463L21.3462 8.76278C20.9842 8.44008 20.3974 8.44008 20.0479 8.76278C19.6859 9.07435 19.6859 9.59735 20.0479 9.92006L24.3798 13.7925Z" fill="black"/>
<path d="M11.3847 30.1945H17.5143C18.0262 30.1945 18.4381 29.8273 18.4381 29.3711C18.4381 28.9149 18.0262 28.5588 17.5143 28.5588H11.3847C10.8729 28.5588 10.4609 28.9149 10.4609 29.3711C10.4609 29.8273 10.8729 30.1945 11.3847 30.1945Z" fill="black"/>
<path d="M68.7971 30.1945H74.9267C75.4385 30.1945 75.8505 29.8273 75.8505 29.3711C75.8505 28.9149 75.4385 28.5588 74.9267 28.5588H68.7971C68.2853 28.5588 67.8733 28.926 67.8733 29.3711C67.8608 29.8273 68.2853 30.1945 68.7971 30.1945Z" fill="black"/>
<path d="M61.2815 14.0372C61.5312 14.0372 61.7559 13.9482 61.9432 13.8035L66.2876 9.9311C66.6371 9.6084 66.6371 9.0854 66.2876 8.77383C65.9255 8.45112 65.3388 8.45112 64.9892 8.77383L60.6324 12.6351C60.2703 12.9467 60.2703 13.4697 60.6324 13.7924C60.8071 13.9482 61.0568 14.0372 61.2815 14.0372Z" fill="black"/>
<path d="M21.9077 56.0999H36.2142C36.7135 56.0999 37.1255 55.7327 37.1255 55.2765C37.1255 54.8314 36.7135 54.4642 36.2142 54.4642H21.9077C21.3959 54.4642 20.9839 54.8314 20.9839 55.2765C20.9839 55.7327 21.3959 56.0999 21.9077 56.0999Z" fill="black"/>
<path d="M17.9634 71.0331H36.2023C36.7016 71.0331 37.1136 70.6659 37.1136 70.2097C37.1136 69.7534 36.7016 69.3862 36.2023 69.3862H17.9634C17.4515 69.3862 17.0396 69.7534 17.0396 70.2097C17.0396 70.6659 17.4515 71.0331 17.9634 71.0331Z" fill="black"/>
<path d="M17.9634 62.7431H36.2023C36.7016 62.7431 37.1136 62.3759 37.1136 61.9197C37.1136 61.4746 36.7016 61.1074 36.2023 61.1074H17.9634C17.4515 61.1074 17.0396 61.4746 17.0396 61.9197C17.0396 62.3759 17.4515 62.7431 17.9634 62.7431Z" fill="black"/>
<path d="M37.1261 78.4998C37.1261 78.0436 36.7141 77.6764 36.2147 77.6764H17.9634C17.4515 77.6764 17.0396 78.0436 17.0396 78.4998C17.0396 78.9449 17.4515 79.3122 17.9634 79.3122H36.2023C36.7016 79.3122 37.1261 78.9449 37.1261 78.4998Z" fill="black"/>
<path d="M50.1089 56.0999H64.4153C64.9272 56.0999 65.3392 55.7327 65.3392 55.2765C65.3392 54.8314 64.9272 54.4642 64.4153 54.4642H50.1089C49.6095 54.4642 49.1975 54.8314 49.1975 55.2765C49.1851 55.7327 49.6095 56.0999 50.1089 56.0999Z" fill="black"/>
<path d="M50.1086 71.0331H68.3475C68.8593 71.0331 69.2713 70.6659 69.2713 70.2097C69.2713 69.7534 68.8593 69.3862 68.3475 69.3862H50.1086C49.6092 69.3862 49.1973 69.7534 49.1973 70.2097C49.1973 70.6659 49.6092 71.0331 50.1086 71.0331Z" fill="black"/>
<path d="M50.1089 62.7431H68.3478C68.8596 62.7431 69.2716 62.3759 69.2716 61.9197C69.2716 61.4746 68.8596 61.1074 68.3478 61.1074H50.1089C49.6095 61.1074 49.1975 61.4746 49.1975 61.9197C49.1851 62.3759 49.6095 62.7431 50.1089 62.7431Z" fill="black"/>
<path d="M50.1089 79.3122H68.3478C68.8596 79.3122 69.2716 78.9449 69.2716 78.4998C69.2716 78.0436 68.8596 77.6764 68.3478 77.6764H50.1089C49.6095 77.6764 49.1975 78.0436 49.1975 78.4998C49.1851 78.9449 49.6095 79.3122 50.1089 79.3122Z" fill="black"/>
</svg>
