<svg width="100" height="100" viewBox="0 0 100 100" fill="none" xmlns="http://www.w3.org/2000/svg">
<circle cx="50" cy="50" r="50" fill="#D9D9D9"/>
<path d="M62.8422 41.25H55.8334V35.4167C55.8334 32.4067 56.0784 30.5109 60.3922 30.5109H62.9238C64.5338 30.5109 65.8405 29.2042 65.8405 27.5942V23.9367C65.8405 22.4113 64.6709 21.1075 63.1484 21.0054C61.3867 20.8859 59.6222 20.8304 57.8547 20.8334C49.9417 20.8334 44.1667 25.6663 44.1667 34.5388V41.25H38.3334C36.7234 41.25 35.4167 42.5567 35.4167 44.1667V50C35.4167 51.61 36.7234 52.9167 38.3334 52.9167L44.1667 52.9138V76.25C44.1667 77.86 45.4734 79.1667 47.0834 79.1667H52.9167C54.5267 79.1667 55.8334 77.86 55.8334 76.25V52.9079L62.1742 52.905C63.6559 52.905 64.9013 51.7938 65.0705 50.3209L65.7384 44.4992C65.9397 42.7696 64.5863 41.25 62.8422 41.25Z" fill="black"/>
</svg>
