<svg width="100" height="100" viewBox="0 0 100 100" fill="none" xmlns="http://www.w3.org/2000/svg">
<circle cx="50" cy="50" r="50" fill="#D9D9D9"/>
<path d="M73.8575 34.9362C73.8925 35.5854 73.8925 36.2377 73.8925 36.8931C73.8925 56.9142 61.5075 80 38.8675 80V79.9877C32.18 80 25.63 77.6431 20 73.197C20.9725 73.3417 21.95 73.4124 22.93 73.4155C28.475 73.4217 33.86 71.1325 38.2175 66.9171C32.95 66.7941 28.33 62.5665 26.7175 56.3943C28.5625 56.8312 30.4625 56.7419 32.275 56.1358C26.53 54.7081 22.4 48.4959 22.4 41.2838C22.4 41.2191 22.4 41.1545 22.4 41.093C24.1125 42.2683 26.0275 42.9176 27.9875 42.9883C22.5775 38.5423 20.9075 29.687 24.175 22.7641C30.425 32.2285 39.6475 37.9823 49.545 38.5946C48.5525 33.3331 49.91 27.8194 53.105 24.1179C58.0625 18.3795 65.86 18.6749 70.5225 24.7763C73.28 24.1087 75.9225 22.8625 78.34 21.0995C77.42 24.6071 75.4975 27.5855 72.9275 29.4809C75.37 29.1209 77.7525 28.3178 80 27.0932C78.3475 30.1363 76.2675 32.7916 73.8575 34.9362Z" fill="#1A191E"/>
</svg>
