<svg width="100" height="100" viewBox="0 0 100 100" fill="none" xmlns="http://www.w3.org/2000/svg">
<circle cx="50" cy="50" r="50" fill="#D9D9D9"/>
<path d="M83.5358 32.807C82.7308 29.7344 80.3596 27.3125 77.3467 26.4904C71.8896 25 50 25 50 25C50 25 28.1104 25 22.6504 26.4904C19.6404 27.3125 17.2692 29.7315 16.4642 32.807C15 38.3783 15 50 15 50C15 50 15 61.6217 16.4642 67.193C17.2692 70.2656 19.6404 72.6875 22.6533 73.5096C28.1104 75 50 75 50 75C50 75 71.8896 75 77.3496 73.5096C80.3596 72.6875 82.7308 70.2685 83.5388 67.193C85 61.6217 85 50 85 50C85 50 85 38.3783 83.5358 32.807ZM42.8425 60.5542V39.4458L61.1358 50L42.8425 60.5542Z" fill="#1A191E"/>
</svg>
