<svg width="60" height="51" viewBox="0 0 60 51" fill="none" xmlns="http://www.w3.org/2000/svg">
<path d="M56.8965 20.8625V13.0847C56.8965 11.2514 55.5 9.75138 53.7931 9.75138H51.7241V4.19582C51.7241 2.36249 50.3276 0.862488 48.6207 0.862488H5.17241C2.31724 0.862488 0 3.35138 0 6.41804V45.3069C0 48.3736 2.31724 50.8625 5.17241 50.8625H53.7931C55.5 50.8625 56.8965 49.3625 56.8965 47.5292V38.6403C58.6034 38.6403 60 37.1403 60 35.3069V24.1958C60 22.3625 58.6034 20.8625 56.8965 20.8625ZM5.17241 3.08471H48.6207C49.1897 3.08471 49.6552 3.58471 49.6552 4.19582V9.75138H5.17241C3.46552 9.75138 2.06897 8.25138 2.06897 6.41804C2.06897 4.58471 3.46552 3.08471 5.17241 3.08471ZM54.8276 47.5292C54.8276 48.1403 54.3621 48.6403 53.7931 48.6403H5.17241C3.46552 48.6403 2.06897 47.1403 2.06897 45.3069V10.8292C2.93793 11.5292 4.00345 11.9736 5.17241 11.9736H53.7931C54.3621 11.9736 54.8276 12.4736 54.8276 13.0847V20.8625H50.6897C47.8345 20.8625 45.5172 23.3514 45.5172 26.418V33.0847C45.5172 36.1514 47.8345 38.6403 50.6897 38.6403H54.8276V47.5292ZM57.931 35.3069C57.931 35.918 57.4655 36.418 56.8965 36.418H50.6897C48.9828 36.418 47.5862 34.918 47.5862 33.0847V26.418C47.5862 24.5847 48.9828 23.0847 50.6897 23.0847H56.8965C57.4655 23.0847 57.931 23.5847 57.931 24.1958V35.3069Z" fill="black"/>
<path d="M16.9652 37.7514C16.5101 38.1181 16.4066 38.8181 16.748 39.307C17.0894 39.7959 17.7411 39.907 18.1963 39.5403C21.9618 36.5403 25.6135 36.5403 29.379 39.5403C29.5652 39.6848 29.7825 39.7625 29.9997 39.7625C30.3204 39.7625 30.6308 39.607 30.8273 39.3181C31.1687 38.8292 31.0756 38.1292 30.6101 37.7625C26.079 34.1514 21.4859 34.1514 16.9652 37.7625V37.7514Z" fill="black"/>
<path d="M52.7587 26.4181C51.0518 26.4181 49.6553 27.9181 49.6553 29.7514C49.6553 31.5848 51.0518 33.0848 52.7587 33.0848C54.4656 33.0848 55.8622 31.5848 55.8622 29.7514C55.8622 27.9181 54.4656 26.4181 52.7587 26.4181ZM52.7587 30.8625C52.1898 30.8625 51.7242 30.3625 51.7242 29.7514C51.7242 29.1403 52.1898 28.6403 52.7587 28.6403C53.3277 28.6403 53.7932 29.1403 53.7932 29.7514C53.7932 30.3625 53.3277 30.8625 52.7587 30.8625Z" fill="black"/>
<path d="M36.1136 21.8403C35.7102 21.4069 35.0584 21.4069 34.655 21.8403L32.586 24.0625L30.5171 21.8403C30.1136 21.4069 29.4619 21.4069 29.0584 21.8403C28.655 22.2736 28.655 22.9736 29.0584 23.4069L31.1274 25.6291L29.0584 27.8514C28.655 28.2847 28.655 28.9847 29.0584 29.418C29.2653 29.6403 29.524 29.7403 29.7929 29.7403C30.0619 29.7403 30.3205 29.6291 30.5274 29.418L32.5964 27.1958L34.6653 29.418C34.8722 29.6403 35.1309 29.7403 35.3998 29.7403C35.6688 29.7403 35.9274 29.6291 36.1343 29.418C36.5378 28.9847 36.5378 28.2847 36.1343 27.8514L34.0653 25.6291L36.1343 23.4069C36.5378 22.9736 36.5378 22.2736 36.1343 21.8403H36.1136Z" fill="black"/>
<path d="M7.70733 7.52917H44.7935C45.3625 7.52917 45.828 7.02917 45.828 6.41806C45.828 5.80695 45.3625 5.30695 44.7935 5.30695H7.70733C7.13837 5.30695 6.67285 5.80695 6.67285 6.41806C6.67285 7.02917 7.13837 7.52917 7.70733 7.52917Z" fill="black"/>
<path d="M17.0695 29.4292C17.2764 29.6514 17.535 29.7514 17.8039 29.7514C18.0729 29.7514 18.3315 29.6403 18.5384 29.4292C18.9419 28.9959 18.9419 28.2959 18.5384 27.8625L16.4695 25.6403L18.5384 23.4181C18.9419 22.9848 18.9419 22.2848 18.5384 21.8514C18.135 21.4181 17.4832 21.4181 17.0798 21.8514L15.0108 24.0737L12.9419 21.8514C12.5384 21.4181 11.8867 21.4181 11.4833 21.8514C11.0798 22.2848 11.0798 22.9848 11.4833 23.4181L13.5522 25.6403L11.4833 27.8625C11.0798 28.2959 11.0798 28.9959 11.4833 29.4292C11.6901 29.6514 11.9488 29.7514 12.2177 29.7514C12.4867 29.7514 12.7453 29.6403 12.9522 29.4292L15.0212 27.207L17.0901 29.4292H17.0695Z" fill="black"/>
</svg>
