<svg width="52" height="54" viewBox="0 0 52 54" fill="none" xmlns="http://www.w3.org/2000/svg">
<path d="M28.6098 4.41001C28.88 4.41087 29.1436 4.3262 29.3627 4.16813C29.5819 4.01006 29.7454 3.78668 29.8298 3.53001L30.7098 0.850006L31.5898 3.53001C31.6743 3.78668 31.8378 4.01006 32.0569 4.16813C32.2761 4.3262 32.5396 4.41087 32.8098 4.41001H35.1298L33.2798 5.71001C33.0546 5.86802 32.8863 6.09439 32.7999 6.35557C32.7134 6.61674 32.7134 6.89882 32.7998 7.16001L33.5798 9.52001L31.4398 8.00001C31.2275 7.85555 30.9766 7.77831 30.7198 7.77831C30.463 7.77831 30.2122 7.85555 29.9998 8.00001L27.8698 9.49001L28.6498 7.13001C28.7363 6.86882 28.7363 6.58674 28.6498 6.32557C28.5633 6.06439 28.395 5.83802 28.1698 5.68001L26.3198 4.38001H28.6398L28.6098 4.41001Z" fill="black"/>
<path d="M15.7901 9C15.7876 7.39869 16.1459 5.8174 16.8384 4.37356C17.5309 2.92972 18.5398 1.66045 19.7901 0.660004C18.9793 2.58692 18.6583 4.68463 18.8558 6.76584C19.0532 8.84704 19.763 10.847 20.9217 12.587C22.0804 14.3271 23.652 15.7531 25.4962 16.7378C27.3403 17.7224 29.3996 18.2351 31.4901 18.23H31.8001C30.1792 19.1705 28.339 19.6671 26.465 19.6697C24.591 19.6724 22.7494 19.1809 21.1259 18.2449C19.5024 17.3089 18.1543 15.9615 17.2175 14.3384C16.2807 12.7154 15.7884 10.874 15.7901 9ZM26.6601 29.72H24.0001L25.0001 21.08H25.8001L26.6601 29.72ZM2.32011 51.5C2.51914 51.4575 2.70045 51.3552 2.83982 51.2069C2.9792 51.0586 3.07 50.8713 3.10011 50.67C3.89641 45.2079 6.63054 40.2143 10.8034 36.6009C14.9762 32.9875 20.3093 30.9953 25.8292 30.988C31.3491 30.9807 36.6875 32.9589 40.8698 36.5612C45.0521 40.1636 47.7994 45.15 48.6101 50.61C48.6402 50.8172 48.7346 51.0097 48.8799 51.1604C49.0252 51.3111 49.2142 51.4124 49.4201 51.45C50.0764 51.4991 50.6983 51.7626 51.1901 52.2V52.31C51.1901 52.5 51.1901 52.78 51.1901 52.83C50.8158 52.9921 50.4048 53.0508 50.0001 53H1.87011C1.51081 53.0306 1.14914 52.9829 0.810108 52.86C0.790511 52.6772 0.790511 52.4928 0.810108 52.31V52.22C1.22372 51.825 1.75284 51.5727 2.32011 51.5Z" fill="black"/>
</svg>
