<svg width="62" height="90" viewBox="0 0 62 90" fill="none" xmlns="http://www.w3.org/2000/svg">
<path d="M49.2569 13.653L48.6909 13.115C48.8119 12.989 48.9269 12.857 49.0369 12.72L49.2859 12.41L49.5919 12.667C49.7309 12.785 49.8749 12.923 50.0219 13.075L49.4619 13.617C49.4319 13.587 49.4019 13.556 49.3729 13.527C49.3349 13.569 49.2959 13.612 49.2569 13.653Z" fill="black"/>
<path d="M53.7677 16.351L53.5937 15.591C53.8357 15.535 54.0877 15.415 54.3447 15.231L54.7977 15.867C54.4577 16.109 54.1107 16.273 53.7677 16.351ZM52.5847 16.301C52.2587 16.201 51.9357 16.031 51.5957 15.782L52.0577 15.153C52.3257 15.35 52.5737 15.482 52.8157 15.557L52.5847 16.301ZM55.5887 15.136L55.0077 14.616C55.1967 14.405 55.3907 14.158 55.5877 13.872L56.2297 14.316C56.0177 14.622 55.8027 14.899 55.5887 15.136ZM50.8047 15.085C50.5677 14.844 50.3387 14.59 50.1177 14.34L50.7017 13.822C50.9137 14.06 51.1337 14.307 51.3607 14.536L50.8047 15.085Z" fill="black"/>
<path d="M44.9526 15.686L44.8986 14.906C45.2466 14.882 45.5976 14.825 45.9416 14.736L46.1376 15.492C45.7466 15.593 45.3486 15.659 44.9526 15.686ZM43.7546 15.66C43.3586 15.616 42.9626 15.535 42.5796 15.418L42.8056 14.671C43.1436 14.773 43.4916 14.845 43.8416 14.884L43.7546 15.66ZM47.2646 15.085L46.9336 14.377C47.2506 14.229 47.5586 14.049 47.8486 13.845L48.2996 14.481C47.9716 14.713 47.6236 14.916 47.2646 15.085ZM41.4676 14.966C41.1146 14.781 40.7746 14.563 40.4596 14.318L40.9386 13.702C41.2176 13.919 41.5166 14.111 41.8296 14.274L41.4676 14.966ZM55.1436 13.841C54.7196 13.841 54.3136 13.696 53.9356 13.411L54.4086 12.788C54.6506 12.972 54.8906 13.061 55.1436 13.061V13.841ZM39.5826 13.499C39.3156 13.198 39.0766 12.875 38.8696 12.538L39.5356 12.131C39.7176 12.429 39.9296 12.716 40.1656 12.981L39.5826 13.499ZM53.0976 12.489C52.9086 12.214 52.7106 11.884 52.4956 11.479L53.1856 11.113C53.3856 11.491 53.5666 11.796 53.7396 12.045L53.0976 12.489ZM38.3406 11.464C38.1956 11.089 38.0846 10.702 38.0106 10.311L38.7776 10.165C38.8426 10.51 38.9406 10.852 39.0686 11.183L38.3406 11.464ZM51.9856 10.448L51.5066 9.42L52.2146 9.091L52.6916 10.115L51.9856 10.448ZM37.8926 9.117C37.8926 8.842 37.9036 8.619 37.9256 8.395C37.9416 8.235 37.9626 8.079 37.9896 7.926L38.7586 8.059C38.7356 8.195 38.7176 8.333 38.7026 8.473C38.6826 8.67 38.6726 8.868 38.6726 9.063L37.8926 9.117ZM51.0276 8.406C50.8656 8.074 50.6976 7.742 50.5196 7.414L51.2056 7.042C51.3886 7.378 51.5626 7.721 51.7296 8.064L51.0276 8.406ZM39.0286 7.034L38.2946 6.77C38.4286 6.397 38.5996 6.031 38.8036 5.683L39.4766 6.077C39.2976 6.384 39.1466 6.705 39.0286 7.034ZM49.9606 6.463C49.7626 6.153 49.5536 5.854 49.3316 5.571L49.9436 5.088C50.1836 5.391 50.4076 5.711 50.6186 6.043L49.9606 6.463ZM40.0886 5.216L39.4966 4.706C39.7566 4.404 40.0456 4.123 40.3556 3.871L40.8476 4.476C40.5736 4.7 40.3186 4.948 40.0886 5.216ZM48.6116 4.779C48.3436 4.525 48.0656 4.306 47.7856 4.127L48.2056 3.469C48.5276 3.675 48.8446 3.925 49.1476 4.211L48.6116 4.779ZM41.7256 3.888L41.3506 3.202C41.7036 3.01 42.0726 2.849 42.4506 2.725L42.6946 3.465C42.3626 3.575 42.0366 3.717 41.7256 3.888ZM46.8276 3.657C46.4766 3.51 46.1536 3.403 45.8266 3.327L46.0026 2.567C46.3736 2.653 46.7416 2.774 47.0946 2.924L46.8276 3.657ZM43.7236 3.228L43.6186 2.455C44.0076 2.403 44.4106 2.386 44.8156 2.402L44.7806 3.182C44.4286 3.164 44.0686 3.18 43.7236 3.228Z" fill="black"/>
<path d="M17.5167 14.339C17.3427 14.339 17.1707 14.332 16.9997 14.319L17.0587 13.542C17.3987 13.566 17.7467 13.564 18.0857 13.532L18.1577 14.309C17.9457 14.329 17.7327 14.339 17.5167 14.339ZM15.8587 14.14C15.4857 14.047 15.1157 13.923 14.7627 13.77L15.0717 13.054C15.3877 13.19 15.7157 13.301 16.0467 13.383L15.8587 14.14ZM19.2947 14.108L19.0947 13.355C19.4267 13.266 19.7527 13.15 20.0627 13.01L20.3847 13.72C20.0357 13.878 19.6697 14.009 19.2947 14.108ZM13.7407 13.224C13.4207 13.016 13.1127 12.779 12.8267 12.518L13.3517 11.941C13.6067 12.173 13.8797 12.384 14.1647 12.568L13.7407 13.224ZM21.3957 13.156L20.9597 12.507C21.2417 12.319 21.5117 12.102 21.7607 11.867L22.2967 12.433C22.0157 12.699 21.7137 12.943 21.3957 13.156ZM12.0387 11.67C11.8007 11.366 11.5857 11.042 11.4027 10.706L12.0867 10.331C12.2497 10.628 12.4407 10.917 12.6527 11.186L12.0387 11.67ZM23.0687 11.574L22.4457 11.101C22.6537 10.828 22.8397 10.537 22.9987 10.235L23.6887 10.599C23.5097 10.939 23.3007 11.267 23.0687 11.574ZM10.9327 9.65199C10.8057 9.28999 10.7077 8.91399 10.6407 8.53299L11.4097 8.39999C11.4687 8.73799 11.5557 9.07199 11.6687 9.39299L10.9327 9.65199ZM24.1437 9.53599L23.4037 9.29199C23.5117 8.96399 23.5927 8.62799 23.6467 8.29099L24.4177 8.41299C24.3567 8.79099 24.2657 9.16899 24.1437 9.53599ZM10.7697 7.35599L10.5327 7.31999C10.5327 6.91799 10.5627 6.53199 10.6257 6.15199L11.3967 6.27799C11.3407 6.61599 11.3127 6.96099 11.3127 7.30299L10.7697 7.35599ZM23.7247 7.26699C23.7227 6.92499 23.6917 6.57999 23.6357 6.24199L24.4047 6.11099C24.4687 6.49099 24.5027 6.87799 24.5047 7.26199L23.7247 7.26699ZM11.6447 5.28099L10.9047 5.03099C11.0277 4.66599 11.1837 4.30899 11.3657 3.96899L12.0537 4.33699C11.8907 4.63899 11.7537 4.95599 11.6447 5.28099ZM23.3797 5.24799C23.2667 4.92099 23.1267 4.60399 22.9657 4.30599L23.6517 3.93399C23.8337 4.26999 23.9907 4.62699 24.1177 4.99299L23.3797 5.24799ZM12.6087 3.47299L11.9907 2.99799C12.2227 2.69499 12.4837 2.40699 12.7667 2.14199L13.3007 2.71299C13.0477 2.94799 12.8157 3.20399 12.6087 3.47299ZM22.4037 3.44499C22.1937 3.17499 21.9597 2.92099 21.7087 2.68899L22.2377 2.11599C22.5197 2.37599 22.7837 2.66199 23.0197 2.96499L22.4037 3.44499ZM14.1057 2.07599L13.6747 1.42499C13.9957 1.21199 14.3367 1.02399 14.6867 0.868994L15.0047 1.58099C14.6937 1.71899 14.3917 1.88499 14.1057 2.07599ZM20.8977 2.05399C20.6147 1.86799 20.3107 1.70299 19.9957 1.56499L20.3097 0.850994C20.6647 1.00699 21.0067 1.19199 21.3267 1.40299L20.8977 2.05399ZM15.9737 1.24199L15.7777 0.485994C16.1497 0.388994 16.5337 0.323994 16.9187 0.290994L16.9867 1.06799C16.6437 1.09799 16.3037 1.15599 15.9737 1.24199ZM19.0277 1.23299C18.6947 1.14899 18.3537 1.09299 18.0127 1.06499L18.0757 0.287994C18.4587 0.317994 18.8437 0.381994 19.2167 0.474994L19.0277 1.23299Z" fill="black"/>
<path d="M53.8351 33.49L53.8111 33.282H53.6021V32.502H54.5081L54.6111 33.401L53.8351 33.49Z" fill="black"/>
<path d="M56.042 52.993L55.919 51.91L56.694 51.823L56.817 52.906L56.042 52.993ZM55.797 50.826L55.674 49.743L56.449 49.656L56.572 50.739L55.797 50.826ZM55.551 48.659L55.429 47.576L56.204 47.489L56.326 48.572L55.551 48.659ZM55.306 46.491L55.184 45.408L55.959 45.321L56.081 46.404L55.306 46.491ZM55.061 44.324L54.939 43.241L55.714 43.154L55.836 44.237L55.061 44.324ZM54.816 42.157L54.693 41.074L55.468 40.987L55.591 42.07L54.816 42.157ZM54.571 39.991L54.448 38.908L55.223 38.821L55.346 39.904L54.571 39.991ZM54.326 37.824L54.203 36.741L54.978 36.654L55.101 37.737L54.326 37.824ZM54.081 35.657L53.958 34.574L54.733 34.487L54.856 35.57L54.081 35.657Z" fill="black"/>
<path d="M56.31 55.373L56.165 54.075L56.67 54.018L56.957 54.13L57.291 54.511L56.31 55.373Z" fill="black"/>
<path d="M57.974 53.914L57.46 53.326L58.143 52.728L58.657 53.316L57.974 53.914ZM59.338 52.717L58.824 52.131L59.507 51.532L60.021 52.118L59.338 52.717Z" fill="black"/>
<path d="M60.703 51.522L60.189 50.934L60.446 50.709L60.391 50.372L61.162 50.248L61.284 51.012L60.703 51.522Z" fill="black"/>
<path d="M60.2149 49.282L60.0389 48.192L60.8099 48.068L60.9859 49.158L60.2149 49.282ZM59.8629 47.102L59.6869 46.013L60.4579 45.889L60.6339 46.978L59.8629 47.102ZM59.5109 44.923L59.3359 43.833L60.1069 43.709L60.2819 44.799L59.5109 44.923ZM59.1589 42.743L58.9829 41.653L59.7539 41.529L59.9299 42.619L59.1589 42.743ZM58.8069 40.563L58.6309 39.474L59.4019 39.35L59.5779 40.439L58.8069 40.563ZM58.4539 38.384L58.2789 37.294L59.0499 37.17L59.2249 38.26L58.4539 38.384ZM58.1029 36.205L57.9269 35.115L58.6979 34.991L58.8739 36.081L58.1029 36.205ZM57.7509 34.025L57.5749 32.936L58.3459 32.812L58.5219 33.901L57.7509 34.025ZM57.3979 31.846L57.2219 30.756L57.9929 30.632L58.1689 31.722L57.3979 31.846ZM57.0459 29.666L56.8699 28.576L57.6409 28.452L57.8169 29.542L57.0459 29.666ZM56.6939 27.486L56.5189 26.397L57.2899 26.273L57.4649 27.362L56.6939 27.486ZM56.3419 25.307L56.1659 24.217L56.9369 24.093L57.1129 25.183L56.3419 25.307ZM55.9899 23.127L55.8139 22.037L56.5849 21.913L56.7609 23.003L55.9899 23.127ZM55.6369 20.948L55.4619 19.858L56.2329 19.734L56.4079 20.824L55.6369 20.948Z" fill="black"/>
<path d="M55.2859 18.768L55.2499 18.546L55.0229 18.545L55.0249 17.766L55.9139 17.767L56.0569 18.644L55.2859 18.768Z" fill="black"/>
<path d="M53.947 18.544L52.869 18.543V17.763L53.947 17.764V18.544ZM51.79 18.542L50.713 18.54L50.715 17.76L51.792 17.762L51.79 18.542ZM49.637 18.539L48.559 18.538V17.758L49.637 17.759V18.539ZM47.481 18.536L46.404 18.535V17.755L47.481 17.756V18.536ZM45.326 18.533L44.248 18.532V17.752L45.326 17.753V18.533ZM43.17 18.531L42.093 18.53V17.75L43.17 17.751V18.531ZM41.014 18.529L39.936 18.527L39.938 17.747L41.016 17.749L41.014 18.529ZM38.859 18.526L37.781 18.525V17.745L38.859 17.746V18.526ZM36.704 18.523L35.626 18.522V17.742L36.704 17.743V18.523Z" fill="black"/>
<path d="M34.3008 18.736L33.5278 18.629L33.6508 17.741H34.5478V18.52H34.3298L34.3008 18.736Z" fill="black"/>
<path d="M32.8825 28.9677L32.1099 28.8611L31.9528 29.9993L32.7255 30.1059L32.8825 28.9677Z" fill="black"/>
<path d="M33.197 26.6948L32.4243 26.5881L32.2674 27.7253L33.0401 27.832L33.197 26.6948Z" fill="black"/>
<path d="M33.5119 24.4197L32.7393 24.3131L32.5823 25.4503L33.355 25.5569L33.5119 24.4197Z" fill="black"/>
<path d="M33.8283 22.1448L33.0557 22.0382L32.8987 23.1754L33.6714 23.282L33.8283 22.1448Z" fill="black"/>
<path d="M34.1418 19.8707L33.3691 19.7641L33.2122 20.9013L33.9849 21.0079L34.1418 19.8707Z" fill="black"/>
<path d="M32.5679 31.245L31.0269 31.301L31.1769 32.41L32.4099 32.383L32.5679 31.245Z" fill="black"/>
<path d="M31.6493 30.0861L31.499 28.9773L30.7261 29.082L30.8764 30.1909L31.6493 30.0861Z" fill="black"/>
<path d="M31.3485 27.8687L31.1982 26.7599L30.4253 26.8646L30.5756 27.9735L31.3485 27.8687Z" fill="black"/>
<path d="M31.0493 25.6544L30.8979 24.5457L30.1251 24.6512L30.2765 25.7599L31.0493 25.6544Z" fill="black"/>
<path d="M30.7465 23.4352L30.5962 22.3264L29.8233 22.4311L29.9736 23.54L30.7465 23.4352Z" fill="black"/>
<path d="M30.4452 21.2179L30.2949 20.1091L29.522 20.2139L29.6723 21.3227L30.4452 21.2179Z" fill="black"/>
<path d="M30.1444 19.0026L29.9941 17.8938L29.2212 17.9986L29.3715 19.1074L30.1444 19.0026Z" fill="black"/>
<path d="M29.0717 16.892L29.0427 16.677H28.8257V15.897H29.7237L29.8447 16.788L29.0717 16.892Z" fill="black"/>
<path d="M27.6979 16.676L26.5699 16.675V15.895L27.6979 15.896V16.676ZM25.4409 16.673L24.3129 16.672V15.892L25.4409 15.893V16.673ZM23.1839 16.67L22.0559 16.669V15.889L23.1839 15.89V16.67ZM20.9259 16.668L19.7979 16.667V15.887L20.9259 15.888V16.668ZM18.6699 16.666L17.5409 16.665V15.885L18.6699 15.886V16.666ZM16.4129 16.664L15.2839 16.663V15.883L16.4129 15.884V16.664ZM14.1559 16.66L13.0279 16.659V15.879L14.1559 15.88V16.66ZM11.8979 16.658L10.7699 16.657V15.877L11.8979 15.878V16.658ZM9.64086 16.656L8.51286 16.655V15.875L9.64086 15.876V16.656ZM7.38386 16.654L6.25586 16.653V15.873L7.38386 15.874V16.654Z" fill="black"/>
<path d="M4.90691 16.852L4.12891 16.78L4.21291 15.87L5.12791 15.872L5.12591 16.652H4.92491L4.90691 16.852Z" fill="black"/>
<path d="M1.66372 52.395L0.886719 52.323L0.98772 51.212L1.76472 51.284L1.66372 52.395ZM1.86672 50.174L1.08972 50.102L1.19072 48.991L1.96772 49.063L1.86672 50.174ZM2.06872 47.952L1.29172 47.88L1.39272 46.769L2.16972 46.841L2.06872 47.952ZM2.27172 45.731L1.49472 45.659L1.59572 44.548L2.37272 44.62L2.27172 45.731ZM2.47372 43.51L1.69672 43.438L1.79872 42.327L2.57572 42.399L2.47372 43.51ZM2.67772 41.287L1.89972 41.216L2.00072 40.105L2.77772 40.177L2.67772 41.287ZM2.87972 39.066L2.10272 38.994L2.20372 37.883L2.98072 37.955L2.87972 39.066ZM3.08272 36.845L2.30572 36.773L2.40672 35.662L3.18372 35.734L3.08272 36.845ZM3.28472 34.623L2.50772 34.551L2.60872 33.44L3.38572 33.512L3.28472 34.623ZM3.48872 32.402L2.71172 32.33L2.81272 31.219L3.58972 31.291L3.48872 32.402ZM3.69172 30.181L2.91472 30.109L3.01572 28.998L3.79272 29.07L3.69172 30.181ZM3.89372 27.96L3.11672 27.888L3.21772 26.777L3.99472 26.849L3.89372 27.96ZM4.09672 25.737L3.31972 25.665L3.42072 24.554L4.19772 24.626L4.09672 25.737ZM4.29872 23.516L3.52172 23.444L3.62372 22.333L4.40072 22.405L4.29872 23.516ZM4.50272 21.295L3.72572 21.223L3.82672 20.112L4.60372 20.184L4.50272 21.295ZM4.70472 19.073L3.92772 19.001L4.02872 17.89L4.80572 17.962L4.70472 19.073Z" fill="black"/>
<path d="M1.31882 54.676L0.71582 54.2L0.783821 53.436L1.56182 53.506L1.52982 53.85L1.80182 54.064L1.31882 54.676Z" fill="black"/>
<path d="M3.9608 55.7611L2.88135 54.9126L2.39931 55.5258L3.47876 56.3743L3.9608 55.7611Z" fill="black"/>
<path d="M5.57764 58.022L4.55664 57.222L4.87464 56.817L4.88364 56.676L4.97964 56.683L5.03864 56.608L5.14864 56.694L5.66364 56.729L5.57764 58.022Z" fill="black"/>
<path d="M5.73459 55.635L4.95459 55.583L5.02759 54.49L5.80759 54.542L5.73459 55.635ZM5.87959 53.449L5.09959 53.397L5.17259 52.304L5.95259 52.356L5.87959 53.449ZM6.02459 51.261L5.24459 51.209L5.31759 50.116L6.09759 50.168L6.02459 51.261ZM6.16959 49.075L5.38959 49.023L5.46259 47.93L6.24259 47.982L6.16959 49.075ZM6.31459 46.889L5.53459 46.837L5.60759 45.744L6.38759 45.796L6.31459 46.889ZM6.45959 44.702L5.67959 44.65L5.75259 43.557L6.53259 43.609L6.45959 44.702ZM6.60359 42.515L5.82359 42.463L5.89659 41.37L6.67659 41.422L6.60359 42.515ZM6.74859 40.328L5.96859 40.276L6.04159 39.183L6.82159 39.235L6.74859 40.328ZM6.89359 38.142L6.11359 38.09L6.18659 36.997L6.96659 37.049L6.89359 38.142ZM7.03859 35.955L6.25859 35.903L6.33159 34.81L7.11159 34.862L7.03859 35.955Z" fill="black"/>
<path d="M7.18381 33.769L6.40381 33.716L6.46581 32.787L7.39781 32.811L7.37881 33.59L7.19581 33.586L7.18381 33.769Z" fill="black"/>
<path d="M8.57693 33.798L7.79793 33.759L7.80493 33.601L7.64893 33.597L7.66792 32.817L8.62593 32.841L8.57693 33.798Z" fill="black"/>
<path d="M7.54658 53.436L6.76758 53.826L6.82358 52.712L7.60358 52.751L7.54658 53.436Z" fill="black"/>
<path d="M7.71797 50.5187L6.93799 50.4795L6.88197 51.5941L7.66195 51.6333L7.71797 50.5187Z" fill="black"/>
<path d="M7.83223 48.2888L7.05225 48.2496L6.99622 49.3642L7.77621 49.4034L7.83223 48.2888Z" fill="black"/>
<path d="M7.94885 46.0628L7.16895 46.0214L7.1098 47.1358L7.8897 47.1772L7.94885 46.0628Z" fill="black"/>
<path d="M8.06311 43.8338L7.2832 43.7924L7.22406 44.9068L8.00396 44.9482L8.06311 43.8338Z" fill="black"/>
<path d="M8.17786 41.6038L7.39795 41.5624L7.3388 42.6768L8.11871 42.7182L8.17786 41.6038Z" fill="black"/>
<path d="M8.29211 39.3737L7.51221 39.3323L7.45306 40.4468L8.23297 40.4882L8.29211 39.3737Z" fill="black"/>
<path d="M8.40588 37.1447L7.62598 37.1033L7.56683 38.2177L8.34674 38.2591L8.40588 37.1447Z" fill="black"/>
<path d="M8.52112 34.9147L7.74121 34.8733L7.68206 35.9878L8.46197 36.0291L8.52112 34.9147Z" fill="black"/>
<path d="M54.6197 53.096L54.5347 52.353L55.3107 52.263L55.4367 53.373L54.6197 53.096Z" fill="black"/>
<path d="M55.182 51.1551L55.0557 50.0453L54.2807 50.1335L54.407 51.2434L55.182 51.1551Z" fill="black"/>
<path d="M54.9296 48.9367L54.8032 47.8268L54.0282 47.9151L54.1545 49.0249L54.9296 48.9367Z" fill="black"/>
<path d="M54.6756 46.7172L54.5493 45.6074L53.7743 45.6956L53.9006 46.8055L54.6756 46.7172Z" fill="black"/>
<path d="M54.4253 44.5004L54.2979 43.3907L53.5229 43.4797L53.6504 44.5894L54.4253 44.5004Z" fill="black"/>
<path d="M54.1693 42.2804L54.043 41.1706L53.268 41.2588L53.3943 42.3687L54.1693 42.2804Z" fill="black"/>
<path d="M53.9185 40.0625L53.791 38.9527L53.0161 39.0417L53.1435 40.1515L53.9185 40.0625Z" fill="black"/>
<path d="M53.663 37.8416L53.5366 36.7317L52.7616 36.8199L52.8879 37.9298L53.663 37.8416Z" fill="black"/>
<path d="M53.409 35.6222L53.2827 34.5124L52.5077 34.6006L52.634 35.7105L53.409 35.6222Z" fill="black"/>
<path d="M52.3816 33.49L52.2676 32.502H53.2636V33.282H53.1436L53.1566 33.401L52.3816 33.49Z" fill="black"/>
<path d="M21.5208 37.041C24.3817 37.041 26.7008 34.7039 26.7008 31.821C26.7008 28.9381 24.3817 26.601 21.5208 26.601C18.66 26.601 16.3408 28.9381 16.3408 31.821C16.3408 34.7039 18.66 37.041 21.5208 37.041Z" fill="black"/>
<path d="M41.2396 41.611C43.8726 41.611 46.0096 39.46 46.0096 36.805C46.0096 34.152 43.8726 32.002 41.2396 32.002C38.6086 32.002 36.4746 34.152 36.4746 36.805C36.4746 39.46 38.6086 41.611 41.2396 41.611Z" fill="black"/>
<path d="M57.0017 12.127C56.5267 12.493 55.9227 12.957 55.8477 13.004L56.5277 13.656C56.5797 13.568 56.9407 12.89 57.2257 12.352L57.0017 12.127Z" fill="black"/>
<path d="M31.9457 35.71L32.2527 33.52L31.3267 33.518L31.6257 35.71H31.9457Z" fill="black"/>
<path d="M46.3746 42.981L35.3927 42.965L32.4026 47.05L28.2946 38.689L14.5886 38.671L4.63965 60.918L8.03165 60.779L14.0856 48.654L15.2276 48.679L12.9426 74.1L16.0816 74.102L18.0826 89.683H21.3336L21.3927 74.102H22.7696L22.7276 89.683H25.7127L27.9706 74.102L31.2887 74.088L29.1087 58.114L32.4816 55.013L34.0676 57.91L32.3227 89.683H36.6556L41.2976 66.72L47.3496 89.683H51.0296L48.3256 53.057L57.5947 63.736L59.8847 61.814L46.3746 42.981ZM28.3536 52.582L27.8146 48.633H28.9876L29.9536 50.397L28.3536 52.582Z" fill="black"/>
</svg>
