<svg width="88" height="89" viewBox="0 0 88 89" fill="none" xmlns="http://www.w3.org/2000/svg">
<path d="M25.4098 26.51H24.2398V25.34C24.2398 25.1066 24.1471 24.8828 23.9821 24.7178C23.817 24.5527 23.5932 24.46 23.3598 24.46C23.1264 24.46 22.9026 24.5527 22.7376 24.7178C22.5725 24.8828 22.4798 25.1066 22.4798 25.34V26.51H21.3098C21.0764 26.51 20.8526 26.6027 20.6876 26.7678C20.5225 26.9328 20.4298 27.1566 20.4298 27.39C20.4298 27.6234 20.5225 27.8473 20.6876 28.0123C20.8526 28.1773 21.0764 28.27 21.3098 28.27H22.4798V29.45C22.4798 29.6834 22.5725 29.9073 22.7376 30.0723C22.9026 30.2373 23.1264 30.33 23.3598 30.33C23.5932 30.33 23.817 30.2373 23.9821 30.0723C24.1471 29.9073 24.2398 29.6834 24.2398 29.45V28.27H25.4098C25.6432 28.27 25.867 28.1773 26.0321 28.0123C26.1971 27.8473 26.2898 27.6234 26.2898 27.39C26.2898 27.1566 26.1971 26.9328 26.0321 26.7678C25.867 26.6027 25.6432 26.51 25.4098 26.51ZM86.5498 87.24H71.6998V51C75.2764 46.2511 77.144 40.4334 76.9998 34.49C76.9998 12 45.6098 1.48003 44.2698 1.00003C44.0932 0.950511 43.9064 0.950511 43.7298 1.00003C42.3898 1.48003 10.9998 12 10.9998 34.49C10.8557 40.4334 12.7233 46.2511 16.2998 51V87.24H1.44982C1.21643 87.24 0.992602 87.3327 0.82757 87.4978C0.662538 87.6628 0.569824 87.8866 0.569824 88.12C0.569824 88.3534 0.662538 88.5773 0.82757 88.7423C0.992602 88.9073 1.21643 89 1.44982 89H86.5498C86.7832 89 87.007 88.9073 87.1721 88.7423C87.3371 88.5773 87.4298 88.3534 87.4298 88.12C87.4298 87.8866 87.3371 87.6628 87.1721 87.4978C87.007 87.3327 86.7832 87.24 86.5498 87.24ZM29.5498 87.24H24.4498C25.1898 85.95 28.1998 82.96 31.0998 80.46C31.9367 80.835 32.8219 81.0909 33.7298 81.22L29.5498 87.24ZM31.6898 87.24L35.7898 81.34H49.4898C49.7232 81.34 49.947 81.2473 50.1121 81.0823C50.2771 80.9173 50.3698 80.6934 50.3698 80.46C50.3698 80.2266 50.2771 80.0028 50.1121 79.8378C49.947 79.6727 49.7232 79.58 49.4898 79.58H35.3098C29.7798 79.58 26.8298 74.65 26.8298 71.09V52.89C26.724 48.6402 27.9937 44.4699 30.4498 41L38.7198 47.21C38.9098 48.35 39.0798 49.37 39.2398 50.28V50.21C39.2068 50.099 39.1519 49.9957 39.0784 49.9062C39.0049 49.8167 38.9142 49.7428 38.8118 49.6887C38.7093 49.6347 38.5971 49.6017 38.4817 49.5916C38.3663 49.5815 38.2501 49.5946 38.1398 49.63C37.9171 49.6991 37.731 49.8538 37.6223 50.06C37.5135 50.2663 37.4911 50.5072 37.5598 50.73C38.2979 53.2293 39.3496 55.6251 40.6898 57.86L40.7398 57.95L40.8298 58.06C41.3062 58.8644 42.0492 59.4765 42.9298 59.79C45.1998 60.29 49.7298 55.34 52.1198 52.49L52.2098 52.59L55.7498 56.13C53.2898 59.22 47.5498 65.36 43.1998 65.78C42.9536 65.7999 42.7061 65.7999 42.4598 65.78C37.8598 65.49 34.1498 56.78 33.1098 53.39C33.0793 53.2756 33.0259 53.1684 32.953 53.0751C32.88 52.9817 32.789 52.9041 32.6853 52.8467C32.5816 52.7894 32.4674 52.7537 32.3495 52.7415C32.2317 52.7294 32.1126 52.7413 31.9994 52.7763C31.8862 52.8113 31.7813 52.8688 31.6908 52.9454C31.6004 53.022 31.5264 53.116 31.4732 53.2219C31.42 53.3278 31.3888 53.4433 31.3813 53.5615C31.3739 53.6798 31.3904 53.7983 31.4298 53.91C31.5898 54.45 35.5898 67.08 42.3298 67.54V69.36C40.5198 69.31 39.3298 69.36 39.1598 69.36C39.0443 69.3633 38.9305 69.3893 38.825 69.4366C38.7195 69.4838 38.6243 69.5514 38.5449 69.6355C38.4655 69.7195 38.4034 69.8183 38.3622 69.9264C38.3211 70.0344 38.3015 70.1495 38.3048 70.265C38.3081 70.3806 38.3341 70.4944 38.3814 70.5999C38.4286 70.7054 38.4962 70.8006 38.5802 70.88C38.6643 70.9594 38.7631 71.0214 38.8712 71.0626C38.9792 71.1038 39.0943 71.1233 39.2098 71.12C39.3498 71.12 52.5498 70.75 59.2798 74.72C62.5598 76.66 64.3798 80.15 63.5998 83.02C62.8598 85.7 60.0198 87.24 55.7898 87.24H31.6898ZM36.0598 30.6C34.0631 30.9396 32.2099 31.8575 30.7298 33.24C30.9098 28.72 33.7798 25.35 37.5698 25.35C40.6698 25.35 43.1598 27.6 44.0698 30.89C41.4417 30.2917 38.7244 30.1933 36.0598 30.6ZM44.3998 32.79C44.3998 33.08 44.3998 33.38 44.3998 33.68C44.3998 38.62 41.3198 42.68 37.5298 42.68C34.2898 42.68 31.5298 39.68 30.8598 35.76C31.5028 34.862 32.3172 34.1001 33.256 33.5183C34.1948 32.9365 35.2395 32.5462 36.3298 32.37C39.0208 31.9689 41.765 32.1117 44.3998 32.79ZM56.8998 51.19C56.9923 51.2581 57.0972 51.3071 57.2087 51.3344C57.3202 51.3617 57.436 51.3666 57.5494 51.349C57.6628 51.3313 57.7716 51.2914 57.8695 51.2315C57.9674 51.1716 58.0525 51.0929 58.1198 51C58.7385 50.1238 59.1895 49.1406 59.4498 48.1C59.5148 48.0766 59.5756 48.0429 59.6298 48C61.1398 46.65 62.0998 46.51 62.2498 46.61C62.3998 46.71 62.4298 47.16 61.9598 48.27C61.1398 50.22 57.9598 52.89 56.2498 54.19L53.9198 51.87C55.3998 49.65 57.0598 47.72 57.7598 47.42C57.627 48.3602 57.2513 49.2494 56.6698 50C56.5484 50.1901 56.5045 50.4195 56.5473 50.6409C56.5901 50.8624 56.7163 51.0589 56.8998 51.19ZM70.1298 50.19C70.0087 50.348 69.942 50.541 69.9398 50.74V87.24H62.5398C63.8732 86.3609 64.8375 85.023 65.2498 83.48C66.2498 79.81 64.1498 75.58 60.1398 73.2C55.6298 70.54 48.7098 69.7 44.0498 69.45V67.45C50.2998 66.17 57.2798 57 57.5998 56.58C57.7271 56.4108 57.789 56.2013 57.7743 55.9901C57.7597 55.7789 57.6693 55.58 57.5198 55.43C59.1298 54.2 62.5898 51.36 63.6098 48.93C64.6298 46.5 63.8398 45.54 63.2998 45.16C62.2998 44.45 60.7798 44.83 59.0698 46.16C58.9194 45.9857 58.7358 45.8429 58.5298 45.74C57.2198 45.08 55.2398 46.74 52.6698 50.57C52.581 50.4851 52.4757 50.4192 52.3605 50.3765C52.2452 50.3338 52.1224 50.3151 51.9997 50.3217C51.8769 50.3282 51.7568 50.3599 51.6468 50.4146C51.5367 50.4694 51.4391 50.5461 51.3598 50.64C48.0098 54.76 44.2198 58.23 43.2898 58.08C43.0098 58.02 42.6598 57.67 42.2898 57.08C42.0898 56.3 41.0498 50.26 40.4298 46.54C40.389 46.318 40.268 46.1187 40.0898 45.98L37.9198 44.35C42.5298 44.15 46.2298 39.43 46.2298 33.65C46.2291 33.1248 46.1923 32.6002 46.1198 32.08C46.1393 31.9911 46.1393 31.899 46.1198 31.81C45.4198 27 42.0098 23.56 37.6298 23.56C32.7198 23.56 29.0098 27.9 29.0098 33.65C29.0109 34.2826 29.0577 34.9142 29.1498 35.54C29.1449 35.5899 29.1449 35.6401 29.1498 35.69C29.3292 36.8117 29.6658 37.9024 30.1498 38.93C29.9995 38.9669 29.8615 39.0428 29.7498 39.15C29.5598 39.34 25.1398 43.98 25.1398 52.86V71.06C25.1824 72.7079 25.5998 74.3244 26.3605 75.7868C27.1211 77.2493 28.205 78.5191 29.5298 79.5C25.3898 83.08 23.0998 85.66 22.6698 87.21H18.0598V50.71C18.0577 50.511 17.991 50.318 17.8698 50.16C14.4067 45.6831 12.5947 40.1482 12.7398 34.49C12.7398 14.3 40.9098 3.89003 43.9998 2.81003C47.0898 3.89003 75.2598 14.28 75.2598 34.49C75.405 40.1482 73.593 45.6831 70.1298 50.16V50.19ZM48.5898 11.64H47.4198V10.47C47.3966 10.2515 47.2933 10.0494 47.1299 9.90244C46.9665 9.75552 46.7546 9.67424 46.5348 9.67424C46.3151 9.67424 46.1031 9.75552 45.9397 9.90244C45.7763 10.0494 45.6731 10.2515 45.6498 10.47V11.64H44.4798C44.2464 11.64 44.0226 11.7327 43.8576 11.8978C43.6925 12.0628 43.5998 12.2866 43.5998 12.52C43.5998 12.7534 43.6925 12.9773 43.8576 13.1423C44.0226 13.3073 44.2464 13.4 44.4798 13.4H45.6498V14.58C45.6731 14.7985 45.7763 15.0007 45.9397 15.1476C46.1031 15.2945 46.3151 15.3758 46.5348 15.3758C46.7546 15.3758 46.9665 15.2945 47.1299 15.1476C47.2933 15.0007 47.3966 14.7985 47.4198 14.58V13.4H48.5898C48.8232 13.4 49.047 13.3073 49.2121 13.1423C49.3771 12.9773 49.4698 12.7534 49.4698 12.52C49.4698 12.2866 49.3771 12.0628 49.2121 11.8978C49.047 11.7327 48.8232 11.64 48.5898 11.64ZM65.2398 34.55H64.0698V33.38C64.0698 33.1466 63.9771 32.9228 63.8121 32.7578C63.647 32.5927 63.4232 32.5 63.1898 32.5C62.9564 32.5 62.7326 32.5927 62.5676 32.7578C62.4025 32.9228 62.3098 33.1466 62.3098 33.38V34.55H61.1298C60.9113 34.5733 60.7092 34.6766 60.5622 34.8399C60.4153 35.0033 60.334 35.2153 60.334 35.435C60.334 35.6548 60.4153 35.8667 60.5622 36.0301C60.7092 36.1935 60.9113 36.2968 61.1298 36.32H62.3098V37.49C62.3098 37.7234 62.4025 37.9473 62.5676 38.1123C62.7326 38.2773 62.9564 38.37 63.1898 38.37C63.4232 38.37 63.647 38.2773 63.8121 38.1123C63.9771 37.9473 64.0698 37.7234 64.0698 37.49V36.32H65.2398C65.4583 36.2968 65.6605 36.1935 65.8074 36.0301C65.9543 35.8667 66.0356 35.6548 66.0356 35.435C66.0356 35.2153 65.9543 35.0033 65.8074 34.8399C65.6605 34.6766 65.4583 34.5733 65.2398 34.55Z" fill="black"/>
</svg>
