<svg width="294" height="333" viewBox="0 0 294 333" fill="none" xmlns="http://www.w3.org/2000/svg">
<g clip-path="url(#clip0_564_448)">
<g clip-path="url(#clip1_564_448)">
<path d="M0.109863 85.7601C36.9999 62.1401 74.9599 40.2401 111.65 16.3001C118.45 11.8701 125.36 7.61005 132.15 3.17005C133.66 2.18005 134.94 1.68005 136.71 2.51005C158.22 12.6101 179.75 22.6701 201.26 32.7501C225.31 44.0201 249.35 55.32 273.41 66.59C278.34 68.9 283.3 71.1301 288.23 73.4301C292.27 75.3201 292.41 77.0701 288.72 79.5701C271.87 91.0001 253.36 99.6201 236.26 110.58C227.99 115.88 221.94 115.69 213.46 110.55C197.7 100.99 179.97 96.0701 161.59 93.8101C143.15 91.5301 124.93 92.3201 106.86 96.7901C93.6499 100.06 80.9499 104.59 69.2199 111.58C66.3799 113.27 63.9199 113.69 60.4799 112.29C42.6399 105.01 24.6299 98.1201 6.63986 91.2201C4.28986 90.3201 2.09986 89.2901 0.119863 87.7801V85.7901L0.109863 85.7601Z" fill="#000606"/>
<path d="M76.3099 174.72C42.8899 216.38 53.5499 266.6 80.9499 293.63C114.25 326.49 165.46 325.03 196.92 299.59C230.12 272.75 243.47 218.18 208.4 174.92C210.27 174.24 212.42 174.01 213.82 172.86C218.11 169.3 220.19 171.41 222.87 175.14C250.01 212.85 245.76 267.11 213.08 300.3C190.27 323.46 162.43 333.35 130.56 329.66C98.6099 325.96 73.9799 309.54 57.3599 281.7C44.1899 259.63 40.6799 235.78 45.8799 210.86C48.7299 197.18 54.5299 184.49 63.1299 173.25C64.5699 171.37 65.8599 170.44 68.0299 171.89C70.4199 173.5 73.2099 174 76.3299 174.73L76.3099 174.72Z" fill="#000606"/>
<path d="M143.05 106.41C167.76 106.08 190.7 112.54 212.1 124.77C214.81 126.32 216.22 128.08 216.01 131.44C215.67 136.9 215.73 142.39 215.85 147.86C215.94 151.94 214.61 152.36 211.19 150.53C197.71 143.31 183.54 138.01 168.4 135.44C151.84 132.63 135.35 132.23 118.59 134.44C101.63 136.67 85.7901 141.69 70.7101 149.47C67.4801 151.14 66.7201 150.24 66.8701 146.93C67.0701 142.79 67.3101 138.59 66.8701 134.49C66.3401 129.58 68.6101 127.07 72.5901 124.79C90.3401 114.61 109.4 108.63 129.67 106.48C134.09 106.01 138.59 106.41 143.06 106.41H143.05Z" fill="#008686"/>
<path d="M139.41 259.33C139.41 253.69 139.09 248.02 139.51 242.41C139.82 238.27 138.21 236.12 134.66 234.46C127.09 230.93 120.92 225.81 117.9 217.7C112.09 202.09 119.59 186.42 135.34 181.63C138.43 180.69 139.76 179.38 139.47 176.12C139.26 173.81 139.51 171.3 142.07 170.17C145.44 168.68 148.51 170.9 148.32 175.36C148.15 179.46 149.97 180.71 153.47 181.61C163.98 184.31 170.82 190.86 173.16 201.66C173.79 204.57 173.35 207.34 170.74 209.24C167.03 211.94 162.71 210.07 162.16 205.08C161.53 199.24 158.32 195.79 153.4 193.36C149.34 191.35 148.49 191.79 148.48 196.2C148.45 205.16 148.61 214.13 148.4 223.09C148.32 226.41 149.46 228.12 152.48 229.51C158.47 232.26 164.37 235.22 169.27 239.88C178.09 248.27 181.64 258.11 178.1 270.01C174.68 281.5 167.3 289.39 155.54 292.13C150.4 293.33 147.47 294.84 148.37 300.71C148.81 303.53 147.1 305.56 144.04 305.59C141.04 305.62 139.19 303.8 139.56 300.88C140.31 295.02 137.68 293.21 132.18 291.84C122.71 289.48 115.41 283.44 110.59 274.75C109.87 273.46 109.34 272.03 108.95 270.6C107.46 265.04 108.57 261.42 112.12 260.43C117.62 258.9 119.14 262.92 120.22 266.81C122.49 274.93 128.6 278.73 135.81 281.44C138.35 282.4 139.5 281.56 139.45 278.73C139.35 272.26 139.42 265.78 139.42 259.31L139.41 259.33ZM149.04 261.64C149.04 267.27 149.04 272.91 149.04 278.54C149.04 280.24 148.85 282.35 151.53 281.34C158.43 278.76 164.28 274.97 166.3 267.22C168.37 259.28 166.24 252.84 159.44 248.1C157.41 246.68 155.29 245.38 153.24 244C150.42 242.11 148.83 242.1 148.99 246.24C149.19 251.37 149.04 256.51 149.03 261.65L149.04 261.64ZM139.13 208.08C139.13 208.08 139.08 208.08 139.06 208.08C139.06 203.94 138.94 199.79 139.1 195.66C139.23 192.37 137.97 192.49 135.6 193.72C129.6 196.82 128.1 202.18 128.12 208.29C128.14 214.49 131 219.01 136.55 221.83C138.63 222.89 139.17 222.01 139.15 220.01C139.1 216.04 139.13 212.06 139.13 208.09V208.08Z" fill="#EF8B2E"/>
<path d="M149.04 261.65C149.04 256.51 149.2 251.37 148.99 246.24C148.83 242.1 150.42 242.11 153.24 244C155.3 245.38 157.41 246.69 159.44 248.1C166.24 252.84 168.37 259.28 166.3 267.22C164.28 274.97 158.42 278.75 151.53 281.34C148.85 282.34 149.03 280.24 149.04 278.54C149.04 272.91 149.04 267.27 149.04 261.64V261.65Z" fill="#F3F3F2"/>
<path d="M139.13 208.09C139.13 212.07 139.09 216.04 139.15 220.01C139.18 222.01 138.64 222.89 136.55 221.83C131 219.01 128.14 214.5 128.12 208.29C128.1 202.19 129.61 196.83 135.6 193.72C137.97 192.49 139.23 192.38 139.1 195.66C138.94 199.79 139.06 203.94 139.06 208.08C139.08 208.08 139.11 208.08 139.13 208.08V208.09Z" fill="#F3F3F2"/>
</g>
</g>
<defs>
<clipPath id="clip0_564_448">
<rect width="294" height="333" fill="white"/>
</clipPath>
<clipPath id="clip1_564_448">
<rect width="294" height="333" fill="white"/>
</clipPath>
</defs>
</svg>
