<svg width="41" height="100" viewBox="0 0 41 100" fill="none" xmlns="http://www.w3.org/2000/svg">
<path d="M28.2229 21.721C25.6839 19.023 21.4519 18.898 18.7429 21.426C16.0319 23.952 15.8829 28.207 18.3939 30.931C18.4189 30.959 19.2249 31.848 20.3209 33.431L6.53086 46.037C5.46386 47.013 5.03486 48.419 5.25186 49.745C2.43786 51.214 0.505859 54.157 0.505859 57.548V97.325C0.505859 98.55 1.49986 99.542 2.72286 99.542C3.94886 99.542 4.93986 98.55 4.93986 97.325V57.548C4.93986 55.156 6.87586 53.212 9.25886 53.187C9.27686 53.187 9.29186 53.191 9.30886 53.191C9.32686 53.191 9.34186 53.187 9.35886 53.187C11.7429 53.215 13.6739 55.158 13.6739 57.548C13.6739 58.773 14.6669 59.765 15.8909 59.765C17.1169 59.765 18.1079 58.773 18.1079 57.548C18.1079 54.488 16.5389 51.791 14.1619 50.214L24.3329 40.915C25.6729 44.268 26.7129 48.299 26.7129 52.799V93.266C26.7129 96.986 29.7289 100 33.4479 100C37.1669 100 40.1809 96.985 40.1809 93.266V52.799C40.1809 34.624 28.7099 22.239 28.2229 21.721Z" fill="black"/>
<path d="M13.9209 19.458C19.2941 19.458 23.6499 15.1022 23.6499 9.729C23.6499 4.35582 19.2941 0 13.9209 0C8.54772 0 4.19189 4.35582 4.19189 9.729C4.19189 15.1022 8.54772 19.458 13.9209 19.458Z" fill="black"/>
</svg>
