<svg width="101" height="56" viewBox="0 0 101 56" fill="none" xmlns="http://www.w3.org/2000/svg">
<path d="M51.4082 33.415C49.2452 25.413 42.0942 19.446 33.7862 18.936C25.3222 18.416 17.5472 23.503 14.3992 31.26C10.1542 30.231 5.91015 29.202 1.66615 28.173C-0.0188462 27.765 -0.718846 30.363 0.969154 30.773C1.07715 30.8 1.18315 30.825 1.29115 30.852C9.89515 32.938 18.5002 35.024 27.1052 37.11C34.6562 38.942 42.2082 40.773 49.7592 42.604C50.1812 42.706 50.5402 42.621 50.8172 42.427C51.2942 42.315 51.7312 41.985 51.8022 41.48C52.1832 38.786 52.1222 36.053 51.4082 33.415Z" fill="black"/>
<path d="M14.8262 35.388C14.6492 36.386 14.5562 37.414 14.5562 38.463C14.5562 48.115 22.3812 55.941 32.0332 55.941C39.8942 55.941 46.5422 50.751 48.7402 43.612C41.6202 41.885 34.5002 40.158 27.3802 38.433C23.1952 37.418 19.0102 36.402 14.8262 35.388ZM23.7752 48.058C23.0312 48.058 22.4292 46.889 22.4292 45.448C22.4292 44.005 23.0322 42.837 23.7752 42.837C24.5182 42.837 25.1202 44.005 25.1202 45.448C25.1202 46.889 24.5182 48.058 23.7752 48.058ZM36.9822 42.836C37.7252 42.836 38.3272 44.004 38.3272 45.447C38.3272 46.888 37.7252 48.057 36.9822 48.057C36.2382 48.057 35.6362 46.888 35.6362 45.447C35.6372 44.004 36.2392 42.836 36.9822 42.836ZM34.6692 51.036C35.3482 50.588 35.9772 51.675 35.3032 52.119C32.5612 53.926 28.7612 54.312 26.1482 52.021C25.5382 51.485 26.4292 50.601 27.0362 51.133C29.1102 52.952 32.3762 52.545 34.6692 51.036Z" fill="black"/>
<path d="M92.456 1.598C81.148 -1.794 78.409 8.462 78.055 10.057C75.622 8.82 72.868 8.119 69.953 8.119C61.148 8.119 53.828 14.477 52.335 22.852C58.982 22.576 74.107 21.195 78.844 14.403L79.446 13.542L79.793 14.533C79.827 14.625 82.648 22.466 87.695 23.66C87.056 18.806 84.471 14.567 80.751 11.747L80.883 11.819C88.676 2.786 90.365 23.063 90.365 23.063L100.38 13.875C100.38 13.875 99.632 3.751 92.456 1.598Z" fill="black"/>
<path d="M81.7371 20.427C80.4531 18.677 79.5811 16.847 79.1331 15.789C76.1891 19.27 70.4061 21.703 61.9201 23.025C58.1371 23.614 54.5761 23.848 52.1771 23.94C52.0981 24.621 52.0571 25.314 52.0571 26.016C52.0571 35.899 60.0691 43.912 69.9531 43.912C79.8371 43.912 87.8491 35.9 87.8491 26.016C87.8491 25.601 87.8331 25.19 87.8071 24.783C85.6331 24.395 83.5731 22.927 81.7371 20.427ZM63.4101 32.462C62.6671 32.462 62.0661 31.292 62.0661 29.85C62.0661 28.408 62.6671 27.239 63.4101 27.239C64.1541 27.239 64.7571 28.408 64.7571 29.85C64.7571 31.292 64.1541 32.462 63.4101 32.462ZM75.2591 36.056C73.4921 37.554 71.2621 38.315 68.9781 37.641C67.8961 37.322 66.8321 36.803 65.9761 36.056C65.3651 35.523 66.2561 34.639 66.8641 35.168C69.0621 37.085 72.1781 37.029 74.3721 35.168C74.9821 34.647 75.8761 35.531 75.2591 36.056ZM76.6201 32.462C75.8761 32.462 75.2731 31.293 75.2731 29.85C75.2731 28.408 75.8761 27.239 76.6201 27.239C77.3631 27.239 77.9641 28.408 77.9641 29.85C77.9641 31.293 77.3631 32.462 76.6201 32.462Z" fill="black"/>
</svg>
