<svg width="87" height="99" viewBox="0 0 87 99" fill="none" xmlns="http://www.w3.org/2000/svg">
<path d="M26.5986 16.335C31.1096 16.335 34.7666 12.679 34.7666 8.167C34.7666 3.657 31.1096 0 26.5986 0C22.0876 0 18.4306 3.657 18.4306 8.167C18.4306 12.678 22.0876 16.335 26.5986 16.335ZM57.2086 87.453C54.2156 87.453 51.7896 89.918 51.7896 92.957C51.7896 95.994 54.2156 98.459 57.2086 98.459C60.2016 98.459 62.6286 95.994 62.6286 92.957C62.6286 89.918 60.2016 87.453 57.2086 87.453ZM71.7386 80.479L62.8576 84.284L57.6296 72.249C57.6496 71.826 57.6616 71.406 57.6616 70.98C57.6616 70.586 57.6506 70.199 57.6366 69.813L61.8306 79.414C63.0406 82 65.8686 82.229 68.1386 81.186C70.4706 80.116 72.2136 77.703 71.0086 75.123L68.4806 69.738L62.3276 57.868C62.0256 57.213 61.7516 56.608 61.4886 56.03C56.7116 45.518 56.2056 44.411 42.8536 46.431C42.4576 46.223 42.0556 46.025 41.6476 45.836C40.5516 45.327 39.4186 44.888 38.2576 44.524L37.6606 31.341C37.6976 19.446 37.6616 19.623 32.6676 19.456L16.7666 19.446C12.9536 19.446 8.98259 23.027 6.18459 26.482C2.66359 30.469 -5.28041 44.918 5.29459 58.235C3.31559 62.051 2.19059 66.383 2.19059 70.98C2.19059 86.296 14.6086 98.714 29.9266 98.714C43.2826 98.714 54.4306 89.274 57.0686 76.699L61.2126 86.241C61.4006 86.673 61.8206 86.929 62.2636 86.929C62.4136 86.929 62.5666 86.9 62.7126 86.835L72.6406 82.58C73.2216 82.332 73.4916 81.658 73.2426 81.078C72.9936 80.498 72.3196 80.231 71.7386 80.479ZM14.4406 33.049C15.5956 33.049 15.3546 34.248 15.3546 34.755L15.3586 47.377C13.7206 48.39 12.1986 49.571 10.8106 50.893C6.51159 42.288 10.6836 33.049 14.4406 33.049ZM29.9266 96.426C15.8946 96.426 4.47959 85.011 4.47959 70.98C4.47959 67.095 5.35659 63.414 6.91959 60.118C7.92459 61.187 9.06259 62.246 10.3376 63.289C10.4036 63.347 10.4726 63.403 10.5416 63.456C10.5666 63.477 10.5896 63.497 10.6146 63.517L10.6176 63.514C11.3026 64.019 12.1466 64.322 13.0636 64.322C15.3466 64.322 17.1976 62.471 17.1976 60.188C17.1976 58.842 16.5526 57.651 15.5566 56.895C14.1046 55.641 12.9326 54.306 12.0046 52.933C16.6076 48.363 22.9426 45.533 29.9266 45.533C36.6076 45.533 42.9336 48.1 47.7376 52.761C52.6626 57.537 55.3736 64.008 55.3736 70.982C55.3736 85.011 43.9586 96.426 29.9266 96.426ZM84.5556 65.081C84.5556 65.081 71.8936 53.232 66.7776 48.553C63.7156 45.753 59.7846 45.03 54.4946 45.1C58.0896 46.177 59.5166 49.316 62.3836 55.624C62.6466 56.202 62.9196 56.805 63.2096 57.437L65.0176 60.922L77.7786 72.609C80.4816 75.043 83.4626 74.409 85.1496 72.569C86.8816 70.676 87.2516 67.509 84.5556 65.081Z" fill="black"/>
</svg>
