<svg width="109" height="85" viewBox="0 0 109 85" fill="none" xmlns="http://www.w3.org/2000/svg">
<g clip-path="url(#clip0_564_461)">
<path d="M81.3599 0C85.3399 9.55 86.9599 19.69 88.4699 29.86C88.1899 29.94 87.9199 30.03 87.6399 30.11C87.4399 29.52 87.1999 28.93 87.0499 28.32C85.9099 23.94 84.7499 19.57 83.6599 15.17C83.2699 13.59 82.3399 12.8 81.0099 12.03C79.0599 10.89 77.2099 9.43 75.5999 7.79C74.5699 6.75 73.6799 6.11 72.2199 6.13C62.4699 6.24 52.7199 6.25 42.9799 6.35C42.3299 6.35 41.5299 6.61 41.0699 7.07C39.2999 8.83 37.6299 10.71 35.4499 13.07C41.2199 28.1 44.1199 44.49 42.8699 61.91C40.0999 60.01 37.9599 58.51 37.8299 54.54C37.1899 34.67 31.4699 16.69 19.4999 1.23C19.2299 0.88 19.0999 0.41 18.8999 0H81.3799L81.3599 0Z" fill="black"/>
<path d="M8.93 7.65985C11.71 7.65985 14.48 7.60985 17.26 7.69985C17.81 7.71985 18.58 8.08985 18.86 8.55985C27.16 22.8298 33.62 37.8198 34.46 54.9598C34.46 55.0298 34.4 55.0998 34.16 55.5998C29.2 37.4598 20.26 22.0998 8.75 8.32985C8.81 8.10985 8.87 7.87985 8.93 7.65985Z" fill="#6B6A71"/>
<path d="M0 20.15C3.97 20 7.32 19.84 10.68 19.77C11.02 19.77 11.42 20.24 11.7 20.58C18.24 28.37 24.18 36.61 27.84 46.46C28.54 48.33 29.01 50.3 29.59 52.22C22.01 39.44 11.46 29.89 0 20.15Z" fill="#A9A7AF"/>
<path d="M42.6399 84.88C35.7399 73.13 29.0899 61.81 22.4399 50.49L22.6799 50.15C23.2399 50.63 35.0899 60.81 40.4199 65.48C41.8999 66.78 43.0199 66.76 44.5699 65.42C62.6799 49.67 82.8799 37.75 104.33 28.14C105.48 27.63 106.66 27.22 107.83 26.77C108.09 26.67 108.36 26.62 108.74 26.72C83.8299 42.21 60.0599 59.17 42.6299 84.88" fill="#F18F34"/>
</g>
<defs>
<clipPath id="clip0_564_461">
<rect width="108.75" height="84.88" fill="white"/>
</clipPath>
</defs>
</svg>
