<svg width="88" height="91" viewBox="0 0 88 91" fill="none" xmlns="http://www.w3.org/2000/svg">
<path d="M15.88 14.189C15.717 14.189 15.555 14.183 15.392 14.171L15.448 13.409C15.766 13.432 16.098 13.431 16.414 13.401L16.484 14.161C16.285 14.179 16.084 14.189 15.88 14.189ZM14.315 14.001C13.966 13.915 13.618 13.798 13.281 13.654L13.584 12.951C13.882 13.079 14.189 13.183 14.498 13.258L14.315 14.001ZM17.558 13.97L17.363 13.232C17.673 13.149 17.979 13.041 18.272 12.909L18.586 13.606C18.256 13.754 17.909 13.878 17.558 13.97ZM12.317 13.135C12.012 12.937 11.721 12.712 11.453 12.467L11.97 11.904C12.205 12.12 12.462 12.319 12.732 12.494L12.317 13.135ZM19.539 13.073L19.113 12.438C19.38 12.259 19.632 12.057 19.865 11.836L20.39 12.391C20.127 12.641 19.841 12.87 19.539 13.073ZM10.712 11.669C10.486 11.382 10.284 11.076 10.111 10.76L10.782 10.392C10.935 10.672 11.113 10.942 11.313 11.197L10.712 11.669ZM21.119 11.579L20.51 11.119C20.704 10.86 20.879 10.587 21.029 10.303L21.704 10.661C21.536 10.98 21.339 11.29 21.119 11.579ZM9.66604 9.76399C9.54504 9.42099 9.45204 9.06499 9.39004 8.70799L10.142 8.57699C10.198 8.89199 10.279 9.20699 10.386 9.51099L9.66604 9.76399ZM22.133 9.65699L21.409 9.41599C21.51 9.11199 21.587 8.79599 21.637 8.47899L22.391 8.59599C22.335 8.95599 22.249 9.31199 22.133 9.65699ZM9.29004 7.62099V7.54799C9.29004 7.18099 9.32004 6.81599 9.37804 6.46099L10.132 6.58399C10.08 6.89699 10.054 7.22199 10.054 7.54699L9.29004 7.62099ZM21.708 7.51399C21.706 7.18999 21.678 6.86499 21.624 6.55199L22.378 6.42499C22.438 6.77899 22.47 7.14399 22.472 7.51099L21.708 7.51399ZM10.366 5.64799L9.64204 5.40299C9.75704 5.06199 9.90304 4.72499 10.075 4.40199L10.75 4.76199C10.596 5.04799 10.467 5.34599 10.366 5.64799ZM21.386 5.61699C21.283 5.31499 21.151 5.01899 20.997 4.73399L21.67 4.36999C21.844 4.69099 21.991 5.02799 22.109 5.36799L21.386 5.61699ZM11.272 3.95199L10.665 3.48599C10.887 3.19699 11.134 2.92499 11.398 2.67799L11.919 3.23699C11.686 3.45499 11.468 3.69499 11.272 3.95199ZM20.47 3.92499C20.275 3.67399 20.056 3.43499 19.817 3.21599L20.336 2.65499C20.605 2.90399 20.852 3.17299 21.072 3.45799L20.47 3.92499ZM12.677 2.63799L12.255 2.00099C12.559 1.79899 12.88 1.62199 13.21 1.47499L13.52 2.17399C13.23 2.30299 12.947 2.45899 12.677 2.63799ZM19.058 2.62099C18.787 2.44399 18.502 2.28899 18.209 2.15899L18.517 1.45999C18.848 1.60599 19.17 1.77999 19.475 1.97899L19.058 2.62099ZM14.432 1.85499L14.241 1.11499C14.594 1.02399 14.956 0.962986 15.318 0.930986L15.384 1.69299C15.063 1.71999 14.743 1.77499 14.432 1.85499ZM17.299 1.84699C16.986 1.76899 16.665 1.71599 16.346 1.69099L16.408 0.928986C16.768 0.957986 17.131 1.01799 17.485 1.10699L17.299 1.84699Z" fill="black"/>
<path d="M5.30488 90.226L4.40088 90.19L4.46488 89.289L5.22688 89.343L5.21888 89.457L5.33388 89.461L5.30488 90.226Z" fill="black"/>
<path d="M9.08005 90.371L8.13605 90.334L8.16605 89.57L9.11005 89.607L9.08005 90.371ZM7.19205 90.298L6.24805 90.261L6.27805 89.497L7.22205 89.534L7.19205 90.298Z" fill="black"/>
<path d="M10.8739 90.438L10.0249 90.407L10.0529 89.642L10.2229 89.649L10.2479 89.482L11.0029 89.6L10.8739 90.438Z" fill="black"/>
<path d="M11.3164 87.5914L10.5625 87.474L10.4062 88.4779L11.1602 88.5953L11.3164 87.5914Z" fill="black"/>
<path d="M11.6284 85.5845L10.8745 85.4671L10.7182 86.471L11.4722 86.5884L11.6284 85.5845Z" fill="black"/>
<path d="M11.9395 83.5765L11.1855 83.4591L11.0293 84.463L11.7832 84.5804L11.9395 83.5765Z" fill="black"/>
<path d="M12.2505 81.5694L11.4966 81.452L11.3403 82.4559L12.0942 82.5733L12.2505 81.5694Z" fill="black"/>
<path d="M12.5615 79.5613L11.8076 79.444L11.6514 80.4479L12.4053 80.5652L12.5615 79.5613Z" fill="black"/>
<path d="M12.8731 77.5544L12.1191 77.437L11.9629 78.441L12.7168 78.5583L12.8731 77.5544Z" fill="black"/>
<path d="M13.1841 75.5464L12.4302 75.4291L12.2741 76.432L13.028 76.5493L13.1841 75.5464Z" fill="black"/>
<path d="M13.4951 73.5384L12.7412 73.4211L12.585 74.425L13.3389 74.5423L13.4951 73.5384Z" fill="black"/>
<path d="M13.8062 71.5314L13.0522 71.414L12.8961 72.4169L13.6501 72.5343L13.8062 71.5314Z" fill="black"/>
<path d="M14.1172 69.5234L13.3633 69.406L13.207 70.4099L13.9609 70.5273L14.1172 69.5234Z" fill="black"/>
<path d="M14.4292 67.5165L13.6753 67.3991L13.5192 68.402L14.2731 68.5194L14.4292 67.5165Z" fill="black"/>
<path d="M14.7402 65.5084L13.9863 65.391L13.8301 66.3949L14.584 66.5123L14.7402 65.5084Z" fill="black"/>
<path d="M22.0216 88.4791L21.8623 87.4757L21.1078 87.5955L21.2671 88.5989L22.0216 88.4791Z" fill="black"/>
<path d="M21.6959 86.4706L21.5366 85.4661L20.782 85.5858L20.9413 86.5903L21.6959 86.4706Z" fill="black"/>
<path d="M21.3803 84.4609L21.2222 83.4583L20.4675 83.5773L20.6256 84.58L21.3803 84.4609Z" fill="black"/>
<path d="M21.0601 82.4554L20.9009 81.4509L20.1463 81.5705L20.3055 82.575L21.0601 82.4554Z" fill="black"/>
<path d="M20.7496 80.4491L20.5903 79.4457L19.8358 79.5655L19.9951 80.5689L20.7496 80.4491Z" fill="black"/>
<path d="M20.4229 78.4401L20.2637 77.4356L19.5091 77.5552L19.6683 78.5597L20.4229 78.4401Z" fill="black"/>
<path d="M20.1124 76.4337L19.9531 75.4303L19.1986 75.5501L19.3579 76.5535L20.1124 76.4337Z" fill="black"/>
<path d="M19.7862 74.4248L19.627 73.4203L18.8724 73.54L19.0316 74.5445L19.7862 74.4248Z" fill="black"/>
<path d="M19.4698 72.4181L19.3105 71.4136L18.5559 71.5332L18.7152 72.5377L19.4698 72.4181Z" fill="black"/>
<path d="M19.1514 70.4095L18.9922 69.405L18.2376 69.5246L18.3968 70.5291L19.1514 70.4095Z" fill="black"/>
<path d="M18.8331 68.4028L18.6738 67.3983L17.9192 67.5179L18.0785 68.5224L18.8331 68.4028Z" fill="black"/>
<path d="M18.5142 66.3943L18.355 65.3898L17.6004 65.5094L17.7596 66.5139L18.5142 66.3943Z" fill="black"/>
<path d="M22.3889 90.427H21.5539L21.4219 89.602L22.1759 89.48L22.2049 89.662H22.3889V90.427Z" fill="black"/>
<path d="M24.2533 89.662H23.3213V90.426H24.2533V89.662Z" fill="black"/>
<path d="M24.4536 43.7284L24.377 42.7112L23.6151 42.7686L23.6917 43.7858L24.4536 43.7284Z" fill="black"/>
<path d="M24.2993 41.6928L24.2227 40.6756L23.4608 40.733L23.5374 41.7501L24.2993 41.6928Z" fill="black"/>
<path d="M24.1489 39.6626L24.0723 38.6444L23.3104 38.7018L23.3871 39.7199L24.1489 39.6626Z" fill="black"/>
<path d="M23.9931 37.6244L23.9165 36.6073L23.1546 36.6647L23.2312 37.6818L23.9931 37.6244Z" fill="black"/>
<path d="M23.8398 35.5898L23.7632 34.5727L23.0013 34.6301L23.0779 35.6472L23.8398 35.5898Z" fill="black"/>
<path d="M22.9279 33.612L22.8579 32.694H23.7789V33.458L22.9279 33.612Z" fill="black"/>
<path d="M25.2241 33.458V32.694H26.0781L26.1671 33.543L25.2241 33.458Z" fill="black"/>
<path d="M25.6113 35.595L25.5093 34.609L26.2693 34.529L26.3133 34.949L25.6113 35.595Z" fill="black"/>
<path d="M30.0995 33.7284L29.9741 32.7232L29.216 32.8178L29.3414 33.823L30.0995 33.7284Z" fill="black"/>
<path d="M29.849 31.7192L29.7236 30.714L28.9655 30.8085L29.0909 31.8137L29.849 31.7192Z" fill="black"/>
<path d="M29.5971 29.7091L29.4717 28.7049L28.7136 28.7996L28.8389 29.8038L29.5971 29.7091Z" fill="black"/>
<path d="M29.3471 27.7005L29.2217 26.6953L28.4636 26.7899L28.589 27.7951L29.3471 27.7005Z" fill="black"/>
<path d="M29.0966 25.692L28.9702 24.6869L28.2122 24.7823L28.3386 25.7874L29.0966 25.692Z" fill="black"/>
<path d="M28.8436 23.6813L28.7183 22.6771L27.9601 22.7717L28.0855 23.7759L28.8436 23.6813Z" fill="black"/>
<path d="M28.5932 21.672L28.4678 20.6678L27.7097 20.7624L27.835 21.7666L28.5932 21.672Z" fill="black"/>
<path d="M28.3437 19.6632L28.2183 18.658L27.4601 18.7526L27.5856 19.7578L28.3437 19.6632Z" fill="black"/>
<path d="M27.3341 17.749L27.3121 17.577H27.1401V16.812H27.9871L28.0921 17.653L27.3341 17.749Z" fill="black"/>
<path d="M26.0759 17.576L25.0119 17.575V16.81L26.0759 16.811V17.576ZM23.9459 17.574L22.8819 17.572L22.8839 16.808L23.9479 16.81L23.9459 17.574ZM21.8199 17.571L20.7549 17.57V16.806L21.8199 16.807V17.571ZM19.6919 17.569L18.6279 17.568V16.804L19.6919 16.805V17.569ZM17.5619 17.567L16.4979 17.565L16.4999 16.8L17.5639 16.802L17.5619 17.567ZM15.4359 17.564L14.3709 17.563V16.799L15.4359 16.8V17.564ZM13.3069 17.562L12.2429 17.561V16.797L13.3069 16.798V17.562ZM11.1789 17.559L10.1149 17.558V16.794L11.1789 16.795V17.559ZM9.05089 17.557L7.98689 17.556V16.792L9.05089 16.793V17.557ZM6.92289 17.555L5.85889 17.554V16.79L6.92289 16.791V17.555Z" fill="black"/>
<path d="M4.61889 17.712L3.85889 17.642L3.93689 16.786L4.79589 16.788L4.79389 17.553H4.63389L4.61889 17.712Z" fill="black"/>
<path d="M1.55688 51.269L0.796875 51.199L0.887875 50.212L1.64787 50.282L1.55688 51.269ZM1.73688 49.295L0.976875 49.225L1.06787 48.238L1.82788 48.308L1.73688 49.295ZM1.91687 47.322L1.15688 47.252L1.24788 46.265L2.00788 46.335L1.91687 47.322ZM2.09688 45.347L1.33687 45.277L1.42788 44.29L2.18787 44.36L2.09688 45.347ZM2.27787 43.373L1.51788 43.303L1.60888 42.316L2.36888 42.386L2.27787 43.373ZM2.45788 41.399L1.69788 41.329L1.78888 40.343L2.54887 40.413L2.45788 41.399ZM2.63787 39.426L1.87787 39.356L1.96887 38.369L2.72888 38.439L2.63787 39.426ZM2.81787 37.451L2.05787 37.381L2.14888 36.394L2.90888 36.464L2.81787 37.451ZM2.99788 35.477L2.23787 35.407L2.32888 34.421L3.08887 34.491L2.99788 35.477ZM3.17788 33.504L2.41788 33.434L2.50887 32.447L3.26888 32.517L3.17788 33.504ZM3.35787 31.53L2.59787 31.46L2.68888 30.473L3.44888 30.543L3.35787 31.53ZM3.53788 29.555L2.77787 29.485L2.86888 28.498L3.62887 28.568L3.53788 29.555ZM3.71788 27.582L2.95788 27.512L3.04887 26.525L3.80888 26.595L3.71788 27.582ZM3.89888 25.608L3.13888 25.538L3.22987 24.551L3.98987 24.621L3.89888 25.608ZM4.07888 23.634L3.31888 23.564L3.40987 22.577L4.16988 22.647L4.07888 23.634ZM4.25887 21.66L3.49887 21.59L3.58988 20.603L4.34988 20.673L4.25887 21.66ZM4.43888 19.686L3.67887 19.616L3.76988 18.629L4.52987 18.699L4.43888 19.686Z" fill="black"/>
<path d="M1.20509 53.344L0.64209 52.901L0.706089 52.188L1.46709 52.255L1.44009 52.557L1.67709 52.743L1.20509 53.344Z" fill="black"/>
<path d="M3.7239 54.3523L2.69922 53.5474L2.2273 54.1482L3.25198 54.9531L3.7239 54.3523Z" fill="black"/>
<path d="M5.24732 56.522L4.27832 55.76L4.55532 55.407L4.88132 55.262L5.32832 55.292L5.24732 56.522Z" fill="black"/>
<path d="M5.39725 54.26L4.63525 54.208L4.70425 53.177L5.46625 53.229L5.39725 54.26ZM5.53325 52.197L4.77125 52.147L4.84025 51.115L5.60225 51.165L5.53325 52.197ZM5.67025 50.136L4.90825 50.084L4.97725 49.053L5.73925 49.105L5.67025 50.136ZM5.80725 48.073L5.04525 48.023L5.11325 46.992L5.87525 47.042L5.80725 48.073ZM5.94325 46.011L5.18125 45.961L5.25025 44.929L6.01225 44.979L5.94325 46.011ZM6.08025 43.949L5.31825 43.897L5.38725 42.866L6.14925 42.918L6.08025 43.949ZM6.21625 41.887L5.45425 41.835L5.52325 40.804L6.28525 40.856L6.21625 41.887ZM6.35325 39.825L5.59125 39.775L5.65925 38.743L6.42125 38.793L6.35325 39.825ZM6.49025 37.762L5.72825 37.712L5.79625 36.681L6.55825 36.731L6.49025 37.762ZM6.62625 35.701L5.86425 35.649L5.93325 34.618L6.69525 34.67L6.62625 35.701Z" fill="black"/>
<path d="M6.00098 33.588L6.05698 32.718L6.92998 32.73L6.91998 33.494L6.00098 33.588Z" fill="black"/>
<path d="M9.14225 33.674L8.28125 33.514L8.29325 32.75L9.20625 32.763L9.14225 33.674Z" fill="black"/>
<path d="M5.29911 88.331L4.53711 88.277L4.60811 87.265L5.37011 87.319L5.29911 88.331ZM5.44111 86.307L4.67911 86.253L4.75011 85.241L5.51211 85.295L5.44111 86.307ZM5.58311 84.282L4.82111 84.228L4.89211 83.216L5.65411 83.27L5.58311 84.282ZM5.72611 82.258L4.96411 82.204L5.03511 81.192L5.79711 81.246L5.72611 82.258ZM5.86811 80.234L5.10611 80.18L5.17711 79.168L5.93911 79.222L5.86811 80.234ZM6.01011 78.209L5.24811 78.155L5.31911 77.143L6.08111 77.197L6.01011 78.209ZM6.15211 76.185L5.39011 76.131L5.46111 75.119L6.22311 75.173L6.15211 76.185ZM6.29511 74.161L5.53311 74.107L5.60411 73.095L6.36611 73.149L6.29511 74.161ZM6.43711 72.137L5.67511 72.083L5.74611 71.07L6.50811 71.124L6.43711 72.137ZM6.57911 70.112L5.81711 70.058L5.88811 69.046L6.65011 69.1L6.57911 70.112ZM6.72211 68.088L5.96011 68.034L6.03211 67.022L6.79411 67.076L6.72211 68.088ZM6.86411 66.064L6.10211 66.01L6.17411 64.998L6.93611 65.052L6.86411 66.064ZM7.00611 64.039L6.24411 63.985L6.31611 62.973L7.07811 63.027L7.00611 64.039ZM7.14811 62.015L6.38611 61.961L6.45811 60.949L7.22011 61.003L7.14811 62.015ZM7.29111 59.991L6.52911 59.937L6.60111 58.925L7.36311 58.979L7.29111 59.991ZM7.43311 57.966L6.67111 57.912L6.74311 56.9L7.50511 56.954L7.43311 57.966ZM7.57511 55.942L6.81311 55.888L6.88511 54.876L7.64711 54.93L7.57511 55.942ZM7.71811 53.918L6.95611 53.864L7.02811 52.852L7.79011 52.906L7.71811 53.918ZM7.86011 51.894L7.09811 51.84L7.17011 50.827L7.93211 50.881L7.86011 51.894ZM8.00211 49.869L7.24011 49.815L7.31211 48.803L8.07411 48.857L8.00211 49.869ZM8.14511 47.845L7.38311 47.791L7.45511 46.779L8.21711 46.833L8.14511 47.845ZM8.28711 45.821L7.52511 45.767L7.59711 44.755L8.35911 44.809L8.28711 45.821ZM8.42911 43.796L7.66711 43.742L7.73911 42.73L8.50111 42.784L8.42911 43.796ZM8.57111 41.772L7.80911 41.718L7.88111 40.706L8.64311 40.76L8.57111 41.772ZM8.71411 39.748L7.95211 39.694L8.02411 38.682L8.78611 38.736L8.71411 39.748ZM8.85611 37.723L8.09411 37.669L8.16611 36.657L8.92811 36.711L8.85611 37.723ZM8.99811 35.699L8.23611 35.645L8.30811 34.633L9.07011 34.687L8.99811 35.699Z" fill="black"/>
<path d="M51.0651 2.89797C50.5081 2.65997 49.9071 2.50097 49.2731 2.43797C45.9131 2.10397 42.9191 4.57597 42.5831 7.96097C42.2471 11.345 44.6971 14.361 48.0561 14.694C50.1881 14.906 52.1711 13.983 53.4221 12.416C55.1201 13.843 57.2751 18.503 60.6801 12.213C56.3311 15.699 56.4831 4.78297 51.0651 2.89797Z" fill="black"/>
<path d="M69.8163 46.152C72.2518 46.152 74.2262 44.1623 74.2262 41.708C74.2262 39.2536 72.2518 37.264 69.8163 37.264C67.3807 37.264 65.4062 39.2536 65.4062 41.708C65.4062 44.1623 67.3807 46.152 69.8163 46.152Z" fill="black"/>
<path d="M29.2 43.27C31.6565 43.27 33.648 41.2633 33.648 38.788C33.648 36.3126 31.6565 34.306 29.2 34.306C26.7434 34.306 24.752 36.3126 24.752 38.788C24.752 41.2633 26.7434 43.27 29.2 43.27Z" fill="black"/>
<path d="M74.5631 47.419L64.6531 47.405L59.7041 16.767L38.4761 16.741L34.6931 44.932L23.0001 44.916L14.1011 64.815L17.1351 64.691L22.5501 53.846L23.5711 53.869L21.5271 76.606L24.3341 76.608L26.1151 90.475H29.0321L29.0841 76.608H30.3161L30.2801 90.473H32.9601L34.9691 76.606L37.9371 76.594L34.8301 53.825H35.8791L39.3721 60.203L38.7591 68.358L42.5841 68.362L45.0221 90.472H48.9831L49.0551 68.362H50.7311L50.6811 90.472H54.3181L57.0681 68.362L61.1111 68.341L60.1571 59.981L63.4141 56.986L61.5731 90.473H65.6021L69.8681 69.376L75.4291 90.473H78.8581L76.3701 56.74L85.4191 66.345L87.5391 64.566L74.5631 47.419ZM39.8211 54.217L38.1471 50.81L40.1511 31.285L41.5411 31.322L39.8211 54.217ZM59.4871 54.124L56.8771 31.254H58.3071L60.7071 52.459L59.4871 54.124Z" fill="black"/>
</svg>
