<svg width="61" height="64" viewBox="0 0 61 64" fill="none" xmlns="http://www.w3.org/2000/svg">
<g clip-path="url(#clip0_550_46)">
<path fill-rule="evenodd" clip-rule="evenodd" d="M60.1 37.6172C60.1 44.4492 55.686 50.4742 47.599 54.0392C47.637 54.2752 47.661 54.5132 47.661 54.7542C47.661 59.3962 40.415 63.1592 31.476 63.1592C22.573 63.1592 15.352 59.4262 15.293 54.8102C6.153 51.3852 0 44.9682 0 37.6172C0 30.7012 5.446 24.6132 13.701 21.0652C13.362 19.5052 13.176 17.8252 13.176 16.0732C13.176 7.91516 17.182 1.30216 22.123 1.30216C27.064 1.30216 31.069 7.91516 31.069 16.0732C31.069 16.6542 31.047 17.2272 31.007 17.7912C31.215 17.7932 31.423 17.7972 31.63 17.8022C31.478 16.7242 31.395 15.5992 31.395 14.4402C31.395 6.55316 35.145 0.160156 39.772 0.160156C44.399 0.160156 48.149 6.55316 48.149 14.4402C48.149 16.8162 47.807 19.0542 47.205 21.0242C55.513 24.5672 60.1 30.6752 60.1 37.6172ZM22.611 14.3592C20.185 14.3592 18.219 17.6842 18.219 21.7852C18.219 25.8862 20.185 29.2112 22.611 29.2112C25.036 29.2112 27.003 25.8862 27.003 21.7852C27.003 17.6842 25.036 14.3592 22.611 14.3592ZM40.585 11.9112C38.474 11.9112 36.763 15.3452 36.763 19.5822C36.763 23.8182 38.474 27.2532 40.585 27.2532C42.696 27.2532 44.408 23.8182 44.408 19.5822C44.408 15.3452 42.696 11.9112 40.585 11.9112ZM44.083 56.9572C43.968 57.2002 43.873 57.4002 43.791 57.5702C43.761 57.5872 43.732 57.6042 43.7 57.6212L43.145 57.6292C43.013 57.4662 42.768 57.3942 42.293 57.6112C42.293 57.6112 42.273 57.6202 42.211 57.6402L21.04 57.9092C20.907 57.7942 20.726 57.6112 20.496 57.3282V57.1212H20.334C19.683 56.2652 18.708 54.6752 17.405 51.7352C17.405 51.7352 17.405 54.1832 18.869 57.9372L18.9 57.9362C19.332 59.2122 24.796 60.2222 31.476 60.2222C38.438 60.2222 44.083 59.1262 44.083 57.7732C44.083 57.7212 44.073 57.6692 44.055 57.6172L44.571 57.6112C44.571 57.6112 44.571 57.6112 45.547 53.8562C46.523 50.1022 45.547 53.8562 44.083 56.9572ZM26.84 58.7532V58.9702C25.805 58.9162 24.824 58.8442 23.923 58.7532H26.84ZM23.099 58.5892V58.6632C22.899 58.6392 22.704 58.6152 22.513 58.5892H23.099ZM19.683 57.9262V58.0642C19.52 58.0212 19.366 57.9772 19.225 57.9322L19.683 57.9262ZM41.317 58.3192V57.8552C41.846 57.7472 42.099 57.6762 42.211 57.6402L43.145 57.6292C43.19 57.6842 43.222 57.7492 43.245 57.8192C42.759 58.0002 42.104 58.1682 41.317 58.3192ZM22.675 58.2632H21.147V58.3792C20.919 58.3392 20.703 58.2972 20.496 58.2542V57.9162L21.04 57.9092C21.219 58.0652 21.309 58.1002 21.309 58.1002C21.753 58.1602 22.211 58.2132 22.675 58.2632ZM40.504 24.3152C39.336 24.3152 38.389 22.1002 38.389 21.3772C38.389 19.7552 39.336 18.4392 40.504 18.4392C41.672 18.4392 42.619 19.7552 42.619 21.3772C42.619 22.1002 41.672 24.3152 40.504 24.3152ZM22.773 26.2742C21.516 26.2742 20.496 24.8492 20.496 23.0912C20.496 21.3332 21.516 19.9082 22.773 19.9082C24.031 19.9082 25.051 21.3332 25.051 23.0912C25.051 24.8492 24.031 26.2742 22.773 26.2742Z" fill="#DADADA"/>
</g>
<defs>
<clipPath id="clip0_550_46">
<rect width="61" height="64" fill="white"/>
</clipPath>
</defs>
</svg>
